G04 DipTrace 3.0.0.1*
G04 Bottom.gbr*
%MOIN*%
G04 #@! TF.FileFunction,Copper,L2,Bot*
G04 #@! TF.Part,Single*
G04 #@! TA.AperFunction,Conductor*
%ADD10C,0.01*%
%ADD14C,0.007*%
%ADD15C,0.015*%
%ADD16C,0.03*%
G04 #@! TA.AperFunction,CopperBalancing*
%ADD18C,0.025*%
G04 #@! TA.AperFunction,Conductor*
%ADD19C,0.02*%
G04 #@! TA.AperFunction,CopperBalancing*
%ADD23C,0.012992*%
%ADD26R,0.059055X0.051181*%
%ADD27R,0.051181X0.059055*%
G04 #@! TA.AperFunction,ComponentPad*
%ADD33R,0.059055X0.059055*%
%ADD34C,0.059055*%
%ADD36R,0.041339X0.025591*%
%ADD39R,0.098425X0.047244*%
%ADD42R,0.059843X0.159843*%
G04 #@! TA.AperFunction,ViaPad*
%ADD48C,0.031496*%
%FSLAX26Y26*%
G04*
G70*
G90*
G75*
G01*
G04 Bottom*
%LPD*%
X1341339Y1087402D2*
D14*
X1311286D1*
X1293963Y1070079D1*
Y1012599D1*
X1274541Y993176D1*
X1221916D1*
X1372047Y1232546D2*
X1217586D1*
X1207481Y1222441D1*
X1372047Y1132546D2*
X1216929D1*
X1215486Y1131103D1*
X472047Y1932677D2*
Y1929921D1*
X517323Y1884646D1*
X1186352Y1460368D2*
D15*
X1144751D1*
X1120341Y1435958D1*
X438845Y527297D2*
D14*
Y567323D1*
X439502Y567979D1*
X931496Y1440551D2*
D10*
X729397D1*
X666011Y1503937D1*
X712599Y1244882D2*
Y1457349D1*
X666011Y1503937D1*
X712599Y1244882D2*
Y1204725D1*
X807087Y1110236D1*
Y948819D1*
Y595145D1*
X834515Y567717D1*
X707743Y544226D2*
X455774D1*
X438845Y527297D1*
X736221Y1586614D2*
Y1515748D1*
X716536Y1496063D1*
X673885D1*
X666011Y1503937D1*
X633858Y948819D2*
X807087D1*
X972047Y439108D2*
D16*
Y562709D1*
X972026Y562730D1*
X907612D1*
X893963Y549082D1*
X833071D1*
X830709Y551444D1*
Y563911D1*
X834515Y567717D1*
X835302Y524016D2*
Y566929D1*
X834515Y567717D1*
X626116Y793701D2*
D14*
X681103D1*
X706037Y768767D1*
Y620735D1*
X707743Y619029D1*
X660499D1*
X638845Y640683D1*
X453019Y662336D2*
X556168D1*
X556693Y662861D1*
X740158Y826772D2*
X612336D1*
X571523Y785958D1*
X425460D1*
X413386Y773885D1*
Y662467D1*
X452887D1*
X453019Y662336D1*
X556693Y737664D2*
X627428D1*
X625984Y736221D1*
X453019Y737139D2*
X471523D1*
X507874Y700788D1*
X630709D1*
X637008Y694488D1*
X1048688Y1733596D2*
X956431D1*
X581628Y1773229D2*
X531496D1*
X472047Y1832677D1*
X666011Y1578740D2*
Y1723229D1*
X616273Y1772966D1*
X581890D1*
X581628Y1773229D1*
X1186352Y1535171D2*
Y1564305D1*
X1050394Y1700263D1*
Y1731890D1*
X1048688Y1733596D1*
X1186352Y1535171D2*
D15*
Y1630184D1*
X1276509Y677953D2*
D16*
Y937008D1*
X1372047Y1032546D1*
X472047Y2032677D2*
D14*
Y2006824D1*
X522310Y1956562D1*
X533071D1*
X548688Y1940945D1*
Y1838977D1*
X560761Y1826903D1*
X619160D1*
X671785Y1774278D1*
X581628Y1698425D2*
X506299D1*
X472047Y1732677D1*
X1272835Y1771391D2*
X1139633D1*
X1139239Y1770998D1*
X520735Y1084252D2*
X556956D1*
X638189Y1165486D1*
Y1293570D1*
X522572Y1000131D2*
X535171D1*
X678609Y1143570D1*
X865879Y1696194D2*
X1009843D1*
X1129921Y1576116D1*
Y1486877D1*
X1106037Y1462992D1*
X1057349D1*
X1056562Y1463780D1*
X1058137Y1370866D2*
X1018373D1*
X993176Y1396063D1*
Y1447376D1*
X920998Y1519554D1*
Y1653806D1*
X959580Y1779265D2*
X907612D1*
X899213Y1770866D1*
X866011D1*
X865879Y1770998D1*
X1058137Y1296063D2*
X995932D1*
X993570Y1293701D1*
X1372047Y1532546D2*
X1275853D1*
X1260236Y1516929D1*
Y1278215D1*
X1239239Y1257218D1*
X1112861D1*
X1104200Y1265879D1*
Y1377166D1*
X1122179Y1395145D1*
X1139239Y1696194D2*
Y1699738D1*
X1193307D1*
X1242651Y1650394D1*
Y1386483D1*
X1225460Y1369292D1*
X1191076D1*
X1190158Y1370210D1*
X1136483Y1295407D2*
X1190158D1*
X1272835Y1696588D2*
D10*
X1333990D1*
X1368242Y1662336D1*
X1056562Y1538583D2*
D14*
X958662D1*
X957218Y1540026D1*
X1104856Y572704D2*
D19*
X1127297D1*
X1144751D1*
X1146457Y574410D1*
X1276509Y579528D2*
X1204462D1*
X1161024Y622966D1*
X1138189D1*
X1127297Y612074D1*
Y572704D1*
X1046830Y562730D2*
D16*
Y439129D1*
X1046851Y439108D1*
X1046830Y562730D2*
X1114817D1*
X1127297Y572704D1*
X1046830Y562730D2*
Y656845D1*
X1035696Y667979D1*
X929790D1*
X909974Y687795D1*
Y776772D1*
X906824Y779921D1*
X925591D1*
X929134Y783465D1*
D48*
X1341339Y1087402D3*
X1221916Y993176D3*
X1207481Y1222441D3*
X1215486Y1131103D3*
X517323Y1884646D3*
X1120341Y1435958D3*
X931496Y1440551D3*
X712599Y1244882D3*
D3*
X736221Y1586614D3*
X633858Y948819D3*
X626116Y793701D3*
X638845Y640683D3*
X740158Y826772D3*
X625984Y736221D3*
X637008Y694488D3*
X1186352Y1630184D3*
X671785Y1774278D3*
X520735Y1084252D3*
X638189Y1293570D3*
X522572Y1000131D3*
X678609Y1143570D3*
X920998Y1653806D3*
X959580Y1779265D3*
X993570Y1293701D3*
X1122179Y1395145D3*
X1136483Y1295407D3*
X1368242Y1662336D3*
X957218Y1540026D3*
X1104856Y572704D3*
X1146457Y574410D3*
X439502Y567979D3*
X438845Y527297D3*
X834515Y567717D3*
X835302Y524016D3*
X881890Y779528D3*
X929134Y783465D3*
X984252Y2086614D3*
X1062992D3*
Y2007874D3*
X866142Y2086614D3*
Y2007874D3*
X1141732Y2086614D3*
Y2007874D3*
X787402Y2086614D3*
Y2007874D3*
X1141732Y2244095D3*
Y2165355D3*
X1220473Y2244095D3*
Y2165355D3*
Y2086614D3*
Y2007874D3*
X1141732Y1929134D3*
X1220473D3*
X629921Y2086614D3*
Y2007874D3*
X708662Y2086614D3*
Y2007874D3*
X629921Y2244095D3*
Y2165355D3*
X708662Y2244095D3*
Y2165355D3*
X1141732Y1850394D3*
X1062992D3*
X1220473D3*
X984252D3*
X826772D3*
X748032D3*
X905512D3*
X669292D3*
X708662Y1929134D3*
X629921D3*
X551181Y2086614D3*
Y2007874D3*
Y2244095D3*
Y2165355D3*
X1299213Y2086614D3*
Y2007874D3*
Y2244095D3*
Y2165355D3*
X428725Y2265466D2*
D18*
X776948D1*
X882778D2*
X977339D1*
X1083169D2*
X1421675D1*
X428725Y2240597D2*
X776948D1*
X882778D2*
X977339D1*
X1083169D2*
X1421675D1*
X428725Y2215729D2*
X776948D1*
X882778D2*
X977339D1*
X1083169D2*
X1421675D1*
X428725Y2190860D2*
X776948D1*
X882778D2*
X977339D1*
X1083169D2*
X1421675D1*
X511880Y2165991D2*
X776948D1*
X882778D2*
X977339D1*
X1083169D2*
X1421675D1*
X523843Y2141122D2*
X776948D1*
X882778D2*
X977339D1*
X1083169D2*
X1421675D1*
X521792Y2116254D2*
X1421675D1*
X428725Y2091385D2*
X441335D1*
X502798D2*
X1421675D1*
X511391Y2066516D2*
X1421675D1*
X523745Y2041647D2*
X1421675D1*
X521987Y2016778D2*
X1421675D1*
X428725Y1991910D2*
X440555D1*
X523403D2*
X1421675D1*
X559048Y1967041D2*
X1421675D1*
X575161Y1942172D2*
X1421675D1*
X575210Y1917303D2*
X1421675D1*
X428725Y1892435D2*
X439872D1*
X504263D2*
X522221D1*
X575210D2*
X1421675D1*
X510415Y1867566D2*
X522165D1*
X575210D2*
X1421675D1*
X639809Y1842697D2*
X1421675D1*
X664663Y1817828D2*
X1421675D1*
X705337Y1792960D2*
X822212D1*
X995620D2*
X1095552D1*
X1325356D2*
X1421675D1*
X710024Y1768091D2*
X822212D1*
X996548D2*
X1095552D1*
X1325356D2*
X1421675D1*
X692983Y1743222D2*
X822212D1*
X1182925D2*
X1220307D1*
X1325356D2*
X1421675D1*
X692495Y1718353D2*
X822212D1*
X1210952D2*
X1220338D1*
X1349770D2*
X1421675D1*
X692495Y1693484D2*
X822212D1*
X1389272D2*
X1421675D1*
X428725Y1668616D2*
X529096D1*
X692495D2*
X822212D1*
X956606D2*
X1000971D1*
X1406460D2*
X1421659D1*
X428725Y1643747D2*
X639497D1*
X692495D2*
X883686D1*
X958315D2*
X1025825D1*
X1269155D2*
X1334614D1*
X1401870D2*
X1421675D1*
X428725Y1618878D2*
X613471D1*
X718520D2*
X894477D1*
X947475D2*
X1050727D1*
X1269155D2*
X1421675D1*
X428725Y1594009D2*
X613471D1*
X718520D2*
X894477D1*
X947475D2*
X1075581D1*
X1269155D2*
X1421675D1*
X524721Y1569141D2*
X613471D1*
X718520D2*
X894477D1*
X981313D2*
X1004048D1*
X1269155D2*
X1335444D1*
X1408657D2*
X1421704D1*
X524721Y1544272D2*
X613471D1*
X718520D2*
X894477D1*
X524721Y1519403D2*
X613471D1*
X718520D2*
X894477D1*
X524721Y1494534D2*
X613471D1*
X718520D2*
X909565D1*
X982436D2*
X1004048D1*
X1286733D2*
X1337007D1*
X1407095D2*
X1421718D1*
X508364Y1469666D2*
X613471D1*
X718520D2*
X934468D1*
X1286733D2*
X1336030D1*
X1408071D2*
X1421727D1*
X523208Y1444797D2*
X959321D1*
X1286733D2*
X1321040D1*
X523061Y1419928D2*
X966694D1*
X1286733D2*
X1321138D1*
X428725Y1395059D2*
X436652D1*
X507680D2*
X966694D1*
X1286733D2*
X1336421D1*
X1407680D2*
X1421689D1*
X428725Y1370191D2*
X436555D1*
X507778D2*
X982612D1*
X1286733D2*
X1336616D1*
X1407485D2*
X1421671D1*
X523061Y1345322D2*
X1005610D1*
X1286733D2*
X1321186D1*
X523208Y1320453D2*
X611372D1*
X665005D2*
X966596D1*
X1286733D2*
X1320991D1*
X508266Y1295584D2*
X599507D1*
X676870D2*
X954878D1*
X1286733D2*
X1335835D1*
X1408266D2*
X1421666D1*
X428725Y1270715D2*
X437140D1*
X507192D2*
X607563D1*
X668813D2*
X963032D1*
X1285513D2*
X1337202D1*
X1406899D2*
X1421700D1*
X522964Y1245847D2*
X611665D1*
X664712D2*
X1087788D1*
X523305Y1220978D2*
X611665D1*
X664712D2*
X1168745D1*
X508804Y1196109D2*
X611665D1*
X664712D2*
X1180073D1*
X1234878D2*
X1335249D1*
X1408804D2*
X1421719D1*
X428725Y1171240D2*
X437823D1*
X506557D2*
X607514D1*
X704507D2*
X1337837D1*
X1406264D2*
X1421729D1*
X522817Y1146372D2*
X582612D1*
X717251D2*
X1180122D1*
X523452Y1121503D2*
X557759D1*
X709878D2*
X1178022D1*
X668130Y1096634D2*
X1201753D1*
X1229214D2*
X1284077D1*
X1409389D2*
X1421702D1*
X428725Y1071765D2*
X438408D1*
X643227D2*
X1267524D1*
X1405630D2*
X1421673D1*
X618374Y1046897D2*
X1267475D1*
X593520Y1022028D2*
X1197456D1*
X1246352D2*
X1266938D1*
X568618Y997159D2*
X1183393D1*
X1409927D2*
X1421684D1*
X428725Y972290D2*
X439091D1*
X548305D2*
X1189790D1*
X1404946D2*
X1421706D1*
X522475Y947421D2*
X1240083D1*
X523647Y922553D2*
X1238520D1*
X510415Y897684D2*
X1238520D1*
X1314516D2*
X1333686D1*
X1410415D2*
X1421665D1*
X428725Y872815D2*
X439774D1*
X504555D2*
X1238520D1*
X522329Y847946D2*
X598530D1*
X772085D2*
X1238520D1*
X523794Y823078D2*
X572212D1*
X778725D2*
X835249D1*
X975210D2*
X1238520D1*
X764956Y798209D2*
X835249D1*
X975210D2*
X1238520D1*
X732095Y773340D2*
X835249D1*
X975210D2*
X1238520D1*
X1314516D2*
X1421675D1*
X662612Y748471D2*
X679536D1*
X732534D2*
X835249D1*
X975210D2*
X1238520D1*
X1314516D2*
X1355366D1*
X1414175D2*
X1421687D1*
X662466Y723603D2*
X679536D1*
X732534D2*
X835249D1*
X975210D2*
X1238520D1*
X1314516D2*
X1339253D1*
X732534Y698734D2*
X871968D1*
X1055923D2*
X1204292D1*
X669302Y673865D2*
X679571D1*
X732534D2*
X874800D1*
X1080483D2*
X1204292D1*
X1348745D2*
X1362446D1*
X1407095D2*
X1421718D1*
X760268Y648996D2*
X896089D1*
X1084829D2*
X1119770D1*
X1179409D2*
X1204292D1*
X1348745D2*
X1421675D1*
X760268Y624128D2*
X1008833D1*
X1084829D2*
X1096747D1*
X1205483D2*
X1421675D1*
X428725Y599259D2*
X644380D1*
X760268D2*
X923432D1*
X1348745D2*
X1421675D1*
X428725Y574390D2*
X655220D1*
X760268D2*
X923432D1*
X1348745D2*
X1421675D1*
X428725Y549521D2*
X655220D1*
X760268D2*
X923432D1*
X1175307D2*
X1196479D1*
X1348745D2*
X1421675D1*
X428725Y524652D2*
X655220D1*
X760268D2*
X923432D1*
X1095425D2*
X1198286D1*
X1354702D2*
X1421675D1*
X428725Y499784D2*
X655220D1*
X760268D2*
X1008833D1*
X1084829D2*
X1198286D1*
X1354702D2*
X1421675D1*
X428725Y474915D2*
X923481D1*
X1095425D2*
X1198286D1*
X428725Y450046D2*
X923481D1*
X1095425D2*
X1198286D1*
X665577Y665120D2*
X682081D1*
X682037Y758852D1*
X671134Y769729D1*
X653319Y769701D1*
X648112Y764919D1*
X653548Y759762D1*
X656891Y755160D1*
X659473Y750092D1*
X661231Y744683D1*
X662121Y739065D1*
Y733377D1*
X661231Y727759D1*
X659639Y722798D1*
X664571Y718030D1*
X667915Y713428D1*
X670497Y708360D1*
X672255Y702950D1*
X673144Y697332D1*
Y691644D1*
X672255Y686026D1*
X670497Y680617D1*
X667915Y675549D1*
X664571Y670947D1*
X662174Y668427D1*
X665586Y665114D1*
X730030Y665120D2*
X757771D1*
Y498135D1*
X657715D1*
Y595155D1*
X651314Y596856D1*
X646392Y599613D1*
X641077Y604510D1*
X633175Y604881D1*
X627644Y606209D1*
X622389Y608385D1*
X617539Y611357D1*
X613214Y615051D1*
X609520Y619377D1*
X606717Y623926D1*
X606721Y616771D1*
X506666D1*
Y638304D1*
X503092Y638336D1*
X503046Y616245D1*
X426240D1*
X426201Y426224D1*
X925957Y426201D1*
Y489135D1*
X1011356D1*
X1011329Y512713D1*
X925936Y512702D1*
Y612757D1*
X1011335D1*
X1011330Y632505D1*
X927005Y632589D1*
X921503Y633460D1*
X916205Y635181D1*
X911242Y637710D1*
X906735Y640985D1*
X882980Y664740D1*
X879705Y669247D1*
X877176Y674210D1*
X875455Y679508D1*
X874583Y685010D1*
X874474Y718118D1*
X837768Y718083D1*
Y839791D1*
X972731D1*
Y718083D1*
X945437D1*
X945474Y703481D1*
X1038481Y703370D1*
X1043983Y702498D1*
X1049281Y700777D1*
X1054244Y698248D1*
X1058751Y694974D1*
X1073824Y679901D1*
X1077098Y675394D1*
X1079627Y670431D1*
X1081349Y665133D1*
X1082220Y659631D1*
X1082330Y612754D1*
X1092920Y612757D1*
Y606947D1*
X1096797Y608030D1*
X1097172Y616845D1*
X1099118Y623746D1*
X1102622Y630001D1*
X1105730Y633641D1*
X1118381Y646159D1*
X1124342Y650142D1*
X1131069Y652624D1*
X1138189Y653466D1*
X1163417Y653372D1*
X1170449Y651973D1*
X1176960Y648972D1*
X1182591Y644533D1*
X1206794Y620330D1*
X1206797Y623650D1*
X1346222D1*
Y535406D1*
X1206797D1*
Y549029D1*
X1199691Y549403D1*
X1192790Y551349D1*
X1186535Y554853D1*
X1180030Y560827D1*
X1177363Y555470D1*
X1174020Y550868D1*
X1169998Y546846D1*
X1165396Y543503D1*
X1160328Y540921D1*
X1154919Y539163D1*
X1149301Y538273D1*
X1141416Y538533D1*
X1132370Y531873D1*
X1127326Y529507D1*
X1121975Y527959D1*
X1117603Y527339D1*
X1092893Y527230D1*
X1092920Y512702D1*
X1082325D1*
X1082330Y489146D1*
X1092941Y489135D1*
Y426196D1*
X1345097Y426201D1*
X1343112Y430978D1*
X1200805Y430988D1*
Y531216D1*
X1352214D1*
Y475601D1*
X1358792Y481435D1*
X1364707Y485060D1*
X1371116Y487714D1*
X1377861Y489334D1*
X1384777Y489878D1*
X1391693Y489334D1*
X1398438Y487714D1*
X1404847Y485060D1*
X1410762Y481435D1*
X1416037Y476930D1*
X1420543Y471655D1*
X1424196Y465678D1*
X1424167Y693316D1*
X1420543Y687401D1*
X1416037Y682126D1*
X1410762Y677621D1*
X1404847Y673996D1*
X1398438Y671341D1*
X1391693Y669722D1*
X1384777Y669178D1*
X1377861Y669722D1*
X1371116Y671341D1*
X1364707Y673996D1*
X1358792Y677621D1*
X1353517Y682126D1*
X1349012Y687401D1*
X1346228Y691813D1*
X1346222Y633831D1*
X1206797D1*
Y722075D1*
X1241026D1*
X1241119Y939793D1*
X1241990Y945295D1*
X1243712Y950593D1*
X1246241Y955557D1*
X1249515Y960064D1*
X1258485Y969188D1*
X1249101Y969176D1*
X1243222Y963851D1*
X1238372Y960879D1*
X1233117Y958702D1*
X1227587Y957374D1*
X1221916Y956928D1*
X1216246Y957374D1*
X1210715Y958702D1*
X1205460Y960879D1*
X1200610Y963851D1*
X1196285Y967545D1*
X1192591Y971870D1*
X1189619Y976720D1*
X1187442Y981975D1*
X1186114Y987506D1*
X1185668Y993176D1*
X1186114Y998847D1*
X1187442Y1004377D1*
X1189619Y1009632D1*
X1192591Y1014482D1*
X1196285Y1018807D1*
X1200610Y1022501D1*
X1205460Y1025473D1*
X1210715Y1027650D1*
X1216246Y1028978D1*
X1221916Y1029424D1*
X1227587Y1028978D1*
X1233117Y1027650D1*
X1238372Y1025473D1*
X1243222Y1022501D1*
X1249049Y1017183D1*
X1264641Y1017176D1*
X1269965Y1022542D1*
X1270259Y1073833D1*
X1271790Y1079263D1*
X1274547Y1084186D1*
X1285832Y1095888D1*
X1297179Y1106818D1*
X1298753Y1107869D1*
X1297047Y1108546D1*
X1243874D1*
X1239027Y1103539D1*
X1234425Y1100196D1*
X1229357Y1097614D1*
X1223948Y1095856D1*
X1218330Y1094966D1*
X1212642D1*
X1207024Y1095856D1*
X1201614Y1097614D1*
X1196546Y1100196D1*
X1191945Y1103539D1*
X1187923Y1107561D1*
X1184579Y1112163D1*
X1181997Y1117231D1*
X1180239Y1122641D1*
X1179349Y1128259D1*
Y1133947D1*
X1180239Y1139565D1*
X1181997Y1144974D1*
X1184579Y1150042D1*
X1187923Y1154644D1*
X1191945Y1158666D1*
X1196546Y1162009D1*
X1201614Y1164591D1*
X1207024Y1166349D1*
X1212642Y1167239D1*
X1218330D1*
X1223948Y1166349D1*
X1229357Y1164591D1*
X1234425Y1162009D1*
X1239027Y1158666D1*
X1241291Y1156546D1*
X1328111D1*
X1331574Y1161952D1*
X1336673Y1167921D1*
X1342642Y1173019D1*
X1349335Y1177121D1*
X1356588Y1180125D1*
X1364221Y1181958D1*
X1370959Y1182531D1*
X1364221Y1183135D1*
X1356588Y1184967D1*
X1349335Y1187971D1*
X1342642Y1192073D1*
X1336673Y1197171D1*
X1331574Y1203141D1*
X1328200Y1208535D1*
X1240944Y1208546D1*
X1238387Y1203502D1*
X1235044Y1198900D1*
X1231022Y1194878D1*
X1226420Y1191535D1*
X1221352Y1188952D1*
X1215942Y1187195D1*
X1210325Y1186305D1*
X1204637D1*
X1199019Y1187195D1*
X1193609Y1188952D1*
X1188541Y1191535D1*
X1183939Y1194878D1*
X1179917Y1198900D1*
X1176574Y1203502D1*
X1173992Y1208570D1*
X1172234Y1213979D1*
X1171344Y1219597D1*
Y1225285D1*
X1172889Y1233225D1*
X1109107Y1233513D1*
X1103677Y1235045D1*
X1098754Y1237802D1*
X1090116Y1246022D1*
X1087224Y1248914D1*
X1083164Y1249973D1*
X1008109D1*
Y1260471D1*
X1002032Y1258455D1*
X996414Y1257565D1*
X990726D1*
X985108Y1258455D1*
X979698Y1260212D1*
X974630Y1262794D1*
X970029Y1266138D1*
X966007Y1270160D1*
X962663Y1274761D1*
X960081Y1279829D1*
X958323Y1285239D1*
X957433Y1290857D1*
Y1296545D1*
X958323Y1302163D1*
X960081Y1307573D1*
X962663Y1312641D1*
X966007Y1317242D1*
X970029Y1321264D1*
X974630Y1324608D1*
X979698Y1327190D1*
X985108Y1328947D1*
X990726Y1329837D1*
X996414D1*
X1002032Y1328947D1*
X1008118Y1326878D1*
X1008109Y1349141D1*
X1002786Y1352617D1*
X974926Y1380476D1*
X971792Y1385167D1*
X969839Y1390461D1*
X969176Y1396063D1*
Y1437421D1*
X901581Y1505447D1*
X898824Y1510370D1*
X897293Y1515800D1*
X896998Y1532054D1*
Y1626634D1*
X891672Y1632500D1*
X888700Y1637350D1*
X886524Y1642605D1*
X885196Y1648136D1*
X884750Y1653806D1*
X885196Y1659476D1*
X885929Y1662899D1*
X824710D1*
Y1729489D1*
X907049D1*
Y1720163D1*
X915262Y1725300D1*
Y1752986D1*
X910109Y1749482D1*
X908390Y1748691D1*
X907049Y1741793D1*
Y1737702D1*
X824710D1*
Y1804293D1*
X907049D1*
Y1803267D1*
X932368Y1803265D1*
X938274Y1808591D1*
X943124Y1811563D1*
X948379Y1813739D1*
X953910Y1815067D1*
X959580Y1815513D1*
X965251Y1815067D1*
X970782Y1813739D1*
X976037Y1811563D1*
X980886Y1808591D1*
X985211Y1804897D1*
X988906Y1800571D1*
X991877Y1795722D1*
X994054Y1790467D1*
X995382Y1784936D1*
X995828Y1779265D1*
X995382Y1773595D1*
X993619Y1766885D1*
X997600Y1766891D1*
Y1757565D1*
X1007554Y1757596D1*
X1007519Y1766891D1*
X1089857D1*
Y1700300D1*
X1084340D1*
X1098059Y1686539D1*
X1098070Y1729489D1*
X1180409D1*
Y1723777D1*
X1197062Y1723442D1*
X1202492Y1721911D1*
X1207414Y1719154D1*
X1219117Y1707869D1*
X1222811Y1704175D1*
X1222807Y1747420D1*
X1180403Y1747391D1*
X1180409Y1737702D1*
X1098070D1*
Y1804293D1*
X1180409D1*
Y1795357D1*
X1222787Y1795391D1*
X1222807Y1817482D1*
X1322863D1*
Y1722122D1*
X1337979Y1721774D1*
X1343748Y1720147D1*
X1348978Y1717218D1*
X1352021Y1714619D1*
X1368242Y1698584D1*
X1373912Y1698138D1*
X1379443Y1696810D1*
X1384698Y1694633D1*
X1389548Y1691661D1*
X1393873Y1687967D1*
X1397567Y1683642D1*
X1400539Y1678792D1*
X1402716Y1673537D1*
X1404043Y1668007D1*
X1404490Y1662336D1*
X1404043Y1656666D1*
X1402716Y1651135D1*
X1400539Y1645880D1*
X1397567Y1641030D1*
X1393873Y1636705D1*
X1389548Y1633011D1*
X1384698Y1630039D1*
X1379443Y1627862D1*
X1373912Y1626534D1*
X1368242Y1626088D1*
X1362571Y1626534D1*
X1357040Y1627862D1*
X1351785Y1630039D1*
X1346936Y1633011D1*
X1342610Y1636705D1*
X1338916Y1641030D1*
X1335944Y1645880D1*
X1333768Y1651135D1*
X1332440Y1656666D1*
X1332001Y1662525D1*
X1322863Y1667679D1*
Y1650497D1*
X1266651Y1650394D1*
X1266669Y1554719D1*
X1272099Y1556251D1*
X1288353Y1556546D1*
X1328148D1*
X1331574Y1561952D1*
X1336673Y1567921D1*
X1342642Y1573019D1*
X1349335Y1577121D1*
X1356588Y1580125D1*
X1364221Y1581958D1*
X1372047Y1582574D1*
X1379873Y1581958D1*
X1387507Y1580125D1*
X1394759Y1577121D1*
X1401453Y1573019D1*
X1407422Y1567921D1*
X1412521Y1561952D1*
X1416622Y1555258D1*
X1419626Y1548006D1*
X1421459Y1540372D1*
X1422075Y1532546D1*
X1421459Y1524720D1*
X1419626Y1517087D1*
X1416622Y1509834D1*
X1412521Y1503141D1*
X1407422Y1497171D1*
X1401453Y1492073D1*
X1394759Y1487971D1*
X1387507Y1484967D1*
X1379873Y1483135D1*
X1373136Y1482561D1*
X1379873Y1481958D1*
X1387507Y1480125D1*
X1394759Y1477121D1*
X1401453Y1473019D1*
X1407422Y1467921D1*
X1412521Y1461952D1*
X1416622Y1455258D1*
X1419626Y1448006D1*
X1421459Y1440372D1*
X1422075Y1432546D1*
X1421459Y1424720D1*
X1419626Y1417087D1*
X1416622Y1409834D1*
X1412521Y1403141D1*
X1407422Y1397171D1*
X1401453Y1392073D1*
X1394759Y1387971D1*
X1387507Y1384967D1*
X1379873Y1383135D1*
X1373136Y1382561D1*
X1379873Y1381958D1*
X1387507Y1380125D1*
X1394759Y1377121D1*
X1401453Y1373019D1*
X1407422Y1367921D1*
X1412521Y1361952D1*
X1416622Y1355258D1*
X1419626Y1348006D1*
X1421459Y1340372D1*
X1422075Y1332546D1*
X1421459Y1324720D1*
X1419626Y1317087D1*
X1416622Y1309834D1*
X1412521Y1303141D1*
X1407422Y1297171D1*
X1401453Y1292073D1*
X1394759Y1287971D1*
X1387507Y1284967D1*
X1379873Y1283135D1*
X1373136Y1282561D1*
X1379873Y1281958D1*
X1387507Y1280125D1*
X1394759Y1277121D1*
X1401453Y1273019D1*
X1407422Y1267921D1*
X1412521Y1261952D1*
X1416622Y1255258D1*
X1419626Y1248006D1*
X1421459Y1240372D1*
X1422075Y1232546D1*
X1421459Y1224720D1*
X1419626Y1217087D1*
X1416622Y1209834D1*
X1412521Y1203141D1*
X1407422Y1197171D1*
X1401453Y1192073D1*
X1394759Y1187971D1*
X1387507Y1184967D1*
X1379873Y1183135D1*
X1373136Y1182561D1*
X1379873Y1181958D1*
X1387507Y1180125D1*
X1394759Y1177121D1*
X1401453Y1173019D1*
X1407422Y1167921D1*
X1412521Y1161952D1*
X1416622Y1155258D1*
X1419626Y1148006D1*
X1421459Y1140372D1*
X1422075Y1132546D1*
X1421459Y1124720D1*
X1419626Y1117087D1*
X1416622Y1109834D1*
X1412521Y1103141D1*
X1407422Y1097171D1*
X1401453Y1092073D1*
X1394759Y1087971D1*
X1387507Y1084967D1*
X1379873Y1083135D1*
X1377298Y1082830D1*
X1387507Y1080125D1*
X1394759Y1077121D1*
X1401453Y1073019D1*
X1407422Y1067921D1*
X1412521Y1061952D1*
X1416622Y1055258D1*
X1419626Y1048006D1*
X1421459Y1040372D1*
X1422075Y1032546D1*
X1421459Y1024720D1*
X1419626Y1017087D1*
X1416622Y1009834D1*
X1412521Y1003141D1*
X1407422Y997171D1*
X1401453Y992073D1*
X1394759Y987971D1*
X1387507Y984967D1*
X1379873Y983135D1*
X1373136Y982561D1*
X1379873Y981958D1*
X1387507Y980125D1*
X1394759Y977121D1*
X1401453Y973019D1*
X1407422Y967921D1*
X1412521Y961952D1*
X1416622Y955258D1*
X1419626Y948006D1*
X1421459Y940372D1*
X1422075Y932546D1*
X1421459Y924720D1*
X1419626Y917087D1*
X1416622Y909834D1*
X1412521Y903141D1*
X1407422Y897171D1*
X1401453Y892073D1*
X1394759Y887971D1*
X1387507Y884967D1*
X1379873Y883135D1*
X1374520Y882573D1*
X1422075D1*
Y782518D1*
X1322020D1*
Y882573D1*
X1368122Y882673D1*
X1360369Y883901D1*
X1352903Y886327D1*
X1345908Y889891D1*
X1339557Y894505D1*
X1334006Y900056D1*
X1329392Y906407D1*
X1325828Y913401D1*
X1323402Y920867D1*
X1322174Y928621D1*
X1322029Y932316D1*
X1312042Y922335D1*
X1312010Y722116D1*
X1341416Y722075D1*
X1343934Y730304D1*
X1347083Y736485D1*
X1351161Y742097D1*
X1356066Y747002D1*
X1361678Y751080D1*
X1367859Y754229D1*
X1374457Y756373D1*
X1381309Y757458D1*
X1388246D1*
X1395097Y756373D1*
X1401695Y754229D1*
X1407876Y751080D1*
X1413488Y747002D1*
X1418394Y742097D1*
X1422471Y736485D1*
X1424196Y733395D1*
X1424193Y2290312D1*
X1080687Y2290335D1*
X1080671Y2126226D1*
X979829D1*
Y2290337D1*
X880277Y2290100D1*
Y2124257D1*
X779435D1*
Y2290341D1*
X426195Y2290335D1*
X426201Y2152688D1*
X429392Y2158817D1*
X434006Y2165168D1*
X439557Y2170719D1*
X445908Y2175333D1*
X452903Y2178897D1*
X460369Y2181323D1*
X468122Y2182551D1*
X475973D1*
X483726Y2181323D1*
X491192Y2178897D1*
X498187Y2175333D1*
X504538Y2170719D1*
X510089Y2165168D1*
X514703Y2158817D1*
X518267Y2151822D1*
X520693Y2144356D1*
X521921Y2136602D1*
Y2128752D1*
X520693Y2120999D1*
X518267Y2113533D1*
X514703Y2106538D1*
X510089Y2100187D1*
X504538Y2094636D1*
X498187Y2090022D1*
X491192Y2086458D1*
X483726Y2084032D1*
X475973Y2082804D1*
X473136Y2082693D1*
X479873Y2082089D1*
X487507Y2080256D1*
X494759Y2077252D1*
X501453Y2073151D1*
X507422Y2068052D1*
X512521Y2062083D1*
X516622Y2055389D1*
X519626Y2048137D1*
X521459Y2040503D1*
X522075Y2032677D1*
X521459Y2024851D1*
X519626Y2017218D1*
X516622Y2009965D1*
X512521Y2003272D1*
X511200Y2001597D1*
X532280Y1980533D1*
X536826Y1980266D1*
X542255Y1978735D1*
X547178Y1975978D1*
X558880Y1964694D1*
X568104Y1955052D1*
X570861Y1950130D1*
X572392Y1944700D1*
X572688Y1928445D1*
Y1850857D1*
X621043Y1850829D1*
X626577Y1849729D1*
X631700Y1847367D1*
X636131Y1843874D1*
X669518Y1810486D1*
X677455Y1810080D1*
X682986Y1808752D1*
X688241Y1806576D1*
X693091Y1803604D1*
X697416Y1799910D1*
X701110Y1795584D1*
X704082Y1790735D1*
X706259Y1785480D1*
X707587Y1779949D1*
X708033Y1774278D1*
X707587Y1768608D1*
X706259Y1763077D1*
X704082Y1757822D1*
X701110Y1752972D1*
X697416Y1748647D1*
X693091Y1744953D1*
X688241Y1741981D1*
X683268Y1739908D1*
X686474Y1735769D1*
X688836Y1730645D1*
X689937Y1725112D1*
X690011Y1624840D1*
X716038Y1624831D1*
Y1457847D1*
X615983D1*
Y1624831D1*
X642009D1*
X642011Y1713262D1*
X631673Y1723625D1*
X631655Y1652335D1*
X531600D1*
Y1674454D1*
X502545Y1674721D1*
X497115Y1676252D1*
X492193Y1679009D1*
X488120Y1682663D1*
X426226Y1682650D1*
X426201Y1582669D1*
X522206Y1582705D1*
Y1482650D1*
X476104Y1482551D1*
X483857Y1481323D1*
X491323Y1478897D1*
X498318Y1475333D1*
X504669Y1470719D1*
X510220Y1465168D1*
X514834Y1458817D1*
X518398Y1451822D1*
X520824Y1444356D1*
X522052Y1436602D1*
Y1428752D1*
X520824Y1420999D1*
X518398Y1413533D1*
X514834Y1406538D1*
X510220Y1400187D1*
X504669Y1394636D1*
X498318Y1390022D1*
X491323Y1386458D1*
X483857Y1384032D1*
X476104Y1382804D1*
X473267Y1382693D1*
X480005Y1382089D1*
X487638Y1380256D1*
X494891Y1377252D1*
X501584Y1373151D1*
X507554Y1368052D1*
X512652Y1362083D1*
X516754Y1355389D1*
X519758Y1348137D1*
X521590Y1340503D1*
X522206Y1332677D1*
X521590Y1324851D1*
X519758Y1317218D1*
X516754Y1309965D1*
X512652Y1303272D1*
X507554Y1297303D1*
X501584Y1292204D1*
X494891Y1288102D1*
X487638Y1285098D1*
X480005Y1283266D1*
X473267Y1282693D1*
X480005Y1282089D1*
X487638Y1280256D1*
X494891Y1277252D1*
X501584Y1273151D1*
X507554Y1268052D1*
X512652Y1262083D1*
X516754Y1255389D1*
X519758Y1248137D1*
X521590Y1240503D1*
X522206Y1232677D1*
X521590Y1224851D1*
X519758Y1217218D1*
X516754Y1209965D1*
X512652Y1203272D1*
X507554Y1197303D1*
X501584Y1192204D1*
X494891Y1188102D1*
X487638Y1185098D1*
X480005Y1183266D1*
X473267Y1182693D1*
X480005Y1182089D1*
X487638Y1180256D1*
X494891Y1177252D1*
X501584Y1173151D1*
X507554Y1168052D1*
X512652Y1162083D1*
X516754Y1155389D1*
X519758Y1148137D1*
X521590Y1140503D1*
X522206Y1132677D1*
X521590Y1124851D1*
X520735Y1120500D1*
X526406Y1120054D1*
X531936Y1118726D1*
X537191Y1116549D1*
X542041Y1113577D1*
X547461Y1108700D1*
X614183Y1175421D1*
X614189Y1266414D1*
X608864Y1272264D1*
X605892Y1277114D1*
X603715Y1282369D1*
X602387Y1287899D1*
X601941Y1293570D1*
X602387Y1299240D1*
X603715Y1304771D1*
X605892Y1310026D1*
X608864Y1314876D1*
X612558Y1319201D1*
X616883Y1322895D1*
X621733Y1325867D1*
X626988Y1328044D1*
X632519Y1329372D1*
X638189Y1329818D1*
X643860Y1329372D1*
X649390Y1328044D1*
X654645Y1325867D1*
X659495Y1322895D1*
X663820Y1319201D1*
X667514Y1314876D1*
X670486Y1310026D1*
X672663Y1304771D1*
X673991Y1299240D1*
X674437Y1293570D1*
X673991Y1287899D1*
X672663Y1282369D1*
X670486Y1277114D1*
X667514Y1272264D1*
X662196Y1266437D1*
X662189Y1175845D1*
X667408Y1178044D1*
X672939Y1179372D1*
X678609Y1179818D1*
X684280Y1179372D1*
X689810Y1178044D1*
X695065Y1175867D1*
X699915Y1172895D1*
X704240Y1169201D1*
X707934Y1164876D1*
X710906Y1160026D1*
X713083Y1154771D1*
X714411Y1149240D1*
X714857Y1143570D1*
X714411Y1137899D1*
X713083Y1132369D1*
X710906Y1127114D1*
X707934Y1122264D1*
X704240Y1117939D1*
X699915Y1114244D1*
X695065Y1111273D1*
X689810Y1109096D1*
X684280Y1107768D1*
X676398Y1107409D1*
X556610Y987629D1*
X553479Y981192D1*
X550136Y976590D1*
X546114Y972568D1*
X541512Y969225D1*
X536444Y966643D1*
X531034Y964885D1*
X525416Y963995D1*
X519728D1*
X514110Y964885D1*
X509024Y966523D1*
X514834Y958817D1*
X518398Y951822D1*
X520824Y944356D1*
X522052Y936602D1*
Y928752D1*
X520824Y920999D1*
X518398Y913533D1*
X514834Y906538D1*
X510220Y900187D1*
X504669Y894636D1*
X498318Y890022D1*
X491323Y886458D1*
X483857Y884032D1*
X476104Y882804D1*
X473267Y882693D1*
X480005Y882089D1*
X487638Y880256D1*
X494891Y877252D1*
X501584Y873151D1*
X507554Y868052D1*
X512652Y862083D1*
X516754Y855389D1*
X519758Y848137D1*
X521590Y840503D1*
X522206Y832677D1*
X521590Y824851D1*
X519758Y817218D1*
X516746Y809952D1*
X561544Y809958D1*
X596749Y845022D1*
X601440Y848156D1*
X606733Y850109D1*
X612336Y850772D1*
X712971D1*
X718852Y856097D1*
X723701Y859069D1*
X728956Y861246D1*
X734487Y862574D1*
X740158Y863020D1*
X745828Y862574D1*
X751359Y861246D1*
X756614Y859069D1*
X761464Y856097D1*
X765789Y852403D1*
X769483Y848078D1*
X772455Y843228D1*
X774632Y837973D1*
X775959Y832442D1*
X776406Y826772D1*
X775959Y821101D1*
X774632Y815571D1*
X772455Y810316D1*
X769483Y805466D1*
X765789Y801141D1*
X761464Y797447D1*
X756614Y794475D1*
X751359Y792298D1*
X745828Y790970D1*
X740158Y790524D1*
X734487Y790970D1*
X728956Y792298D1*
X723701Y794475D1*
X718852Y797447D1*
X713025Y802765D1*
X706912Y801833D1*
X725453Y782873D1*
X728210Y777951D1*
X729742Y772521D1*
X730037Y756267D1*
Y665105D1*
X521921Y1828752D2*
X520693Y1820999D1*
X520031Y1818651D1*
X531589Y1807077D1*
X531600Y1819319D1*
X534383D1*
X529271Y1824870D1*
X526515Y1829792D1*
X524983Y1835222D1*
X524688Y1851477D1*
Y1931018D1*
X522013Y1930178D1*
X521079Y1922744D1*
X519045Y1915532D1*
X515957Y1908705D1*
X511884Y1902416D1*
X506918Y1896805D1*
X501169Y1891999D1*
X494767Y1888106D1*
X487855Y1885213D1*
X480589Y1883384D1*
X473569Y1882682D1*
X479873Y1882089D1*
X487507Y1880256D1*
X494759Y1877252D1*
X501453Y1873151D1*
X507422Y1868052D1*
X512521Y1862083D1*
X516622Y1855389D1*
X519626Y1848137D1*
X521459Y1840503D1*
X522075Y1832677D1*
X521921Y1828752D1*
X426207Y1852644D2*
X429392Y1858817D1*
X434006Y1865168D1*
X439557Y1870719D1*
X445908Y1875333D1*
X452903Y1878897D1*
X460369Y1881323D1*
X468122Y1882551D1*
X470959Y1882662D1*
X463178Y1883442D1*
X455924Y1885319D1*
X449031Y1888259D1*
X442655Y1892195D1*
X436939Y1897039D1*
X432009Y1902682D1*
X427979Y1908998D1*
X426205Y1912684D1*
X426201Y1852688D1*
X426198Y1952678D2*
X429565Y1959097D1*
X433988Y1965146D1*
X439264Y1970466D1*
X445276Y1974939D1*
X451888Y1978463D1*
X458952Y1980961D1*
X463059Y1981877D1*
X460369Y1984032D1*
X452903Y1986458D1*
X445908Y1990022D1*
X439557Y1994636D1*
X434006Y2000187D1*
X429392Y2006538D1*
X426207Y2012711D1*
X426201Y1952688D1*
X426207Y2052644D2*
X429392Y2058817D1*
X434006Y2065168D1*
X439557Y2070719D1*
X445908Y2075333D1*
X452903Y2078897D1*
X460369Y2081323D1*
X468122Y2082551D1*
X470959Y2082662D1*
X464221Y2083266D1*
X456588Y2085098D1*
X449335Y2088102D1*
X442642Y2092204D1*
X436673Y2097303D1*
X431574Y2103272D1*
X427473Y2109965D1*
X426207Y2112711D1*
X426201Y2052688D1*
X471090Y1382693D2*
X464353Y1383266D1*
X456719Y1385098D1*
X449467Y1388102D1*
X442773Y1392204D1*
X436804Y1397303D1*
X431706Y1403272D1*
X427604Y1409965D1*
X426197Y1413017D1*
X426201Y1352395D1*
X429523Y1358817D1*
X434137Y1365168D1*
X439688Y1370719D1*
X446039Y1375333D1*
X453034Y1378897D1*
X460500Y1381323D1*
X468254Y1382551D1*
X471090Y1382662D1*
Y1282693D2*
X464353Y1283266D1*
X456719Y1285098D1*
X449467Y1288102D1*
X442773Y1292204D1*
X436804Y1297303D1*
X431706Y1303272D1*
X427604Y1309965D1*
X426197Y1313017D1*
X426201Y1252395D1*
X429523Y1258817D1*
X434137Y1265168D1*
X439688Y1270719D1*
X446039Y1275333D1*
X453034Y1278897D1*
X460500Y1281323D1*
X468254Y1282551D1*
X471090Y1282662D1*
Y1182693D2*
X464353Y1183266D1*
X456719Y1185098D1*
X449467Y1188102D1*
X442773Y1192204D1*
X436804Y1197303D1*
X431706Y1203272D1*
X427604Y1209965D1*
X426197Y1213017D1*
X426201Y1152395D1*
X429523Y1158817D1*
X434137Y1165168D1*
X439688Y1170719D1*
X446039Y1175333D1*
X453034Y1178897D1*
X460500Y1181323D1*
X468254Y1182551D1*
X471090Y1182662D1*
X484492Y1084211D2*
X476104Y1082804D1*
X473267Y1082693D1*
X480005Y1082089D1*
X484611Y1081110D1*
X484489Y1084197D1*
X468254Y1082804D1*
X460500Y1084032D1*
X453034Y1086458D1*
X446039Y1090022D1*
X439688Y1094636D1*
X434137Y1100187D1*
X429523Y1106538D1*
X426197Y1113017D1*
X426201Y1052395D1*
X429523Y1058817D1*
X434137Y1065168D1*
X439688Y1070719D1*
X446039Y1075333D1*
X453034Y1078897D1*
X460500Y1081323D1*
X468254Y1082551D1*
X471090Y1082662D1*
Y982693D2*
X464353Y983266D1*
X456719Y985098D1*
X449467Y988102D1*
X442773Y992204D1*
X436804Y997303D1*
X431706Y1003272D1*
X427604Y1009965D1*
X426197Y1013017D1*
X426201Y952395D1*
X429523Y958817D1*
X434137Y965168D1*
X439688Y970719D1*
X446039Y975333D1*
X453034Y978897D1*
X460500Y981323D1*
X468254Y982551D1*
X471090Y982662D1*
Y882693D2*
X464353Y883266D1*
X456719Y885098D1*
X449467Y888102D1*
X442773Y892204D1*
X436804Y897303D1*
X431706Y903272D1*
X427604Y909965D1*
X426197Y913017D1*
X426201Y852395D1*
X429523Y858817D1*
X434137Y865168D1*
X439688Y870719D1*
X446039Y875333D1*
X453034Y878897D1*
X460500Y881323D1*
X468254Y882551D1*
X471090Y882662D1*
X1328200Y1256557D2*
X1331574Y1261952D1*
X1336673Y1267921D1*
X1342642Y1273019D1*
X1349335Y1277121D1*
X1356588Y1280125D1*
X1364221Y1281958D1*
X1370959Y1282531D1*
X1364221Y1283135D1*
X1356588Y1284967D1*
X1349335Y1287971D1*
X1342642Y1292073D1*
X1336673Y1297171D1*
X1331574Y1303141D1*
X1327473Y1309834D1*
X1324468Y1317087D1*
X1322636Y1324720D1*
X1322020Y1332546D1*
X1322636Y1340372D1*
X1324468Y1348006D1*
X1327473Y1355258D1*
X1331574Y1361952D1*
X1336673Y1367921D1*
X1342642Y1373019D1*
X1349335Y1377121D1*
X1356588Y1380125D1*
X1364221Y1381958D1*
X1370959Y1382531D1*
X1364221Y1383135D1*
X1356588Y1384967D1*
X1349335Y1387971D1*
X1342642Y1392073D1*
X1336673Y1397171D1*
X1331574Y1403141D1*
X1327473Y1409834D1*
X1324468Y1417087D1*
X1322636Y1424720D1*
X1322020Y1432546D1*
X1322636Y1440372D1*
X1324468Y1448006D1*
X1327473Y1455258D1*
X1331574Y1461952D1*
X1336673Y1467921D1*
X1342642Y1473019D1*
X1349335Y1477121D1*
X1356588Y1480125D1*
X1364221Y1481958D1*
X1370959Y1482531D1*
X1364221Y1483135D1*
X1356588Y1484967D1*
X1349335Y1487971D1*
X1342642Y1492073D1*
X1336673Y1497171D1*
X1331574Y1503141D1*
X1328200Y1508535D1*
X1285768Y1508546D1*
X1284237Y1504429D1*
X1283941Y1274461D1*
X1282410Y1269031D1*
X1279653Y1264109D1*
X1272477Y1256515D1*
X1328181Y1256546D1*
X1180409Y1675730D2*
X1180681Y1665986D1*
X1186352Y1666432D1*
X1193385Y1665715D1*
X1183385Y1675719D1*
X1180368Y1675738D1*
X1169896Y1662481D1*
X1170794Y1662895D1*
X1121668Y1662899D1*
X1150332Y1634266D1*
X1151878Y1641385D1*
X1154055Y1646640D1*
X1157027Y1651490D1*
X1160721Y1655815D1*
X1165046Y1659509D1*
X1169896Y1662481D1*
X1006534Y1467933D2*
X1006583Y1509870D1*
X994062Y1514583D1*
X982849Y1514395D1*
X978524Y1510701D1*
X973674Y1507729D1*
X968805Y1505695D1*
X1006504Y1467989D1*
X1019034Y1584673D2*
X1087443D1*
X999876Y1672220D1*
X952274Y1672194D1*
X955472Y1665007D1*
X956799Y1659476D1*
X957246Y1653806D1*
X956799Y1648136D1*
X955472Y1642605D1*
X953295Y1637350D1*
X950323Y1632500D1*
X945004Y1626673D1*
X944998Y1574167D1*
X951548Y1575828D1*
X957218Y1576274D1*
X962889Y1575828D1*
X968419Y1574500D1*
X973674Y1572324D1*
X978524Y1569352D1*
X982849Y1565658D1*
X985559Y1562581D1*
X1006562Y1562583D1*
X1006534Y1584673D1*
X1019034D1*
X707743Y544226D2*
D23*
Y498184D1*
X657764Y544226D2*
X757722D1*
X972047Y489086D2*
Y439108D1*
X926006D2*
X972047D1*
X972026Y612709D2*
Y512751D1*
X925985Y562730D2*
X972026D1*
X666011Y1503937D2*
Y1457895D1*
X616032Y1503937D2*
X715990D1*
X472047Y1982656D2*
Y1882699D1*
Y1932677D2*
X522026D1*
X1372047Y882525D2*
Y782567D1*
X1322069Y832546D2*
X1422026D1*
X829856Y2224679D2*
Y2124306D1*
X779484Y2224679D2*
X880229D1*
X1030250Y2226647D2*
Y2126274D1*
X979877Y2226647D2*
X1080622D1*
D26*
X707743Y619029D3*
Y544226D3*
D27*
X1046851Y439108D3*
X972047D3*
X1046830Y562730D3*
X972026D3*
D26*
X1186352Y1535171D3*
Y1460368D3*
X666011Y1578740D3*
Y1503937D3*
D33*
X472047Y1732677D3*
D34*
Y1832677D3*
Y1932677D3*
Y2032677D3*
Y2132677D3*
D33*
X472179Y1532677D3*
D34*
Y1432677D3*
Y1332677D3*
Y1232677D3*
Y1132677D3*
Y1032677D3*
Y932677D3*
Y832677D3*
D33*
X1372047Y832546D3*
D34*
Y932546D3*
Y1032546D3*
Y1132546D3*
Y1232546D3*
Y1332546D3*
Y1432546D3*
Y1532546D3*
D36*
X1139239Y1770998D3*
Y1696194D3*
X1048688Y1733596D3*
X865879Y1696194D3*
Y1770998D3*
X956431Y1733596D3*
D26*
X453019Y662336D3*
Y737139D3*
X556693Y737664D3*
Y662861D3*
X581628Y1773229D3*
Y1698425D3*
X1058137Y1370866D3*
Y1296063D3*
X1190158Y1370210D3*
Y1295407D3*
X1056562Y1463780D3*
Y1538583D3*
X1272835Y1771391D3*
Y1696588D3*
D39*
X1276509Y677953D3*
Y579528D3*
Y481103D3*
D42*
X829856Y2224679D3*
X1030250Y2226647D3*
G36*
X420735Y587664D2*
X640814D1*
Y409711D1*
X420735D1*
Y587664D1*
G37*
G36*
X858268Y819292D2*
X952231D1*
Y738583D1*
X858268D1*
Y819292D1*
G37*
M02*
