G04 DipTrace 3.0.0.1*
G04 BottomSilk.gbr*
%MOIN*%
G04 #@! TF.FileFunction,Legend,Bot*
G04 #@! TF.Part,Single*
%ADD10C,0.01*%
%ADD12C,0.002992*%
%ADD24O,0.437008X0.212598*%
%ADD35C,0.015422*%
%ADD37C,0.003937*%
%ADD38C,0.019697*%
%ADD86C,0.006176*%
%FSLAX26Y26*%
G04*
G70*
G90*
G75*
G01*
G04 BotSilk*
%LPD*%
X733314Y660389D2*
D10*
X682172D1*
X1088210Y413537D2*
Y464679D1*
X1088189Y537159D2*
Y588301D1*
X1211923Y1576530D2*
X1160781D1*
X691582Y1620100D2*
X640440D1*
D35*
X1153948Y1801847D3*
X1103806Y1792646D2*
D10*
Y1674541D1*
X1084121D1*
Y1792646D1*
X1103806D1*
D35*
X851171Y1665345D3*
X901312Y1674546D2*
D10*
Y1792651D1*
X920998D1*
Y1674546D1*
X901312D1*
X1449749Y638595D2*
X1528478D1*
Y579528D1*
X1449749D1*
Y638595D1*
X1425143Y595260D2*
D37*
Y551961D1*
X1413306Y567729D1*
X1425143Y551961D2*
X1436949Y567729D1*
D38*
X1242055Y719294D3*
X1319820Y717327D2*
D10*
Y756693D1*
X1445804D1*
X1449749D2*
Y402362D1*
X1319820D1*
Y445662D1*
X797037Y2310253D2*
X865029D1*
Y2141253D1*
X797037D1*
Y2310253D1*
X998037Y2312253D2*
X1065037D1*
Y2142245D1*
X998037D1*
Y2312253D1*
D24*
X931103Y2015748D3*
X928513Y1242809D2*
D12*
X973393D1*
X927478Y1239817D2*
X936901D1*
X954967D2*
X981095D1*
X926483Y1236825D2*
X941643D1*
X957112D2*
X988203D1*
X925534Y1233833D2*
X929124D1*
X940481D2*
X945637D1*
X958936D2*
X994403D1*
X924525Y1230841D2*
X927443D1*
X943473D2*
X949115D1*
X960583D2*
X963943D1*
X973981D2*
X982369D1*
X988353D2*
X999990D1*
X923614Y1227849D2*
X926304D1*
X946465D2*
X952317D1*
X962146D2*
X966076D1*
X978215D2*
X988353D1*
X994337D2*
X1005641D1*
X922933Y1224857D2*
X929603D1*
X949457D2*
X955393D1*
X963745D2*
X967807D1*
X983185D2*
X994337D1*
X1000321D2*
X1011251D1*
X922253Y1221865D2*
X934482D1*
X952449D2*
X958417D1*
X965499D2*
X969166D1*
X988567D2*
X1000321D1*
X1006305D2*
X1016201D1*
X921402Y1218873D2*
X940540D1*
X955441D2*
X961425D1*
X967409D2*
X970302D1*
X993842D2*
X1003313D1*
X1009297D2*
X1020325D1*
X920580Y1215881D2*
X925986D1*
X933795D2*
X946903D1*
X958433D2*
X971625D1*
X998528D2*
X1023868D1*
X920025Y1212889D2*
X923761D1*
X941134D2*
X952872D1*
X961425D2*
X973262D1*
X1002487D2*
X1027087D1*
X919635Y1209897D2*
X921667D1*
X947286D2*
X958433D1*
X964417D2*
X976940D1*
X1005851D2*
X1012163D1*
X1017451D2*
X1030069D1*
X919112Y1206905D2*
X919537D1*
X952490D2*
X981889D1*
X1008668D2*
X1014667D1*
X1022206D2*
X1032716D1*
X918237Y1203913D2*
X925869D1*
X956959D2*
X987437D1*
X1011015D2*
X1016549D1*
X1026754D2*
X1035004D1*
X757969Y1200921D2*
X766945D1*
X917068D2*
X932212D1*
X960873D2*
X992864D1*
X1013157D2*
X1017940D1*
X1030861D2*
X1037221D1*
X746956Y1197929D2*
X779476D1*
X915811D2*
X919063D1*
X924819D2*
X938242D1*
X964639D2*
X975923D1*
X988941D2*
X998205D1*
X1015173D2*
X1019156D1*
X1034113D2*
X1039588D1*
X738109Y1194937D2*
X753184D1*
X763839D2*
X769475D1*
X774745D2*
X789788D1*
X914658D2*
X918216D1*
X932158D2*
X943865D1*
X968505D2*
X978173D1*
X993164D2*
X1003698D1*
X1016853D2*
X1020251D1*
X1036837D2*
X1041921D1*
X731850Y1191945D2*
X743923D1*
X766448D2*
X771713D1*
X784205D2*
X798085D1*
X913627D2*
X917060D1*
X938321D2*
X949107D1*
X972239D2*
X980402D1*
X998064D2*
X1009297D1*
X1018273D2*
X1021367D1*
X1039435D2*
X1044058D1*
X727705Y1188953D2*
X736826D1*
X768722D2*
X773825D1*
X791971D2*
X805178D1*
X912592D2*
X915831D1*
X943631D2*
X953738D1*
X975502D2*
X982975D1*
X1003367D2*
X1022996D1*
X1041853D2*
X1046126D1*
X724742Y1185961D2*
X731907D1*
X770935D2*
X775912D1*
X798048D2*
X841745D1*
X911783D2*
X914891D1*
X948470D2*
X957771D1*
X978457D2*
X986070D1*
X1008977D2*
X1025497D1*
X1043933D2*
X1048183D1*
X722417Y1182969D2*
X728644D1*
X773300D2*
X777898D1*
X802509D2*
X853443D1*
X911339D2*
X914365D1*
X952995D2*
X961600D1*
X981633D2*
X989652D1*
X1014792D2*
X1028785D1*
X1045726D2*
X1050068D1*
X720780Y1179977D2*
X726364D1*
X775634D2*
X779890D1*
X805806D2*
X811351D1*
X844263D2*
X865215D1*
X911938D2*
X915094D1*
X957158D2*
X965507D1*
X985305D2*
X993358D1*
X1020406D2*
X1032460D1*
X1047359D2*
X1051770D1*
X719847Y1176985D2*
X724746D1*
X777770D2*
X781915D1*
X808434D2*
X813484D1*
X846408D2*
X850247D1*
X855866D2*
X876278D1*
X912616D2*
X916474D1*
X960947D2*
X969345D1*
X989279D2*
X996852D1*
X1025758D2*
X1036281D1*
X1048917D2*
X1053365D1*
X719394Y1173993D2*
X723570D1*
X779838D2*
X783787D1*
X810560D2*
X815215D1*
X848232D2*
X852380D1*
X865579D2*
X886339D1*
X913094D2*
X918454D1*
X964665D2*
X972889D1*
X993196D2*
X1000114D1*
X1030843D2*
X1040265D1*
X1050514D2*
X1054899D1*
X719209Y1171001D2*
X723821D1*
X781895D2*
X785485D1*
X812357D2*
X816574D1*
X849879D2*
X854111D1*
X873010D2*
X894874D1*
X913354D2*
X922606D1*
X968526D2*
X976169D1*
X996787D2*
X1003219D1*
X1035376D2*
X1044269D1*
X1052267D2*
X1056413D1*
X719247Y1168009D2*
X724399D1*
X783780D2*
X787078D1*
X813975D2*
X817699D1*
X851432D2*
X855470D1*
X878748D2*
X901674D1*
X913479D2*
X927341D1*
X972347D2*
X979291D1*
X1000090D2*
X1006169D1*
X1037438D2*
X1048193D1*
X1054177D2*
X1057913D1*
X719704Y1165017D2*
X725173D1*
X785482D2*
X788612D1*
X815428D2*
X818881D1*
X852954D2*
X856595D1*
X881272D2*
X886739D1*
X898005D2*
X907569D1*
X913553D2*
X932348D1*
X975884D2*
X982337D1*
X1003210D2*
X1008905D1*
X1038909D2*
X1059413D1*
X720803Y1162025D2*
X726213D1*
X787077D2*
X790114D1*
X816658D2*
X820200D1*
X854456D2*
X857777D1*
X883032D2*
X887122D1*
X902735D2*
X917133D1*
X928387D2*
X937425D1*
X979162D2*
X985350D1*
X1006142D2*
X1011580D1*
X1040225D2*
X1060907D1*
X722388Y1159033D2*
X727524D1*
X788611D2*
X791520D1*
X817730D2*
X821607D1*
X855945D2*
X859084D1*
X884402D2*
X887840D1*
X906612D2*
X918375D1*
X933883D2*
X942329D1*
X982284D2*
X988361D1*
X1008658D2*
X1014629D1*
X1041577D2*
X1045663D1*
X1051185D2*
X1062406D1*
X724069Y1156041D2*
X729368D1*
X790114D2*
X792732D1*
X818893D2*
X823069D1*
X857346D2*
X860398D1*
X885457D2*
X888619D1*
X909592D2*
X920353D1*
X938757D2*
X947039D1*
X985329D2*
X991469D1*
X1010444D2*
X1018249D1*
X1042893D2*
X1046417D1*
X1054165D2*
X1063900D1*
X725690Y1153049D2*
X731903D1*
X791508D2*
X793786D1*
X820192D2*
X824548D1*
X858557D2*
X861572D1*
X886192D2*
X889246D1*
X911913D2*
X922754D1*
X943140D2*
X951621D1*
X988342D2*
X994925D1*
X1011459D2*
X1022202D1*
X1043977D2*
X1047297D1*
X1057052D2*
X1065398D1*
X727254Y1150057D2*
X737972D1*
X792615D2*
X794853D1*
X821503D2*
X826041D1*
X859610D2*
X862622D1*
X886891D2*
X889904D1*
X912757D2*
X925155D1*
X947348D2*
X956045D1*
X991353D2*
X998940D1*
X1011972D2*
X1026112D1*
X1044741D2*
X1048202D1*
X1059651D2*
X1066892D1*
X728777Y1147065D2*
X744931D1*
X793300D2*
X795875D1*
X822688D2*
X827533D1*
X860677D2*
X863777D1*
X887749D2*
X890771D1*
X913214D2*
X916545D1*
X922517D2*
X927347D1*
X951423D2*
X960159D1*
X994453D2*
X1003313D1*
X1012289D2*
X1029700D1*
X1045455D2*
X1049197D1*
X1061821D2*
X1068390D1*
X730276Y1144073D2*
X751239D1*
X793743D2*
X796839D1*
X823832D2*
X829031D1*
X861699D2*
X865085D1*
X888573D2*
X891813D1*
X913420D2*
X916545D1*
X925404D2*
X929540D1*
X955403D2*
X963829D1*
X997827D2*
X1012289D1*
X1026547D2*
X1033002D1*
X1046321D2*
X1050103D1*
X1063653D2*
X1069884D1*
X731669Y1141081D2*
X737139D1*
X748405D2*
X756243D1*
X794275D2*
X797856D1*
X825274D2*
X830524D1*
X862675D2*
X866489D1*
X889117D2*
X893234D1*
X913504D2*
X916545D1*
X928015D2*
X931999D1*
X959420D2*
X967161D1*
X1001524D2*
X1012877D1*
X1030905D2*
X1036134D1*
X1047156D2*
X1050782D1*
X1065290D2*
X1071382D1*
X732787Y1138089D2*
X737522D1*
X753147D2*
X760227D1*
X795064D2*
X798759D1*
X827011D2*
X832022D1*
X863797D2*
X867949D1*
X889414D2*
X895451D1*
X913536D2*
X916557D1*
X930279D2*
X934710D1*
X963317D2*
X970327D1*
X1005190D2*
X1014119D1*
X1034182D2*
X1039185D1*
X1047746D2*
X1051461D1*
X1066751D2*
X1072888D1*
X733565Y1135097D2*
X738240D1*
X757141D2*
X763555D1*
X795959D2*
X799348D1*
X828753D2*
X833516D1*
X865093D2*
X869428D1*
X889649D2*
X898329D1*
X913547D2*
X916662D1*
X932398D2*
X937574D1*
X966887D2*
X973614D1*
X1008427D2*
X1016109D1*
X1036893D2*
X1042209D1*
X1048193D2*
X1052312D1*
X1067985D2*
X1074479D1*
X734285Y1132105D2*
X739019D1*
X760607D2*
X766343D1*
X796871D2*
X799751D1*
X830409D2*
X835014D1*
X866492D2*
X870921D1*
X890083D2*
X901410D1*
X913551D2*
X917043D1*
X934475D2*
X940513D1*
X970178D2*
X977626D1*
X1011362D2*
X1018615D1*
X1039562D2*
X1053134D1*
X1069046D2*
X1076261D1*
X735163Y1129113D2*
X739646D1*
X763704D2*
X768686D1*
X797868D2*
X800279D1*
X832075D2*
X836520D1*
X867939D2*
X872413D1*
X890820D2*
X904497D1*
X913552D2*
X917760D1*
X936368D2*
X943473D1*
X973305D2*
X983067D1*
X1014430D2*
X1021397D1*
X1042255D2*
X1053689D1*
X1070104D2*
X1078188D1*
X736096Y1126121D2*
X740316D1*
X766410D2*
X770935D1*
X798763D2*
X801179D1*
X833889D2*
X838111D1*
X869312D2*
X873911D1*
X891595D2*
X892609D1*
X898456D2*
X907569D1*
X913553D2*
X918527D1*
X938083D2*
X946340D1*
X976352D2*
X990108D1*
X1017720D2*
X1024305D1*
X1044770D2*
X1054091D1*
X1071022D2*
X1080020D1*
X737034Y1123129D2*
X741276D1*
X768822D2*
X773413D1*
X799349D2*
X802571D1*
X835838D2*
X839893D1*
X870420D2*
X875416D1*
X892119D2*
X895601D1*
X903826D2*
X919049D1*
X939756D2*
X948832D1*
X979365D2*
X998256D1*
X1020976D2*
X1027266D1*
X1047004D2*
X1054707D1*
X1071605D2*
X1072129D1*
X1077639D2*
X1081702D1*
X738142Y1120137D2*
X742583D1*
X771440D2*
X776131D1*
X799752D2*
X804708D1*
X837754D2*
X841820D1*
X871141D2*
X877019D1*
X892398D2*
X895601D1*
X908143D2*
X919326D1*
X941544D2*
X950619D1*
X982365D2*
X1006542D1*
X1024126D2*
X1030247D1*
X1049201D2*
X1055870D1*
X1071894D2*
X1075121D1*
X1079784D2*
X1083289D1*
X739431Y1117145D2*
X744234D1*
X774630D2*
X779008D1*
X800267D2*
X807804D1*
X839702D2*
X843652D1*
X853713D2*
X878906D1*
X892525D2*
X895601D1*
X911191D2*
X919453D1*
X925521D2*
X934497D1*
X943473D2*
X951698D1*
X985360D2*
X991357D1*
X996153D2*
X1013803D1*
X1027195D2*
X1033235D1*
X1051560D2*
X1057489D1*
X1071915D2*
X1074098D1*
X1081608D2*
X1084821D1*
X740828Y1114153D2*
X746120D1*
X778113D2*
X782053D1*
X801039D2*
X811689D1*
X841745D2*
X845346D1*
X854461D2*
X881223D1*
X892578D2*
X895601D1*
X901585D2*
D3*
X913553D2*
X919506D1*
X925705D2*
X958433D1*
X988353D2*
X994454D1*
X1005625D2*
X1019745D1*
X1030220D2*
X1036226D1*
X1053889D2*
X1059257D1*
X1071508D2*
X1073208D1*
X1083243D2*
X1086334D1*
X742287Y1111161D2*
X748024D1*
X781500D2*
X785409D1*
X801827D2*
X816145D1*
X839899D2*
X847027D1*
X856687D2*
X883860D1*
X892598D2*
X895613D1*
X901699D2*
X919526D1*
X926164D2*
X946003D1*
X951285D2*
X961057D1*
X991357D2*
X997827D1*
X1013508D2*
X1025053D1*
X1033226D2*
X1039217D1*
X1056011D2*
X1061143D1*
X1070507D2*
X1072640D1*
X1084703D2*
X1087833D1*
X743776Y1108169D2*
X749987D1*
X784718D2*
X789135D1*
X802359D2*
X802849D1*
X812412D2*
X820868D1*
X838270D2*
X848834D1*
X859564D2*
X874657D1*
X879693D2*
X886625D1*
X892609D2*
X895718D1*
X902085D2*
X919533D1*
X929065D2*
X948252D1*
X954899D2*
X967342D1*
X994442D2*
X1001536D1*
X1020071D2*
X1030241D1*
X1036225D2*
X1042209D1*
X1058058D2*
X1063153D1*
X1069137D2*
X1072347D1*
X1085937D2*
X1089333D1*
X745374Y1105177D2*
X752012D1*
X787816D2*
X793015D1*
X802655D2*
X805841D1*
X816636D2*
X825425D1*
X836915D2*
X850682D1*
X862689D2*
X868673D1*
X877976D2*
X896099D1*
X902827D2*
X919536D1*
X937012D2*
X950462D1*
X957371D2*
X975396D1*
X997704D2*
X1005295D1*
X1025642D2*
X1045201D1*
X1060161D2*
X1072227D1*
X1087010D2*
X1090827D1*
X747247Y1102185D2*
X753986D1*
X790853D2*
X796865D1*
X802849D2*
X805853D1*
X821549D2*
X829777D1*
X835761D2*
X852232D1*
X875453D2*
X896816D1*
X903718D2*
X919537D1*
X946465D2*
X952885D1*
X959412D2*
X984079D1*
X1000975D2*
X1008809D1*
X1030528D2*
X1072290D1*
X1088173D2*
X1092326D1*
X749461Y1099193D2*
X756075D1*
X793863D2*
X805967D1*
X826785D2*
X853478D1*
X872204D2*
X897595D1*
X904577D2*
X907569D1*
X916984D2*
X919549D1*
X940273D2*
X955441D1*
X961425D2*
X963943D1*
X972691D2*
X992386D1*
X1003835D2*
X1012078D1*
X1034838D2*
X1072767D1*
X1089472D2*
X1093820D1*
X751734Y1096201D2*
X758490D1*
X796862D2*
X806429D1*
X823793D2*
X854648D1*
X868614D2*
X898233D1*
X917515D2*
X919666D1*
X933147D2*
X966088D1*
X983033D2*
X1000321D1*
X1006305D2*
X1015197D1*
X1038585D2*
X1073974D1*
X1090783D2*
X1095307D1*
X753859Y1093209D2*
X761184D1*
X799868D2*
X807452D1*
X820801D2*
X844737D1*
X850721D2*
X855734D1*
X865434D2*
X899008D1*
X917878D2*
X920152D1*
X925521D2*
X967924D1*
X992259D2*
X1018253D1*
X1041946D2*
X1051071D1*
X1069125D2*
X1075942D1*
X1091956D2*
X1096707D1*
X756023Y1090217D2*
X764041D1*
X802977D2*
X808833D1*
X817809D2*
X847729D1*
X853713D2*
X856705D1*
X862689D2*
X900339D1*
X916655D2*
X921250D1*
X927954D2*
X969675D1*
X1000612D2*
X1021382D1*
X1045099D2*
X1053680D1*
X1072012D2*
X1078340D1*
X1093006D2*
X1097917D1*
X758470Y1087225D2*
X766978D1*
X806456D2*
X889617D1*
X898593D2*
X902307D1*
X915101D2*
X922734D1*
X930815D2*
X953549D1*
X960963D2*
X971622D1*
X1007887D2*
X1024880D1*
X1048155D2*
X1055954D1*
X1074623D2*
X1080739D1*
X1094161D2*
X1098982D1*
X761176Y1084233D2*
X769960D1*
X810546D2*
X837653D1*
X844094D2*
X886625D1*
X899479D2*
X904577D1*
X913553D2*
X924033D1*
X934092D2*
X949665D1*
X963201D2*
X973965D1*
X1013588D2*
X1029089D1*
X1051160D2*
X1058167D1*
X1076898D2*
X1082919D1*
X1095469D2*
X1100142D1*
X764038Y1081241D2*
X773050D1*
X815022D2*
X832561D1*
X846140D2*
X858635D1*
X871665D2*
X883633D1*
X900160D2*
X924893D1*
X937489D2*
X946465D1*
X965313D2*
X976616D1*
X1018273D2*
X1034052D1*
X1054056D2*
X1060532D1*
X1079111D2*
X1085007D1*
X1096873D2*
X1101441D1*
X766977Y1078249D2*
X776421D1*
X819314D2*
X826785D1*
X844827D2*
X865510D1*
X877649D2*
X880641D1*
X899302D2*
X931505D1*
X967388D2*
X979355D1*
X1006429D2*
X1039431D1*
X1056669D2*
X1062866D1*
X1081476D2*
X1087073D1*
X1098333D2*
X1102751D1*
X769948Y1075257D2*
X780140D1*
X823199D2*
X829777D1*
X843271D2*
X871212D1*
X897054D2*
X930955D1*
X969269D2*
X981906D1*
X997920D2*
X1044707D1*
X1058946D2*
X1065014D1*
X1083798D2*
X1088962D1*
X1099812D2*
X1103924D1*
X772933Y1072265D2*
X784004D1*
X826872D2*
X832769D1*
X841745D2*
X875829D1*
X894933D2*
X929905D1*
X970880D2*
X973393D1*
X979377D2*
X984159D1*
X991345D2*
X1049392D1*
X1061171D2*
X1067175D1*
X1085841D2*
X1090666D1*
X1101293D2*
X1104974D1*
X775922Y1069273D2*
X787899D1*
X830377D2*
X879303D1*
X893178D2*
X928513D1*
X972211D2*
X986364D1*
X993314D2*
X1033783D1*
X1040256D2*
X1053363D1*
X1063630D2*
X1069520D1*
X1087621D2*
X1092261D1*
X1102692D2*
X1106129D1*
X778913Y1066281D2*
X791885D1*
X833474D2*
X868097D1*
X874645D2*
X881738D1*
X891453D2*
X930020D1*
X973527D2*
X988726D1*
X995408D2*
X1025857D1*
X1045115D2*
X1056832D1*
X1066230D2*
X1071846D1*
X1089249D2*
X1093795D1*
X1103902D2*
X1107425D1*
X781905Y1063289D2*
X795771D1*
X836171D2*
X866971D1*
X877520D2*
X883633D1*
X889617D2*
X931368D1*
X961425D2*
X964417D1*
X975477D2*
X991070D1*
X997786D2*
X1009297D1*
X1015281D2*
X1018273D1*
X1050373D2*
X1060031D1*
X1068633D2*
X1073991D1*
X1090796D2*
X1095298D1*
X1104966D2*
X1108736D1*
X775602Y1060297D2*
X799337D1*
X838753D2*
X865480D1*
X880015D2*
X923231D1*
X928051D2*
X932904D1*
X956844D2*
X968208D1*
X978332D2*
X993323D1*
X1000321D2*
D3*
X1055192D2*
X1063108D1*
X1070548D2*
X1076163D1*
X1092315D2*
X1096704D1*
X1106126D2*
X1109908D1*
X770848Y1057305D2*
X802639D1*
X837384D2*
X864200D1*
X881803D2*
X921457D1*
X930289D2*
X934613D1*
X946465D2*
D3*
X952449D2*
X972195D1*
X981654D2*
X995877D1*
X1059367D2*
X1066145D1*
X1072129D2*
X1078601D1*
X1093816D2*
X1097916D1*
X1107425D2*
X1110947D1*
X767575Y1054313D2*
X805870D1*
X836396D2*
X863514D1*
X882881D2*
X921489D1*
X932390D2*
X936152D1*
X946465D2*
X975626D1*
X984875D2*
X999043D1*
X1063261D2*
X1081203D1*
X1095305D2*
X1098970D1*
X1108735D2*
X1112008D1*
X765145Y1051321D2*
X809310D1*
X836436D2*
X863290D1*
X877649D2*
X910117D1*
X915969D2*
X921952D1*
X934336D2*
X937489D1*
X946465D2*
X978066D1*
X987676D2*
X1002529D1*
X1067088D2*
X1083684D1*
X1096695D2*
X1100025D1*
X1109908D2*
X1113028D1*
X762921Y1048329D2*
X779463D1*
X784897D2*
X813145D1*
X837807D2*
X864337D1*
X877187D2*
X908609D1*
X917824D2*
X922665D1*
X935986D2*
X979827D1*
X989945D2*
X1006019D1*
X1070485D2*
X1085906D1*
X1097800D2*
X1100954D1*
X1110947D2*
X1113991D1*
X760582Y1045337D2*
X777521D1*
X784897D2*
X817293D1*
X841096D2*
X865681D1*
X876445D2*
X898593D1*
X904577D2*
X905324D1*
X919207D2*
X923580D1*
X936191D2*
X973507D1*
X979377D2*
X981070D1*
X991819D2*
X997791D1*
X1003325D2*
X1009616D1*
X1073057D2*
X1088102D1*
X1098475D2*
X1101654D1*
X1111996D2*
X1115008D1*
X527585Y1042345D2*
X542545D1*
X758364D2*
X775921D1*
X784897D2*
X821526D1*
X844758D2*
X862254D1*
X875658D2*
X901585D1*
X920421D2*
X924452D1*
X934806D2*
X970887D1*
X979839D2*
X981886D1*
X993472D2*
X998545D1*
X1006422D2*
X1013432D1*
X1060161D2*
X1066145D1*
X1075121D2*
X1090520D1*
X1098830D2*
X1102452D1*
X1112911D2*
X1115922D1*
X523441Y1039353D2*
X548716D1*
X756602D2*
X825575D1*
X848009D2*
X859232D1*
X875020D2*
X904577D1*
X921504D2*
X925062D1*
X933139D2*
X968507D1*
X980581D2*
X982617D1*
X994928D2*
X999425D1*
X1009797D2*
X1017244D1*
X1052127D2*
X1093073D1*
X1099057D2*
X1103791D1*
X1113496D2*
X1116605D1*
X520371Y1036361D2*
X554513D1*
X563489D2*
X569473D1*
X755161D2*
X775921D1*
X781905D2*
X829322D1*
X850442D2*
X857949D1*
X874279D2*
X907569D1*
X922493D2*
X925521D1*
X931505D2*
X965912D1*
X981356D2*
X983486D1*
X996070D2*
X1000330D1*
X1013531D2*
X1020821D1*
X1045192D2*
X1105762D1*
X1113812D2*
X1117296D1*
X519362Y1033369D2*
X578075D1*
X753595D2*
X833027D1*
X852307D2*
X857242D1*
X873124D2*
X910561D1*
X923544D2*
X962843D1*
X981880D2*
X984315D1*
X996856D2*
X1001325D1*
X1017414D2*
X1024257D1*
X1033233D2*
D3*
X1039217D2*
X1108033D1*
X1114017D2*
X1118299D1*
X518609Y1030377D2*
X521601D1*
X538965D2*
X587425D1*
X599393D2*
X602385D1*
X751909D2*
X836908D1*
X852772D2*
X856917D1*
X871665D2*
X913553D1*
X924578D2*
X959871D1*
X982158D2*
X984860D1*
X997579D2*
X1002219D1*
X1021265D2*
X1119924D1*
X549726Y1027385D2*
X611285D1*
X750527D2*
X775921D1*
X781905D2*
X823907D1*
X832067D2*
X840852D1*
X851919D2*
X856784D1*
X873046D2*
X902161D1*
X910424D2*
X916545D1*
X925521D2*
X957391D1*
X982285D2*
X985146D1*
X998447D2*
X1002793D1*
X1018823D2*
X1122709D1*
X560046Y1024393D2*
X623197D1*
X749592D2*
X775921D1*
X781905D2*
X824290D1*
X833841D2*
X844737D1*
X850721D2*
X856756D1*
X873905D2*
X900306D1*
X912810D2*
X956563D1*
X982338D2*
X985276D1*
X999275D2*
X1003092D1*
X1016881D2*
X1126639D1*
X570896Y1021401D2*
X636743D1*
X748783D2*
X775921D1*
X781905D2*
X824996D1*
X833820D2*
X856960D1*
X874340D2*
X898923D1*
X914622D2*
X957100D1*
X982358D2*
X985329D1*
X999820D2*
X1003231D1*
X1009297D2*
D3*
X1015281D2*
X1130487D1*
X583158Y1018409D2*
X649364D1*
X747779D2*
X825658D1*
X833462D2*
X857478D1*
X874533D2*
X897709D1*
X914489D2*
X948767D1*
X955441D2*
X958173D1*
X982377D2*
X985350D1*
X1000094D2*
X1003313D1*
X1009297D2*
X1133532D1*
X596401Y1015417D2*
X660349D1*
X746556D2*
X775921D1*
X781905D2*
X825796D1*
X833132D2*
X859685D1*
X874611D2*
X896626D1*
X913760D2*
X947270D1*
X956578D2*
X959721D1*
X982485D2*
X985369D1*
X1000119D2*
X1069137D1*
X1075121D2*
X1078113D1*
X1084097D2*
X1090081D1*
X1099057D2*
D3*
X1105041D2*
X1136584D1*
X596401Y1012425D2*
X669844D1*
X745289D2*
X825333D1*
X832932D2*
X862605D1*
X874642D2*
X895637D1*
X912826D2*
X937015D1*
X943473D2*
X945166D1*
X957864D2*
X961555D1*
X982867D2*
X985477D1*
X999791D2*
X1060161D1*
X1066145D2*
D3*
X1075121D2*
X1140496D1*
X604941Y1009433D2*
X677934D1*
X744226D2*
X824574D1*
X832831D2*
X866029D1*
X879461D2*
X894586D1*
X912014D2*
X939160D1*
X959253D2*
X963339D1*
X983584D2*
X985861D1*
X999094D2*
X1045751D1*
X1060161D2*
X1144946D1*
X611592Y1006441D2*
X684645D1*
X743524D2*
X823793D1*
X832769D2*
X853137D1*
X860159D2*
X869820D1*
X884347D2*
X893552D1*
X912594D2*
X940996D1*
X960695D2*
X964915D1*
X984351D2*
X986603D1*
X998327D2*
X1046801D1*
X1057356D2*
X1148786D1*
X617203Y1003449D2*
X690184D1*
X707105D2*
X731041D1*
X743009D2*
X778913D1*
X784897D2*
X854992D1*
X863905D2*
X873728D1*
X889617D2*
X892609D1*
X913553D2*
X942736D1*
X962077D2*
X966211D1*
X984884D2*
X987494D1*
X997763D2*
X1048193D1*
X1054177D2*
X1151658D1*
X622910Y1000457D2*
X695137D1*
X704113D2*
X775921D1*
X787889D2*
X826785D1*
X832769D2*
X856387D1*
X867777D2*
X877656D1*
X912172D2*
X944577D1*
X963281D2*
X967300D1*
X985279D2*
X988353D1*
X997329D2*
X1154287D1*
X629068Y997465D2*
X857706D1*
X871686D2*
X881768D1*
X911313D2*
X946527D1*
X964343D2*
X968381D1*
X985903D2*
X1156997D1*
X635585Y994473D2*
X859205D1*
X875778D2*
X886155D1*
X910878D2*
X948368D1*
X965502D2*
X969408D1*
X987160D2*
X1159271D1*
X642419Y991481D2*
X861253D1*
X880047D2*
X890929D1*
X910685D2*
X937489D1*
X943011D2*
X950064D1*
X966801D2*
X970374D1*
X989094D2*
X1160787D1*
X649456Y988489D2*
X737025D1*
X757969D2*
X864466D1*
X884358D2*
X896149D1*
X910604D2*
X937477D1*
X945261D2*
X951758D1*
X968100D2*
X971392D1*
X991345D2*
X1161984D1*
X656914Y985497D2*
X769937D1*
X781905D2*
X869136D1*
X888554D2*
X901585D1*
X910561D2*
X937363D1*
X947478D2*
X953682D1*
X969179D2*
X972306D1*
X988583D2*
X1163410D1*
X665248Y982505D2*
X811825D1*
X817809D2*
X874657D1*
X892609D2*
X936901D1*
X949944D2*
X956017D1*
X969941D2*
X972989D1*
X986537D2*
X1024257D1*
X1030241D2*
X1165127D1*
X674193Y979513D2*
X698129D1*
X704136D2*
X913667D1*
X918143D2*
X935878D1*
X952642D2*
X958677D1*
X970658D2*
X973669D1*
X985913D2*
X1166846D1*
X707386Y976521D2*
X917042D1*
X924818D2*
X934497D1*
X955441D2*
X961520D1*
X971548D2*
X974520D1*
X985588D2*
X1168391D1*
X711619Y973529D2*
X920763D1*
X931100D2*
X964450D1*
X972500D2*
X975354D1*
X985447D2*
X1169674D1*
X718149Y970537D2*
X924628D1*
X937489D2*
X952449D1*
X958433D2*
X967409D1*
X973393D2*
X976002D1*
X985392D2*
X1170770D1*
X727970Y967545D2*
X928535D1*
X961425D2*
X976668D1*
X985383D2*
X1012289D1*
X1018273D2*
X1171943D1*
X740772Y964553D2*
X811825D1*
X836999D2*
X932626D1*
X964417D2*
X977526D1*
X985481D2*
X1173258D1*
X754977Y961561D2*
X781905D1*
X847478D2*
X901585D1*
X913553D2*
X936893D1*
X967409D2*
X978452D1*
X985860D2*
X1174664D1*
X856683Y958569D2*
X941199D1*
X970389D2*
X979387D1*
X986588D2*
X1176125D1*
X863318Y955577D2*
X945455D1*
X973276D2*
X980506D1*
X987472D2*
X1177604D1*
X867887Y952585D2*
X949760D1*
X975887D2*
X981889D1*
X988480D2*
X1179085D1*
X871578Y949593D2*
X954137D1*
X978151D2*
X983565D1*
X989858D2*
X1102049D1*
X1114017D2*
X1180484D1*
X875523Y946601D2*
X958094D1*
X980259D2*
X985380D1*
X991501D2*
X1094249D1*
X1099057D2*
X1102049D1*
X1114017D2*
X1117009D1*
X1128977D2*
X1181694D1*
X881208Y943609D2*
X961423D1*
X982219D2*
X986977D1*
X993013D2*
X1090204D1*
X1128977D2*
X1182735D1*
X890271Y940617D2*
X964471D1*
X983905D2*
X988353D1*
X994337D2*
X1088388D1*
X1120001D2*
X1122993D1*
X1128977D2*
X1183684D1*
X903156Y937625D2*
X967447D1*
X984391D2*
X1087959D1*
X1115722D2*
X1184469D1*
X918468Y934633D2*
X970419D1*
X983554D2*
X1089073D1*
X1111232D2*
X1184137D1*
X934497Y931641D2*
X958433D1*
X964417D2*
X973393D1*
X982369D2*
X1090896D1*
X1106600D2*
X1183507D1*
X931523Y928649D2*
X943473D1*
X949457D2*
X958433D1*
X967409D2*
X986372D1*
X1000447D2*
X1093073D1*
X1102049D2*
X1182611D1*
X924284Y925657D2*
X958433D1*
X970401D2*
X990150D1*
X1000947D2*
X1181181D1*
X914925Y922665D2*
X958433D1*
X973393D2*
X993316D1*
X1002151D2*
X1179157D1*
X1197793D2*
X1218737D1*
X904577Y919673D2*
X995779D1*
X1004039D2*
X1176849D1*
X1185825D2*
X1220358D1*
X905958Y916681D2*
X997752D1*
X1006273D2*
X1222101D1*
X906806Y913689D2*
X999533D1*
X1008775D2*
X1224468D1*
X907135Y910697D2*
X1001362D1*
X1011813D2*
X1227399D1*
X906947Y907705D2*
X1003313D1*
X1015281D2*
X1230397D1*
X906308Y904713D2*
X1233092D1*
X905563Y901721D2*
X1235316D1*
X905007Y898729D2*
X1021265D1*
X1027249D2*
X1237173D1*
X910561Y895737D2*
X1024257D1*
X1030241D2*
X1238832D1*
X909538Y892745D2*
X1221729D1*
X1227713D2*
X1240390D1*
X908659Y889753D2*
X1221729D1*
X1227713D2*
X1241901D1*
X908197Y886761D2*
X1221729D1*
X1227713D2*
X1243298D1*
X908286Y883769D2*
X1221729D1*
X1227713D2*
X1244407D1*
X908870Y880777D2*
X1245080D1*
X909583Y877785D2*
X1245418D1*
X910084Y874793D2*
X1245568D1*
X910342Y871801D2*
X1245618D1*
X910362Y868809D2*
X946465D1*
X952449D2*
X1120001D1*
X1128977D2*
X1245535D1*
X910008Y865817D2*
X1245151D1*
X909078Y862825D2*
X944049D1*
X948846D2*
X1244323D1*
X907683Y859833D2*
X942194D1*
X956346D2*
X1243087D1*
X904475Y856841D2*
X940799D1*
X962337D2*
X1060623D1*
X1064383D2*
X1241497D1*
X900295Y853849D2*
X939480D1*
X967056D2*
X1061365D1*
X1070458D2*
X1206769D1*
X1212753D2*
X1239681D1*
X895748Y850857D2*
X938005D1*
X968938D2*
X1062140D1*
X1073074D2*
X1215745D1*
X1224721D2*
X1245779D1*
X891725Y847865D2*
X936193D1*
X994337D2*
X1062676D1*
X1084097D2*
X1117711D1*
X1125871D2*
X1252146D1*
X888586Y844873D2*
X933954D1*
X994337D2*
X1003313D1*
X1009297D2*
X1063059D1*
X1084085D2*
X1118929D1*
X1128477D2*
X1158897D1*
X1164881D2*
X1236689D1*
X1245665D2*
X1258848D1*
X885928Y841881D2*
X920113D1*
X928513D2*
X931505D1*
X1009297D2*
X1063567D1*
X1083971D2*
X1121965D1*
X1130727D2*
X1265599D1*
X883267Y838889D2*
X918258D1*
X1019271D2*
X1064336D1*
X1083509D2*
X1125416D1*
X1132828D2*
X1272093D1*
X880475Y835897D2*
X916863D1*
X1027385D2*
X1065124D1*
X1082486D2*
X1128977D1*
X1134961D2*
X1233697D1*
X1243787D2*
X1278249D1*
X877581Y832905D2*
X915544D1*
X1030916D2*
X1065653D1*
X1081105D2*
X1233685D1*
X1254637D2*
X1283979D1*
X874631Y829913D2*
X914068D1*
X1032159D2*
X1042209D1*
X1048193D2*
X1065933D1*
X1082486D2*
X1233580D1*
X1262910D2*
X1289299D1*
X871667Y826921D2*
X912236D1*
X1032795D2*
X1042209D1*
X1048193D2*
X1066061D1*
X1083357D2*
X1173857D1*
X1179841D2*
X1233187D1*
X1269584D2*
X1294513D1*
X868787Y823929D2*
X909841D1*
X1033068D2*
X1042209D1*
X1048193D2*
X1066113D1*
X1083897D2*
X1173857D1*
X1179841D2*
X1232354D1*
X1275665D2*
X1284561D1*
X1290545D2*
X1299748D1*
X866178Y820937D2*
X906817D1*
X1033174D2*
X1042209D1*
X1048193D2*
X1066134D1*
X1084483D2*
X1173857D1*
X1179841D2*
X1231077D1*
X1281506D2*
X1304461D1*
X863903Y817945D2*
X903252D1*
X1033213D2*
X1066141D1*
X1085383D2*
X1173857D1*
X1179841D2*
X1229235D1*
X1286971D2*
X1296529D1*
X1302513D2*
X1308422D1*
X861679Y814953D2*
X899450D1*
X1033226D2*
X1066144D1*
X1086573D2*
X1173857D1*
X1179841D2*
X1226594D1*
X1291838D2*
X1299521D1*
X1305505D2*
X1309991D1*
X859209Y811961D2*
X895578D1*
X1033231D2*
X1066145D1*
X1087939D2*
X1173857D1*
X1179841D2*
X1223247D1*
X1296329D2*
X1310847D1*
X856494Y808969D2*
X891601D1*
X1033232D2*
X1066145D1*
X1089485D2*
X1173857D1*
X1179841D2*
X1219623D1*
X1301011D2*
X1311237D1*
X853617Y805977D2*
X887718D1*
X1033233D2*
X1042209D1*
X1048193D2*
X1066145D1*
X1091350D2*
X1158897D1*
X1164881D2*
X1173857D1*
X1179841D2*
X1215904D1*
X1306133D2*
X1311401D1*
X850561Y802985D2*
X884141D1*
X1033233D2*
X1042209D1*
X1048193D2*
X1066145D1*
X1093674D2*
X1173857D1*
X1179841D2*
X1211322D1*
X1311489D2*
D3*
X847114Y799993D2*
X880734D1*
X1033233D2*
X1042209D1*
X1048193D2*
X1066145D1*
X1096442D2*
X1156242D1*
X1162637D2*
X1173857D1*
X1179841D2*
X1204416D1*
X843149Y797001D2*
X877110D1*
X1033233D2*
X1066145D1*
X1099781D2*
X1153491D1*
X1164722D2*
X1173857D1*
X1179841D2*
X1194477D1*
X839172Y794009D2*
X872860D1*
X1033233D2*
X1066145D1*
X1103926D2*
X1150059D1*
X1167043D2*
X1173857D1*
X1179841D2*
X1182833D1*
X778913Y791017D2*
X784897D1*
X835653D2*
X867958D1*
X1033221D2*
X1066145D1*
X1108874D2*
X1145614D1*
X1168884D2*
X1173857D1*
X1179841D2*
X1182833D1*
X779451Y788025D2*
X793873D1*
X834040D2*
X862731D1*
X1033116D2*
X1066145D1*
X1114338D2*
X1140435D1*
X1170070D2*
X1173857D1*
X1179841D2*
X1182833D1*
X781557Y785033D2*
X857289D1*
X1032735D2*
X1066145D1*
X1120001D2*
X1134961D1*
X1170984D2*
X1182833D1*
X786285Y782041D2*
X851421D1*
X1032018D2*
X1039217D1*
X1045201D2*
X1066145D1*
X1171933D2*
X1182833D1*
X791568Y779049D2*
X845145D1*
X1031251D2*
X1039217D1*
X1045201D2*
X1066145D1*
X1172793D2*
X1182845D1*
X796865Y776057D2*
X838753D1*
X1030729D2*
X1039217D1*
X1045201D2*
X1066145D1*
X1173361D2*
X1182950D1*
X1030452Y773065D2*
X1039217D1*
X1045201D2*
X1066145D1*
X1173757D2*
X1183343D1*
X1030325Y770073D2*
X1039217D1*
X1045201D2*
X1066145D1*
X1174269D2*
X1184165D1*
X1030272Y767081D2*
X1066145D1*
X1175051D2*
X1185325D1*
X1030252Y764089D2*
X1066145D1*
X1175944D2*
X1186668D1*
X1030257Y761097D2*
X1066133D1*
X1176867D2*
X1188094D1*
X1030359Y758105D2*
X1066028D1*
X1177969D2*
X1189471D1*
X1030751Y755113D2*
X1065623D1*
X1179245D2*
X1190674D1*
X1031584Y752121D2*
X1064685D1*
X1180548D2*
X1182833D1*
X1188817D2*
X1191735D1*
X1032838Y749129D2*
X1063050D1*
X1181718D2*
X1192895D1*
X1034458Y746137D2*
X1060725D1*
X1182767D2*
X1186290D1*
X1191809D2*
X1194204D1*
X1036219Y743145D2*
X1058302D1*
X1183921D2*
X1187057D1*
X1192859D2*
X1195620D1*
X1037635Y740153D2*
X1056318D1*
X1185229D2*
X1187955D1*
X1193876D2*
X1197174D1*
X1038486Y737161D2*
X1056091D1*
X1186633D2*
X1188817D1*
X1194801D2*
X1198941D1*
X1038923Y734169D2*
X1056969D1*
X1188093D2*
X1200863D1*
X1039215Y731177D2*
X1058141D1*
X1189572D2*
X1191809D1*
X1197793D2*
X1202693D1*
X1039683Y728185D2*
X1059500D1*
X1191065D2*
X1194801D1*
X1200785D2*
X1204374D1*
X1040533Y725193D2*
X1060938D1*
X1192557D2*
X1205950D1*
X1041703Y722201D2*
X1062417D1*
X1194055D2*
X1197793D1*
X1203777D2*
X1207376D1*
X1043062Y719209D2*
X1063915D1*
X1195548D2*
X1208496D1*
X1044595Y716217D2*
X1065505D1*
X1197037D2*
X1200785D1*
X1206769D2*
X1209173D1*
X1046353Y713225D2*
X1067285D1*
X1198453D2*
X1209514D1*
X1048284Y710233D2*
X1069212D1*
X1199699D2*
X1209671D1*
X1050207Y707241D2*
X1071032D1*
X1200785D2*
X1209761D1*
X1052164Y704249D2*
X1072621D1*
X1054086Y701257D2*
X1073920D1*
X1055668Y698265D2*
X1075011D1*
X1056924Y695273D2*
X1076081D1*
X1058085Y692281D2*
X1077015D1*
X1059147Y689289D2*
X1077717D1*
X1060129Y686297D2*
X1078516D1*
X1061177Y683305D2*
X1079866D1*
X1062211Y680313D2*
X1081904D1*
X1063153Y677321D2*
X1069137D1*
X1075583D2*
X1084417D1*
X1076325Y674329D2*
X1087089D1*
X1077123Y671337D2*
X1089525D1*
X1077858Y668345D2*
X1091493D1*
X1078910Y665353D2*
X1093360D1*
X1080575Y662361D2*
X1095659D1*
X1082555Y659369D2*
X1098132D1*
X1084450Y656377D2*
X1100154D1*
X1086251Y653385D2*
X1101854D1*
X1088108Y650393D2*
X1103876D1*
X1090081Y647401D2*
D3*
X1096179D2*
X1106323D1*
X1096574Y644409D2*
X1108579D1*
X1097408Y641417D2*
X1110317D1*
X1098674Y638425D2*
X1111739D1*
X1100410Y635433D2*
X1112931D1*
X1102667Y632441D2*
X1114044D1*
X1105280Y629449D2*
X1115410D1*
X1108033Y626457D2*
X1117009D1*
X787186Y1545040D2*
X817106D1*
X785794Y1542048D2*
X818499D1*
X784829Y1539056D2*
X819464D1*
X784013Y1536064D2*
X820280D1*
X783103Y1533072D2*
X821189D1*
X782235Y1530080D2*
X822058D1*
X730338Y1527088D2*
X736322D1*
X781438D2*
X822855D1*
X867970D2*
X873954D1*
X727346Y1524096D2*
X741160D1*
X780491D2*
X823802D1*
X863133D2*
X876946D1*
X724354Y1521104D2*
X745782D1*
X777152D2*
X827141D1*
X858511D2*
X879938D1*
X721374Y1518112D2*
X750129D1*
X772163D2*
X832130D1*
X854164D2*
X882919D1*
X718499Y1515120D2*
X754274D1*
X766242D2*
X838050D1*
X850018D2*
X885794D1*
X716017Y1512128D2*
X888276D1*
X713993Y1509136D2*
X890299D1*
X713422Y1506144D2*
X890871D1*
X714352Y1503152D2*
X889941D1*
X715818Y1500160D2*
X888475D1*
X717541Y1497168D2*
X886752D1*
X719517Y1494176D2*
X884776D1*
X721776Y1491184D2*
X882517D1*
X723957Y1488192D2*
X880336D1*
X725583Y1485200D2*
X878709D1*
X726692Y1482208D2*
X877601D1*
X726570Y1479216D2*
X877722D1*
X725903Y1476224D2*
X878390D1*
X724812Y1473232D2*
X879481D1*
X723425Y1470240D2*
X880867D1*
X721801Y1467248D2*
X790766D1*
X813526D2*
X882491D1*
X717379Y1464256D2*
X786025D1*
X818268D2*
X886914D1*
X710370Y1461264D2*
X782042D1*
X822251D2*
X893923D1*
X702210Y1458272D2*
X778681D1*
X825612D2*
X902082D1*
X695668Y1455280D2*
X775977D1*
X828316D2*
X908624D1*
X690999Y1452288D2*
X774105D1*
X830188D2*
X913293D1*
X689641Y1449296D2*
X772958D1*
X831335D2*
X914651D1*
X688939Y1446304D2*
X772089D1*
X832204D2*
X915353D1*
X688636Y1443312D2*
X771263D1*
X833030D2*
X915657D1*
X688517Y1440320D2*
X770792D1*
X833501D2*
X915776D1*
X688473Y1437328D2*
X770966D1*
X833326D2*
X915819D1*
X688481Y1434336D2*
X771562D1*
X832731D2*
X915811D1*
X688757Y1431344D2*
X772451D1*
X831842D2*
X915536D1*
X689456Y1428352D2*
X773889D1*
X830404D2*
X914837D1*
X693936Y1425360D2*
X775977D1*
X828315D2*
X910357D1*
X700771Y1422368D2*
X778526D1*
X825767D2*
X903521D1*
X708277Y1419376D2*
X781313D1*
X822980D2*
X896015D1*
X714328Y1416384D2*
X784099D1*
X820194D2*
X889965D1*
X718452Y1413392D2*
X786459D1*
X817834D2*
X885841D1*
X721218Y1410400D2*
X788258D1*
X816035D2*
X883075D1*
X723253Y1407408D2*
X788124D1*
X816169D2*
X881040D1*
X724847Y1404416D2*
X787371D1*
X816922D2*
X879445D1*
X725917Y1401424D2*
X786218D1*
X818075D2*
X878376D1*
X726475Y1398432D2*
X784870D1*
X819422D2*
X877818D1*
X725456Y1395440D2*
X783524D1*
X820769D2*
X878837D1*
X723944Y1392448D2*
X782332D1*
X821961D2*
X880348D1*
X722203Y1389456D2*
X781274D1*
X823019D2*
X882090D1*
X720220Y1386464D2*
X780116D1*
X824177D2*
X884073D1*
X717958Y1383472D2*
X778807D1*
X825486D2*
X886335D1*
X715788Y1380480D2*
X777403D1*
X826890D2*
X888505D1*
X713937Y1377488D2*
X775954D1*
X828339D2*
X890356D1*
X713403Y1374496D2*
X774568D1*
X829724D2*
X890889D1*
X714457Y1371504D2*
X773354D1*
X830938D2*
X889836D1*
X716313Y1368512D2*
X772220D1*
X832073D2*
X887980D1*
X718754Y1365520D2*
X753800D1*
X760258D2*
X770842D1*
X833451D2*
X844034D1*
X850492D2*
X885539D1*
X721510Y1362528D2*
X749952D1*
X766242D2*
X769234D1*
X835058D2*
X838050D1*
X854341D2*
X882783D1*
X724408Y1359536D2*
X745715D1*
X858577D2*
X879885D1*
X727364Y1356544D2*
X741131D1*
X863162D2*
X876929D1*
X730338Y1353552D2*
X736322D1*
X867970D2*
X873954D1*
X664514Y1329616D2*
X676482D1*
X688450D2*
X700418D1*
X709394D2*
X727346D1*
X733330D2*
X739314D1*
X754274D2*
X757266D1*
X769234D2*
X781202D1*
X796162D2*
X811122D1*
X838050D2*
X858994D1*
X870962D2*
X882930D1*
X897890D2*
X915842D1*
X927810D2*
X939778D1*
X663133Y1326624D2*
X679474D1*
X685458D2*
X703410D1*
X709394D2*
X727346D1*
X733330D2*
X739314D1*
X754274D2*
X757266D1*
X767391D2*
X783965D1*
X794953D2*
X813515D1*
X836669D2*
X858994D1*
X868558D2*
X884520D1*
X896301D2*
X915842D1*
X925967D2*
X941160D1*
X662274Y1323632D2*
X727346D1*
X733330D2*
X739314D1*
X754263D2*
X757266D1*
X765790D2*
X786010D1*
X794939D2*
X815502D1*
X835810D2*
X858994D1*
X866809D2*
X885922D1*
X894898D2*
X915842D1*
X924366D2*
X942019D1*
X661839Y1320640D2*
X664514D1*
X673490D2*
X682490D1*
X688450D2*
D3*
X700968D2*
X706952D1*
X721362D2*
X727346D1*
X733330D2*
X739326D1*
X754158D2*
X757266D1*
X764580D2*
X772826D1*
X781752D2*
X786635D1*
X794950D2*
X796162D1*
X811122D2*
X816071D1*
X835375D2*
X841042D1*
X849430D2*
X858994D1*
X865818D2*
X870962D1*
X882930D2*
X901482D1*
X909858D2*
X915842D1*
X923156D2*
X931402D1*
X940328D2*
X942454D1*
X661646Y1317648D2*
X682718D1*
X702018D2*
X708002D1*
X721362D2*
X727346D1*
X733330D2*
X739440D1*
X753774D2*
X757266D1*
X763875D2*
X770839D1*
X782802D2*
X786959D1*
X794578D2*
X815040D1*
X835182D2*
X841042D1*
X851180D2*
X858994D1*
X865446D2*
X899495D1*
X909858D2*
X915842D1*
X922451D2*
X929415D1*
X941378D2*
X942647D1*
X661568Y1314656D2*
X683261D1*
X703410D2*
X709394D1*
X721362D2*
X727346D1*
X733330D2*
X739902D1*
X753032D2*
X757266D1*
X763624D2*
X770257D1*
X784194D2*
X787088D1*
X794014D2*
X813265D1*
X835104D2*
X841042D1*
X852182D2*
X858994D1*
X865698D2*
X898913D1*
X909858D2*
X915842D1*
X922200D2*
X928833D1*
X942770D2*
X942725D1*
X661539Y1311664D2*
X685593D1*
X701821D2*
X707888D1*
X721362D2*
X727346D1*
X733330D2*
X740925D1*
X752142D2*
X757243D1*
X763872D2*
X771063D1*
X782605D2*
X787027D1*
X793614D2*
X811122D1*
X835075D2*
X841042D1*
X852668D2*
X858994D1*
X866635D2*
X899719D1*
X909858D2*
X915842D1*
X922448D2*
X929639D1*
X941181D2*
X942743D1*
X661528Y1308672D2*
X661522D1*
X673490D2*
X688450D1*
X700418D2*
X706529D1*
X721362D2*
X727346D1*
X733330D2*
X742306D1*
X751282D2*
X757015D1*
X764754D2*
X772226D1*
X781202D2*
X786550D1*
X793607D2*
X799154D1*
X811122D2*
X813472D1*
X835064D2*
X841042D1*
X852878D2*
X858994D1*
X867970D2*
X870962D1*
X879938D2*
X900882D1*
X909858D2*
X915842D1*
X923330D2*
X930802D1*
X939778D2*
X942639D1*
X661524Y1305680D2*
X704888D1*
X721362D2*
X727346D1*
X733330D2*
X756472D1*
X766429D2*
X785353D1*
X794013D2*
X815517D1*
X835060D2*
X841042D1*
X852962D2*
X858994D1*
X866521D2*
X885151D1*
X895436D2*
X915842D1*
X925005D2*
X942181D1*
X661523Y1302688D2*
X679474D1*
X685458D2*
X702775D1*
X721362D2*
X727346D1*
X733330D2*
X754140D1*
X769034D2*
X783442D1*
X796317D2*
X813583D1*
X835059D2*
X841042D1*
X852994D2*
X858994D1*
X868482D2*
X882805D1*
X897496D2*
X915842D1*
X927610D2*
X941159D1*
X661522Y1299696D2*
X673490D1*
X688450D2*
X700418D1*
X721362D2*
X727346D1*
X733330D2*
X751282D1*
X772226D2*
X781202D1*
X799154D2*
X811122D1*
X835058D2*
X841042D1*
X853010D2*
X858994D1*
X870962D2*
X879938D1*
X901586D2*
X915842D1*
X930802D2*
X939778D1*
X905291Y1296704D2*
X915842D1*
X814114Y1293712D2*
X820098D1*
X908123D2*
X915842D1*
X814114Y1290720D2*
X818717D1*
X909038D2*
X915842D1*
X814114Y1287728D2*
X817855D1*
X909519D2*
X915842D1*
X814114Y1284736D2*
X817398D1*
X909736D2*
X915842D1*
X694434Y1281744D2*
X709394D1*
X715378D2*
X736322D1*
X745298D2*
X775218D1*
X784194D2*
X790178D1*
X802146D2*
X808130D1*
X814114D2*
X856002D1*
X867970D2*
X885922D1*
X894898D2*
X915842D1*
X693053Y1278752D2*
X736322D1*
X743917D2*
X763250D1*
X769348D2*
X775218D1*
X783644D2*
X791570D1*
X801596D2*
X808016D1*
X814114D2*
X856002D1*
X866589D2*
X884520D1*
X893875D2*
X915842D1*
X692194Y1275760D2*
X700418D1*
X706402D2*
X711798D1*
X716018D2*
X736322D1*
X743058D2*
X751282D1*
X757266D2*
X760258D1*
X769732D2*
X775218D1*
X782594D2*
X792495D1*
X800546D2*
X807633D1*
X814114D2*
X834470D1*
X839741D2*
X856002D1*
X865730D2*
X870962D1*
X879938D2*
X882930D1*
X892977D2*
X915842D1*
X691758Y1272768D2*
X697426D1*
X709394D2*
X713537D1*
X724109D2*
X736322D1*
X742623D2*
X748290D1*
X770461D2*
X775218D1*
X781202D2*
X793170D1*
X799154D2*
X806904D1*
X814114D2*
X820098D1*
X828364D2*
X836209D1*
X845732D2*
X856002D1*
X865295D2*
X870962D1*
X892364D2*
X901470D1*
X909858D2*
X915842D1*
X691558Y1269776D2*
X714706D1*
X727834D2*
X736322D1*
X742430D2*
X756219D1*
X771333D2*
X806032D1*
X814114D2*
X820098D1*
X830115D2*
X837378D1*
X850198D2*
X856002D1*
X865102D2*
X885922D1*
X891906D2*
X899721D1*
X909858D2*
X915842D1*
X691442Y1266784D2*
X714604D1*
X729172D2*
X736322D1*
X742352D2*
X762333D1*
X772239D2*
X805126D1*
X814114D2*
X820098D1*
X829821D2*
X837276D1*
X851666D2*
X856002D1*
X865024D2*
X898719D1*
X909858D2*
X915842D1*
X709394Y1263792D2*
X714021D1*
X729862D2*
X736322D1*
X742323D2*
X748290D1*
X760258D2*
X764741D1*
X773258D2*
X784194D1*
X789628D2*
X804106D1*
X814114D2*
X820098D1*
X829074D2*
X836693D1*
X852447D2*
X856002D1*
X864995D2*
X870962D1*
X882930D2*
X898232D1*
X909858D2*
X915842D1*
X691442Y1260800D2*
X697426D1*
X703410D2*
X713204D1*
X730168D2*
X736322D1*
X742312D2*
X751282D1*
X757266D2*
X765611D1*
X774281D2*
X784194D1*
X791570D2*
X803084D1*
X814114D2*
X835876D1*
X852806D2*
X856002D1*
X864984D2*
X870962D1*
X879938D2*
X898014D1*
X909858D2*
X915842D1*
X691442Y1257808D2*
X712386D1*
X730338D2*
X736322D1*
X742306D2*
X766242D1*
X775218D2*
X784194D1*
X793170D2*
X802146D1*
X814114D2*
X835058D1*
X853010D2*
X856002D1*
X864978D2*
X897890D1*
X909858D2*
X915842D1*
X928513Y1242809D2*
X927478Y1239817D1*
X926483Y1236825D1*
X925534Y1233833D1*
X924525Y1230841D1*
X923614Y1227849D1*
X922933Y1224857D1*
X922253Y1221865D1*
X921402Y1218873D1*
X920580Y1215881D1*
X920025Y1212889D1*
X919635Y1209897D1*
X919112Y1206905D1*
X918237Y1203913D1*
X917068Y1200921D1*
X915811Y1197929D1*
X914658Y1194937D1*
X913627Y1191945D1*
X912592Y1188953D1*
X911783Y1185961D1*
X911339Y1182969D1*
X911938Y1179977D1*
X912616Y1176985D1*
X913094Y1173993D1*
X913354Y1171001D1*
X913479Y1168009D1*
X913553Y1165017D1*
X973393Y1242809D2*
X981095Y1239817D1*
X988203Y1236825D1*
X994403Y1233833D1*
X999990Y1230841D1*
X1005641Y1227849D1*
X1011251Y1224857D1*
X1016201Y1221865D1*
X1020325Y1218873D1*
X1023868Y1215881D1*
X1027087Y1212889D1*
X1030069Y1209897D1*
X1032716Y1206905D1*
X1035004Y1203913D1*
X1037221Y1200921D1*
X1039588Y1197929D1*
X1041921Y1194937D1*
X1044058Y1191945D1*
X1046126Y1188953D1*
X1048183Y1185961D1*
X1050068Y1182969D1*
X1051770Y1179977D1*
X1053365Y1176985D1*
X1054899Y1173993D1*
X1056413Y1171001D1*
X1057913Y1168009D1*
X1059413Y1165017D1*
X1060907Y1162025D1*
X1062406Y1159033D1*
X1063900Y1156041D1*
X1065398Y1153049D1*
X1066892Y1150057D1*
X1068390Y1147065D1*
X1069884Y1144073D1*
X1071382Y1141081D1*
X1072888Y1138089D1*
X1074479Y1135097D1*
X1076261Y1132105D1*
X1078188Y1129113D1*
X1080020Y1126121D1*
X1081702Y1123129D1*
X1083289Y1120137D1*
X1084821Y1117145D1*
X1086334Y1114153D1*
X1087833Y1111161D1*
X1089333Y1108169D1*
X1090827Y1105177D1*
X1092326Y1102185D1*
X1093820Y1099193D1*
X1095307Y1096201D1*
X1096707Y1093209D1*
X1097917Y1090217D1*
X1098982Y1087225D1*
X1100142Y1084233D1*
X1101441Y1081241D1*
X1102751Y1078249D1*
X1103924Y1075257D1*
X1104974Y1072265D1*
X1106129Y1069273D1*
X1107425Y1066281D1*
X1108736Y1063289D1*
X1109908Y1060297D1*
X1110947Y1057305D1*
X1112008Y1054313D1*
X1113028Y1051321D1*
X1113991Y1048329D1*
X1115008Y1045337D1*
X1115922Y1042345D1*
X1116605Y1039353D1*
X1117296Y1036361D1*
X1118299Y1033369D1*
X1119924Y1030377D1*
X1122709Y1027385D1*
X1126639Y1024393D1*
X1130487Y1021401D1*
X1133532Y1018409D1*
X1136584Y1015417D1*
X1140496Y1012425D1*
X1144946Y1009433D1*
X1148786Y1006441D1*
X1151658Y1003449D1*
X1154287Y1000457D1*
X1156997Y997465D1*
X1159271Y994473D1*
X1160787Y991481D1*
X1161984Y988489D1*
X1163410Y985497D1*
X1165127Y982505D1*
X1166846Y979513D1*
X1168391Y976521D1*
X1169674Y973529D1*
X1170770Y970537D1*
X1171943Y967545D1*
X1173258Y964553D1*
X1174664Y961561D1*
X1176125Y958569D1*
X1177604Y955577D1*
X1179085Y952585D1*
X1180484Y949593D1*
X1181694Y946601D1*
X1182735Y943609D1*
X1183684Y940617D1*
X1184469Y937625D1*
X1184137Y934633D1*
X1183507Y931641D1*
X1182611Y928649D1*
X1181181Y925657D1*
X1179157Y922665D1*
X1176849Y919673D1*
X931505Y1242809D2*
X936901Y1239817D1*
X941643Y1236825D1*
X945637Y1233833D1*
X949115Y1230841D1*
X952317Y1227849D1*
X955393Y1224857D1*
X958417Y1221865D1*
X961425Y1218873D1*
X952449Y1242809D2*
X954967Y1239817D1*
X957112Y1236825D1*
X958936Y1233833D1*
X960583Y1230841D1*
X962146Y1227849D1*
X963745Y1224857D1*
X965499Y1221865D1*
X967409Y1218873D1*
X931505Y1236825D2*
X929124Y1233833D1*
X927443Y1230841D1*
X926304Y1227849D1*
X929603Y1224857D1*
X934482Y1221865D1*
X940540Y1218873D1*
X946903Y1215881D1*
X952872Y1212889D1*
X958433Y1209897D1*
X937489Y1236825D2*
X940481Y1233833D1*
X943473Y1230841D1*
X946465Y1227849D1*
X949457Y1224857D1*
X952449Y1221865D1*
X955441Y1218873D1*
X958433Y1215881D1*
X961425Y1212889D1*
X964417Y1209897D1*
X961425Y1233833D2*
X963943Y1230841D1*
X966076Y1227849D1*
X967807Y1224857D1*
X969166Y1221865D1*
X970302Y1218873D1*
X971625Y1215881D1*
X973262Y1212889D1*
X976940Y1209897D1*
X981889Y1206905D1*
X987437Y1203913D1*
X992864Y1200921D1*
X998205Y1197929D1*
X1003698Y1194937D1*
X1009297Y1191945D1*
X970401Y1233833D2*
X973981Y1230841D1*
X978215Y1227849D1*
X983185Y1224857D1*
X988567Y1221865D1*
X993842Y1218873D1*
X998528Y1215881D1*
X1002487Y1212889D1*
X1005851Y1209897D1*
X1008668Y1206905D1*
X1011015Y1203913D1*
X1013157Y1200921D1*
X1015173Y1197929D1*
X1016853Y1194937D1*
X1018273Y1191945D1*
X985361Y1233833D2*
X982369Y1230841D1*
X985361Y1233833D2*
X988353Y1230841D1*
Y1227849D2*
X991345Y1230841D2*
X994337Y1227849D1*
Y1224857D2*
X997329Y1227849D2*
X1000321Y1224857D1*
Y1221865D2*
X1003313Y1218873D1*
Y1224857D2*
X1006305Y1221865D1*
X1009297Y1218873D1*
X928513D2*
X925986Y1215881D1*
X923761Y1212889D1*
X921667Y1209897D1*
X919537Y1206905D1*
X925869Y1203913D1*
X932212Y1200921D1*
X938242Y1197929D1*
X943865Y1194937D1*
X949107Y1191945D1*
X953738Y1188953D1*
X957771Y1185961D1*
X961600Y1182969D1*
X965507Y1179977D1*
X969345Y1176985D1*
X972889Y1173993D1*
X976169Y1171001D1*
X979291Y1168009D1*
X982337Y1165017D1*
X985350Y1162025D1*
X988361Y1159033D1*
X991469Y1156041D1*
X994925Y1153049D1*
X998940Y1150057D1*
X1003313Y1147065D1*
X925521Y1218873D2*
X933795Y1215881D1*
X941134Y1212889D1*
X947286Y1209897D1*
X952490Y1206905D1*
X956959Y1203913D1*
X960873Y1200921D1*
X964639Y1197929D1*
X968505Y1194937D1*
X972239Y1191945D1*
X975502Y1188953D1*
X978457Y1185961D1*
X981633Y1182969D1*
X985305Y1179977D1*
X989279Y1176985D1*
X993196Y1173993D1*
X996787Y1171001D1*
X1000090Y1168009D1*
X1003210Y1165017D1*
X1006142Y1162025D1*
X1008658Y1159033D1*
X1010444Y1156041D1*
X1011459Y1153049D1*
X1011972Y1150057D1*
X1012289Y1147065D1*
X1009297Y1212889D2*
X1012163Y1209897D1*
X1014667Y1206905D1*
X1016549Y1203913D1*
X1017940Y1200921D1*
X1019156Y1197929D1*
X1020251Y1194937D1*
X1021367Y1191945D1*
X1022996Y1188953D1*
X1025497Y1185961D1*
X1028785Y1182969D1*
X1032460Y1179977D1*
X1036281Y1176985D1*
X1040265Y1173993D1*
X1044269Y1171001D1*
X1048193Y1168009D1*
X1012289Y1212889D2*
X1017451Y1209897D1*
X1022206Y1206905D1*
X1026754Y1203913D1*
X1030861Y1200921D1*
X1034113Y1197929D1*
X1036837Y1194937D1*
X1039435Y1191945D1*
X1041853Y1188953D1*
X1043933Y1185961D1*
X1045726Y1182969D1*
X1047359Y1179977D1*
X1048917Y1176985D1*
X1050514Y1173993D1*
X1052267Y1171001D1*
X1054177Y1168009D1*
X757969Y1200921D2*
X746956Y1197929D1*
X738109Y1194937D1*
X731850Y1191945D1*
X727705Y1188953D1*
X724742Y1185961D1*
X722417Y1182969D1*
X720780Y1179977D1*
X719847Y1176985D1*
X719394Y1173993D1*
X719209Y1171001D1*
X719247Y1168009D1*
X719704Y1165017D1*
X720803Y1162025D1*
X722388Y1159033D1*
X724069Y1156041D1*
X725690Y1153049D1*
X727254Y1150057D1*
X728777Y1147065D1*
X730276Y1144073D1*
X731669Y1141081D1*
X732787Y1138089D1*
X733565Y1135097D1*
X734285Y1132105D1*
X735163Y1129113D1*
X736096Y1126121D1*
X737034Y1123129D1*
X738142Y1120137D1*
X739431Y1117145D1*
X740828Y1114153D1*
X742287Y1111161D1*
X743776Y1108169D1*
X745374Y1105177D1*
X747247Y1102185D1*
X749461Y1099193D1*
X751734Y1096201D1*
X753859Y1093209D1*
X756023Y1090217D1*
X758470Y1087225D1*
X761176Y1084233D1*
X764038Y1081241D1*
X766977Y1078249D1*
X769948Y1075257D1*
X772933Y1072265D1*
X775922Y1069273D1*
X778913Y1066281D1*
X781905Y1063289D1*
X775602Y1060297D1*
X770848Y1057305D1*
X767575Y1054313D1*
X765145Y1051321D1*
X762921Y1048329D1*
X760582Y1045337D1*
X758364Y1042345D1*
X756602Y1039353D1*
X755161Y1036361D1*
X753595Y1033369D1*
X751909Y1030377D1*
X750527Y1027385D1*
X749592Y1024393D1*
X748783Y1021401D1*
X747779Y1018409D1*
X746556Y1015417D1*
X745289Y1012425D1*
X744226Y1009433D1*
X743524Y1006441D1*
X743009Y1003449D1*
X766945Y1200921D2*
X779476Y1197929D1*
X789788Y1194937D1*
X798085Y1191945D1*
X805178Y1188953D1*
X811825Y1185961D1*
X919537Y1200921D2*
X919063Y1197929D1*
X918216Y1194937D1*
X917060Y1191945D1*
X915831Y1188953D1*
X914891Y1185961D1*
X914365Y1182969D1*
X915094Y1179977D1*
X916474Y1176985D1*
X918454Y1173993D1*
X922606Y1171001D1*
X927341Y1168009D1*
X932348Y1165017D1*
X937425Y1162025D1*
X942329Y1159033D1*
X947039Y1156041D1*
X951621Y1153049D1*
X956045Y1150057D1*
X960159Y1147065D1*
X963829Y1144073D1*
X967161Y1141081D1*
X970327Y1138089D1*
X973614Y1135097D1*
X977626Y1132105D1*
X983067Y1129113D1*
X990108Y1126121D1*
X998256Y1123129D1*
X1006542Y1120137D1*
X1013803Y1117145D1*
X1019745Y1114153D1*
X1025053Y1111161D1*
X1030241Y1108169D1*
X916545Y1200921D2*
X924819Y1197929D1*
X932158Y1194937D1*
X938321Y1191945D1*
X943631Y1188953D1*
X948470Y1185961D1*
X952995Y1182969D1*
X957158Y1179977D1*
X960947Y1176985D1*
X964665Y1173993D1*
X968526Y1171001D1*
X972347Y1168009D1*
X975884Y1165017D1*
X979162Y1162025D1*
X982284Y1159033D1*
X985329Y1156041D1*
X988342Y1153049D1*
X991353Y1150057D1*
X994453Y1147065D1*
X997827Y1144073D1*
X1001524Y1141081D1*
X1005190Y1138089D1*
X1008427Y1135097D1*
X1011362Y1132105D1*
X1014430Y1129113D1*
X1017720Y1126121D1*
X1020976Y1123129D1*
X1024126Y1120137D1*
X1027195Y1117145D1*
X1030220Y1114153D1*
X1033226Y1111161D1*
X1036225Y1108169D1*
X973393Y1200921D2*
X975923Y1197929D1*
X978173Y1194937D1*
X980402Y1191945D1*
X982975Y1188953D1*
X986070Y1185961D1*
X989652Y1182969D1*
X993358Y1179977D1*
X996852Y1176985D1*
X1000114Y1173993D1*
X1003219Y1171001D1*
X1006169Y1168009D1*
X1008905Y1165017D1*
X1011580Y1162025D1*
X1014629Y1159033D1*
X1018249Y1156041D1*
X1022202Y1153049D1*
X1026112Y1150057D1*
X1029700Y1147065D1*
X1033002Y1144073D1*
X1036134Y1141081D1*
X1039185Y1138089D1*
X1042209Y1135097D1*
X985361Y1200921D2*
X988941Y1197929D1*
X993164Y1194937D1*
X998064Y1191945D1*
X1003367Y1188953D1*
X1008977Y1185961D1*
X1014792Y1182969D1*
X1020406Y1179977D1*
X1025758Y1176985D1*
X1030843Y1173993D1*
X1035376Y1171001D1*
X1037438Y1168009D1*
X1038909Y1165017D1*
X1040225Y1162025D1*
X1041577Y1159033D1*
X1042893Y1156041D1*
X1043977Y1153049D1*
X1044741Y1150057D1*
X1045455Y1147065D1*
X1046321Y1144073D1*
X1047156Y1141081D1*
X1047746Y1138089D1*
X1048193Y1135097D1*
X763953Y1197929D2*
X753184Y1194937D1*
X743923Y1191945D1*
X736826Y1188953D1*
X731907Y1185961D1*
X728644Y1182969D1*
X726364Y1179977D1*
X724746Y1176985D1*
X723570Y1173993D1*
X723821Y1171001D1*
X724399Y1168009D1*
X725173Y1165017D1*
X726213Y1162025D1*
X727524Y1159033D1*
X729368Y1156041D1*
X731903Y1153049D1*
X737972Y1150057D1*
X744931Y1147065D1*
X751239Y1144073D1*
X756243Y1141081D1*
X760227Y1138089D1*
X763555Y1135097D1*
X766343Y1132105D1*
X768686Y1129113D1*
X770935Y1126121D1*
X773413Y1123129D1*
X776131Y1120137D1*
X779008Y1117145D1*
X782053Y1114153D1*
X785409Y1111161D1*
X789135Y1108169D1*
X793015Y1105177D1*
X796865Y1102185D1*
X760961Y1197929D2*
X763839Y1194937D1*
X766448Y1191945D1*
X768722Y1188953D1*
X770935Y1185961D1*
X773300Y1182969D1*
X775634Y1179977D1*
X777770Y1176985D1*
X779838Y1173993D1*
X781895Y1171001D1*
X783780Y1168009D1*
X785482Y1165017D1*
X787077Y1162025D1*
X788611Y1159033D1*
X790114Y1156041D1*
X791508Y1153049D1*
X792615Y1150057D1*
X793300Y1147065D1*
X793743Y1144073D1*
X794275Y1141081D1*
X795064Y1138089D1*
X795959Y1135097D1*
X796871Y1132105D1*
X797868Y1129113D1*
X798763Y1126121D1*
X799349Y1123129D1*
X799752Y1120137D1*
X800267Y1117145D1*
X801039Y1114153D1*
X801827Y1111161D1*
X802359Y1108169D1*
X802655Y1105177D1*
X802849Y1102185D1*
X766945Y1197929D2*
X769475Y1194937D1*
X771713Y1191945D1*
X773825Y1188953D1*
X775912Y1185961D1*
X777898Y1182969D1*
X779890Y1179977D1*
X781915Y1176985D1*
X783787Y1173993D1*
X785485Y1171001D1*
X787078Y1168009D1*
X788612Y1165017D1*
X790114Y1162025D1*
X791520Y1159033D1*
X792732Y1156041D1*
X793786Y1153049D1*
X794853Y1150057D1*
X795875Y1147065D1*
X796839Y1144073D1*
X797856Y1141081D1*
X798759Y1138089D1*
X799348Y1135097D1*
X799751Y1132105D1*
X800279Y1129113D1*
X801179Y1126121D1*
X802571Y1123129D1*
X804708Y1120137D1*
X807804Y1117145D1*
X811689Y1114153D1*
X816145Y1111161D1*
X820868Y1108169D1*
X825425Y1105177D1*
X829777Y1102185D1*
X763953Y1197929D2*
X774745Y1194937D1*
X784205Y1191945D1*
X791971Y1188953D1*
X798048Y1185961D1*
X802509Y1182969D1*
X805806Y1179977D1*
X808434Y1176985D1*
X810560Y1173993D1*
X812357Y1171001D1*
X813975Y1168009D1*
X815428Y1165017D1*
X816658Y1162025D1*
X817730Y1159033D1*
X818893Y1156041D1*
X820192Y1153049D1*
X821503Y1150057D1*
X822688Y1147065D1*
X823832Y1144073D1*
X825274Y1141081D1*
X827011Y1138089D1*
X828753Y1135097D1*
X830409Y1132105D1*
X832075Y1129113D1*
X833889Y1126121D1*
X835838Y1123129D1*
X837754Y1120137D1*
X839702Y1117145D1*
X841745Y1114153D1*
X839899Y1111161D1*
X838270Y1108169D1*
X836915Y1105177D1*
X835761Y1102185D1*
X841745Y1185961D2*
X853443Y1182969D1*
X865215Y1179977D1*
X876278Y1176985D1*
X886339Y1173993D1*
X894874Y1171001D1*
X901674Y1168009D1*
X907569Y1165017D1*
X808833Y1182969D2*
X811351Y1179977D1*
X813484Y1176985D1*
X815215Y1173993D1*
X816574Y1171001D1*
X817699Y1168009D1*
X818881Y1165017D1*
X820200Y1162025D1*
X821607Y1159033D1*
X823069Y1156041D1*
X824548Y1153049D1*
X826041Y1150057D1*
X827533Y1147065D1*
X829031Y1144073D1*
X830524Y1141081D1*
X832022Y1138089D1*
X833516Y1135097D1*
X835014Y1132105D1*
X836520Y1129113D1*
X838111Y1126121D1*
X839893Y1123129D1*
X841820Y1120137D1*
X843652Y1117145D1*
X845346Y1114153D1*
X847027Y1111161D1*
X848834Y1108169D1*
X850682Y1105177D1*
X852232Y1102185D1*
X853478Y1099193D1*
X854648Y1096201D1*
X855734Y1093209D1*
X856705Y1090217D1*
X841745Y1182969D2*
X844263Y1179977D1*
X846408Y1176985D1*
X848232Y1173993D1*
X849879Y1171001D1*
X851432Y1168009D1*
X852954Y1165017D1*
X854456Y1162025D1*
X855945Y1159033D1*
X857346Y1156041D1*
X858557Y1153049D1*
X859610Y1150057D1*
X860677Y1147065D1*
X861699Y1144073D1*
X862675Y1141081D1*
X863797Y1138089D1*
X865093Y1135097D1*
X866492Y1132105D1*
X867939Y1129113D1*
X869312Y1126121D1*
X870420Y1123129D1*
X871141Y1120137D1*
X871665Y1117145D1*
X853713D1*
X854461Y1114153D1*
X856687Y1111161D1*
X859564Y1108169D1*
X862689Y1105177D1*
X847729Y1179977D2*
X850247Y1176985D1*
X852380Y1173993D1*
X854111Y1171001D1*
X855470Y1168009D1*
X856595Y1165017D1*
X857777Y1162025D1*
X859084Y1159033D1*
X860398Y1156041D1*
X861572Y1153049D1*
X862622Y1150057D1*
X863777Y1147065D1*
X865085Y1144073D1*
X866489Y1141081D1*
X867949Y1138089D1*
X869428Y1135097D1*
X870921Y1132105D1*
X872413Y1129113D1*
X873911Y1126121D1*
X875416Y1123129D1*
X877019Y1120137D1*
X878906Y1117145D1*
X881223Y1114153D1*
X883860Y1111161D1*
X886625Y1108169D1*
X844737Y1179977D2*
X855866Y1176985D1*
X865579Y1173993D1*
X873010Y1171001D1*
X878748Y1168009D1*
X881272Y1165017D1*
X883032Y1162025D1*
X884402Y1159033D1*
X885457Y1156041D1*
X886192Y1153049D1*
X886891Y1150057D1*
X887749Y1147065D1*
X888573Y1144073D1*
X889117Y1141081D1*
X889414Y1138089D1*
X889649Y1135097D1*
X890083Y1132105D1*
X890820Y1129113D1*
X891595Y1126121D1*
X892119Y1123129D1*
X892398Y1120137D1*
X892525Y1117145D1*
X892578Y1114153D1*
X892598Y1111161D1*
X892609Y1108169D1*
X886625Y1168009D2*
X886739Y1165017D1*
X887122Y1162025D1*
X887840Y1159033D1*
X888619Y1156041D1*
X889246Y1153049D1*
X889904Y1150057D1*
X890771Y1147065D1*
X891813Y1144073D1*
X893234Y1141081D1*
X895451Y1138089D1*
X898329Y1135097D1*
X901410Y1132105D1*
X904497Y1129113D1*
X907569Y1126121D1*
X892609Y1168009D2*
X898005Y1165017D1*
X902735Y1162025D1*
X906612Y1159033D1*
X909592Y1156041D1*
X911913Y1153049D1*
X912757Y1150057D1*
X913214Y1147065D1*
X913420Y1144073D1*
X913504Y1141081D1*
X913536Y1138089D1*
X913547Y1135097D1*
X913551Y1132105D1*
X913552Y1129113D1*
X913553Y1126121D1*
X916545Y1165017D2*
X917133Y1162025D1*
X918375Y1159033D1*
X920353Y1156041D1*
X922754Y1153049D1*
X925155Y1150057D1*
X927347Y1147065D1*
X929540Y1144073D1*
X931999Y1141081D1*
X934710Y1138089D1*
X937574Y1135097D1*
X940513Y1132105D1*
X943473Y1129113D1*
X946340Y1126121D1*
X948832Y1123129D1*
X950619Y1120137D1*
X951698Y1117145D1*
X952449Y1114153D1*
X958433D1*
X961057Y1111161D1*
X967342Y1108169D1*
X975396Y1105177D1*
X984079Y1102185D1*
X992386Y1099193D1*
X1000321Y1096201D1*
X922529Y1165017D2*
X928387Y1162025D1*
X933883Y1159033D1*
X938757Y1156041D1*
X943140Y1153049D1*
X947348Y1150057D1*
X951423Y1147065D1*
X955403Y1144073D1*
X959420Y1141081D1*
X963317Y1138089D1*
X966887Y1135097D1*
X970178Y1132105D1*
X973305Y1129113D1*
X976352Y1126121D1*
X979365Y1123129D1*
X982365Y1120137D1*
X985360Y1117145D1*
X988353Y1114153D1*
X991357Y1111161D1*
X994442Y1108169D1*
X997704Y1105177D1*
X1000975Y1102185D1*
X1003835Y1099193D1*
X1006305Y1096201D1*
X1045201Y1162025D2*
X1045663Y1159033D1*
X1046417Y1156041D1*
X1047297Y1153049D1*
X1048202Y1150057D1*
X1049197Y1147065D1*
X1050103Y1144073D1*
X1050782Y1141081D1*
X1051461Y1138089D1*
X1052312Y1135097D1*
X1053134Y1132105D1*
X1053689Y1129113D1*
X1054091Y1126121D1*
X1054707Y1123129D1*
X1055870Y1120137D1*
X1057489Y1117145D1*
X1059257Y1114153D1*
X1061143Y1111161D1*
X1063153Y1108169D1*
X1048193Y1162025D2*
X1051185Y1159033D1*
X1054165Y1156041D1*
X1057052Y1153049D1*
X1059651Y1150057D1*
X1061821Y1147065D1*
X1063653Y1144073D1*
X1065290Y1141081D1*
X1066751Y1138089D1*
X1067985Y1135097D1*
X1069046Y1132105D1*
X1070104Y1129113D1*
X1071022Y1126121D1*
X1071605Y1123129D1*
X1071894Y1120137D1*
X1071915Y1117145D1*
X1071508Y1114153D1*
X1070507Y1111161D1*
X1069137Y1108169D1*
X916545Y1150057D2*
Y1147065D1*
Y1144073D1*
Y1141081D1*
X916557Y1138089D1*
X916662Y1135097D1*
X917043Y1132105D1*
X917760Y1129113D1*
X918527Y1126121D1*
X919049Y1123129D1*
X919326Y1120137D1*
X919453Y1117145D1*
X919506Y1114153D1*
X919526Y1111161D1*
X919533Y1108169D1*
X919536Y1105177D1*
X919537Y1102185D1*
X919549Y1099193D1*
X919666Y1096201D1*
X920152Y1093209D1*
X921250Y1090217D1*
X922734Y1087225D1*
X924033Y1084233D1*
X924893Y1081241D1*
X925521Y1078249D1*
X931505D1*
X930955Y1075257D1*
X929905Y1072265D1*
X928513Y1069273D1*
X930020Y1066281D1*
X931368Y1063289D1*
X932904Y1060297D1*
X934613Y1057305D1*
X936152Y1054313D1*
X937489Y1051321D1*
X919537Y1150057D2*
X922517Y1147065D1*
X925404Y1144073D1*
X928015Y1141081D1*
X930279Y1138089D1*
X932398Y1135097D1*
X934475Y1132105D1*
X936368Y1129113D1*
X938083Y1126121D1*
X939756Y1123129D1*
X941544Y1120137D1*
X943473Y1117145D1*
X1012289Y1144073D2*
X1012877Y1141081D1*
X1014119Y1138089D1*
X1016109Y1135097D1*
X1018615Y1132105D1*
X1021397Y1129113D1*
X1024305Y1126121D1*
X1027266Y1123129D1*
X1030247Y1120137D1*
X1033235Y1117145D1*
X1036226Y1114153D1*
X1039217Y1111161D1*
X1042209Y1108169D1*
X1045201Y1105177D1*
X1021265Y1147065D2*
X1026547Y1144073D1*
X1030905Y1141081D1*
X1034182Y1138089D1*
X1036893Y1135097D1*
X1039562Y1132105D1*
X1042255Y1129113D1*
X1044770Y1126121D1*
X1047004Y1123129D1*
X1049201Y1120137D1*
X1051560Y1117145D1*
X1053889Y1114153D1*
X1056011Y1111161D1*
X1058058Y1108169D1*
X1060161Y1105177D1*
X737025Y1144073D2*
X737139Y1141081D1*
X737522Y1138089D1*
X738240Y1135097D1*
X739019Y1132105D1*
X739646Y1129113D1*
X740316Y1126121D1*
X741276Y1123129D1*
X742583Y1120137D1*
X744234Y1117145D1*
X746120Y1114153D1*
X748024Y1111161D1*
X749987Y1108169D1*
X752012Y1105177D1*
X753986Y1102185D1*
X756075Y1099193D1*
X758490Y1096201D1*
X761184Y1093209D1*
X764041Y1090217D1*
X766978Y1087225D1*
X769960Y1084233D1*
X773050Y1081241D1*
X776421Y1078249D1*
X780140Y1075257D1*
X784004Y1072265D1*
X787899Y1069273D1*
X791885Y1066281D1*
X795771Y1063289D1*
X799337Y1060297D1*
X802639Y1057305D1*
X805870Y1054313D1*
X809310Y1051321D1*
X813145Y1048329D1*
X817293Y1045337D1*
X821526Y1042345D1*
X825575Y1039353D1*
X829322Y1036361D1*
X833027Y1033369D1*
X836908Y1030377D1*
X840852Y1027385D1*
X844737Y1024393D1*
X743009Y1144073D2*
X748405Y1141081D1*
X753147Y1138089D1*
X757141Y1135097D1*
X760607Y1132105D1*
X763704Y1129113D1*
X766410Y1126121D1*
X768822Y1123129D1*
X771440Y1120137D1*
X774630Y1117145D1*
X778113Y1114153D1*
X781500Y1111161D1*
X784718Y1108169D1*
X787816Y1105177D1*
X790853Y1102185D1*
X793863Y1099193D1*
X796862Y1096201D1*
X799868Y1093209D1*
X802977Y1090217D1*
X806456Y1087225D1*
X810546Y1084233D1*
X815022Y1081241D1*
X819314Y1078249D1*
X823199Y1075257D1*
X826872Y1072265D1*
X830377Y1069273D1*
X833474Y1066281D1*
X836171Y1063289D1*
X838753Y1060297D1*
X837384Y1057305D1*
X836396Y1054313D1*
X836436Y1051321D1*
X837807Y1048329D1*
X841096Y1045337D1*
X844758Y1042345D1*
X848009Y1039353D1*
X850442Y1036361D1*
X852307Y1033369D1*
X852772Y1030377D1*
X851919Y1027385D1*
X850721Y1024393D1*
X892609Y1129113D2*
X898456Y1126121D1*
X903826Y1123129D1*
X908143Y1120137D1*
X911191Y1117145D1*
X913553Y1114153D1*
X895601Y1123129D2*
Y1120137D1*
Y1117145D1*
Y1114153D1*
X895613Y1111161D1*
X895718Y1108169D1*
X896099Y1105177D1*
X896816Y1102185D1*
X897595Y1099193D1*
X898233Y1096201D1*
X899008Y1093209D1*
X900339Y1090217D1*
X902307Y1087225D1*
X904577Y1084233D1*
X1075121Y1126121D2*
X1077639Y1123129D1*
X1079784Y1120137D1*
X1081608Y1117145D1*
X1083243Y1114153D1*
X1084703Y1111161D1*
X1085937Y1108169D1*
X1087010Y1105177D1*
X1088173Y1102185D1*
X1089472Y1099193D1*
X1090783Y1096201D1*
X1091956Y1093209D1*
X1093006Y1090217D1*
X1094161Y1087225D1*
X1095469Y1084233D1*
X1096873Y1081241D1*
X1098333Y1078249D1*
X1099812Y1075257D1*
X1101293Y1072265D1*
X1102692Y1069273D1*
X1103902Y1066281D1*
X1104966Y1063289D1*
X1106126Y1060297D1*
X1107425Y1057305D1*
X1108735Y1054313D1*
X1109908Y1051321D1*
X1110947Y1048329D1*
X1111996Y1045337D1*
X1112911Y1042345D1*
X1113496Y1039353D1*
X1113812Y1036361D1*
X1114017Y1033369D1*
X1075121Y1120137D2*
X1074098Y1117145D1*
X1073208Y1114153D1*
X1072640Y1111161D1*
X1072347Y1108169D1*
X1072227Y1105177D1*
X1072290Y1102185D1*
X1072767Y1099193D1*
X1073974Y1096201D1*
X1075942Y1093209D1*
X1078340Y1090217D1*
X1080739Y1087225D1*
X1082919Y1084233D1*
X1085007Y1081241D1*
X1087073Y1078249D1*
X1088962Y1075257D1*
X1090666Y1072265D1*
X1092261Y1069273D1*
X1093795Y1066281D1*
X1095298Y1063289D1*
X1096704Y1060297D1*
X1097916Y1057305D1*
X1098970Y1054313D1*
X1100025Y1051321D1*
X1100954Y1048329D1*
X1101654Y1045337D1*
X1102452Y1042345D1*
X1103791Y1039353D1*
X1105762Y1036361D1*
X1108033Y1033369D1*
X925521Y1117145D2*
X925705Y1114153D1*
X926164Y1111161D1*
X929065Y1108169D1*
X937012Y1105177D1*
X946465Y1102185D1*
X940273Y1099193D1*
X933147Y1096201D1*
X925521Y1093209D1*
X927954Y1090217D1*
X930815Y1087225D1*
X934092Y1084233D1*
X937489Y1081241D1*
X934497Y1117145D2*
X988353Y1120137D2*
X991357Y1117145D1*
X994454Y1114153D1*
X997827Y1111161D1*
X1001536Y1108169D1*
X1005295Y1105177D1*
X1008809Y1102185D1*
X1012078Y1099193D1*
X1015197Y1096201D1*
X1018253Y1093209D1*
X1021382Y1090217D1*
X1024880Y1087225D1*
X1029089Y1084233D1*
X1034052Y1081241D1*
X1039431Y1078249D1*
X1044707Y1075257D1*
X1049392Y1072265D1*
X1053363Y1069273D1*
X1056832Y1066281D1*
X1060031Y1063289D1*
X1063108Y1060297D1*
X1066145Y1057305D1*
X985361Y1120137D2*
X996153Y1117145D1*
X1005625Y1114153D1*
X1013508Y1111161D1*
X1020071Y1108169D1*
X1025642Y1105177D1*
X1030528Y1102185D1*
X1034838Y1099193D1*
X1038585Y1096201D1*
X1041946Y1093209D1*
X1045099Y1090217D1*
X1048155Y1087225D1*
X1051160Y1084233D1*
X1054056Y1081241D1*
X1056669Y1078249D1*
X1058946Y1075257D1*
X1061171Y1072265D1*
X1063630Y1069273D1*
X1066230Y1066281D1*
X1068633Y1063289D1*
X1070548Y1060297D1*
X1072129Y1057305D1*
X901585Y1114153D2*
X901699Y1111161D1*
X902085Y1108169D1*
X902827Y1105177D1*
X903718Y1102185D1*
X904577Y1099193D1*
X943473Y1114153D2*
X946003Y1111161D1*
X948252Y1108169D1*
X950462Y1105177D1*
X952885Y1102185D1*
X955441Y1099193D1*
X946465Y1114153D2*
X951285Y1111161D1*
X954899Y1108169D1*
X957371Y1105177D1*
X959412Y1102185D1*
X961425Y1099193D1*
X808833Y1111161D2*
X812412Y1108169D1*
X816636Y1105177D1*
X821549Y1102185D1*
X826785Y1099193D1*
X823793Y1096201D1*
X820801Y1093209D1*
X817809Y1090217D1*
X880641Y1111161D2*
X874657Y1108169D1*
X868673Y1105177D1*
X880641Y1111161D2*
X879693Y1108169D1*
X877976Y1105177D1*
X875453Y1102185D1*
X872204Y1099193D1*
X868614Y1096201D1*
X865434Y1093209D1*
X862689Y1090217D1*
X805841Y1105177D2*
X805853Y1102185D1*
X805967Y1099193D1*
X806429Y1096201D1*
X807452Y1093209D1*
X808833Y1090217D1*
X910561Y1102185D2*
X907569Y1099193D1*
X916545Y1102185D2*
X916984Y1099193D1*
X917515Y1096201D1*
X917878Y1093209D1*
X916655Y1090217D1*
X915101Y1087225D1*
X913553Y1084233D1*
X961425Y1102185D2*
X963943Y1099193D1*
X966088Y1096201D1*
X967924Y1093209D1*
X969675Y1090217D1*
X971622Y1087225D1*
X973965Y1084233D1*
X976616Y1081241D1*
X979355Y1078249D1*
X981906Y1075257D1*
X984159Y1072265D1*
X986364Y1069273D1*
X988726Y1066281D1*
X991070Y1063289D1*
X993323Y1060297D1*
X995877Y1057305D1*
X999043Y1054313D1*
X1002529Y1051321D1*
X1006019Y1048329D1*
X1009616Y1045337D1*
X1013432Y1042345D1*
X1017244Y1039353D1*
X1020821Y1036361D1*
X1024257Y1033369D1*
X961425Y1102185D2*
X972691Y1099193D1*
X983033Y1096201D1*
X992259Y1093209D1*
X1000612Y1090217D1*
X1007887Y1087225D1*
X1013588Y1084233D1*
X1018273Y1081241D1*
X1006429Y1078249D1*
X997920Y1075257D1*
X991345Y1072265D1*
X993314Y1069273D1*
X995408Y1066281D1*
X997786Y1063289D1*
X1000321Y1060297D1*
X841745Y1096201D2*
X844737Y1093209D1*
X847729Y1090217D1*
Y1096201D2*
X850721Y1093209D1*
X853713Y1090217D1*
X1048193Y1096201D2*
X1051071Y1093209D1*
X1053680Y1090217D1*
X1055954Y1087225D1*
X1058167Y1084233D1*
X1060532Y1081241D1*
X1062866Y1078249D1*
X1065014Y1075257D1*
X1067175Y1072265D1*
X1069520Y1069273D1*
X1071846Y1066281D1*
X1073991Y1063289D1*
X1076163Y1060297D1*
X1078601Y1057305D1*
X1081203Y1054313D1*
X1083684Y1051321D1*
X1085906Y1048329D1*
X1088102Y1045337D1*
X1090520Y1042345D1*
X1093073Y1039353D1*
X1066145Y1096201D2*
X1069125Y1093209D1*
X1072012Y1090217D1*
X1074623Y1087225D1*
X1076898Y1084233D1*
X1079111Y1081241D1*
X1081476Y1078249D1*
X1083798Y1075257D1*
X1085841Y1072265D1*
X1087621Y1069273D1*
X1089249Y1066281D1*
X1090796Y1063289D1*
X1092315Y1060297D1*
X1093816Y1057305D1*
X1095305Y1054313D1*
X1096695Y1051321D1*
X1097800Y1048329D1*
X1098475Y1045337D1*
X1098830Y1042345D1*
X1099057Y1039353D1*
X892609Y1090217D2*
X889617Y1087225D1*
X886625Y1084233D1*
X883633Y1081241D1*
X880641Y1078249D1*
X898593Y1087225D2*
X899479Y1084233D1*
X900160Y1081241D1*
X899302Y1078249D1*
X897054Y1075257D1*
X894933Y1072265D1*
X893178Y1069273D1*
X891453Y1066281D1*
X889617Y1063289D1*
X958433Y1090217D2*
X953549Y1087225D1*
X949665Y1084233D1*
X946465Y1081241D1*
X958433Y1090217D2*
X960963Y1087225D1*
X963201Y1084233D1*
X965313Y1081241D1*
X967388Y1078249D1*
X969269Y1075257D1*
X970880Y1072265D1*
X972211Y1069273D1*
X973527Y1066281D1*
X975477Y1063289D1*
X978332Y1060297D1*
X981654Y1057305D1*
X984875Y1054313D1*
X987676Y1051321D1*
X989945Y1048329D1*
X991819Y1045337D1*
X993472Y1042345D1*
X994928Y1039353D1*
X996070Y1036361D1*
X996856Y1033369D1*
X997579Y1030377D1*
X998447Y1027385D1*
X999275Y1024393D1*
X999820Y1021401D1*
X1000094Y1018409D1*
X1000119Y1015417D1*
X999791Y1012425D1*
X999094Y1009433D1*
X998327Y1006441D1*
X997763Y1003449D1*
X997329Y1000457D1*
X841745Y1087225D2*
X837653Y1084233D1*
X832561Y1081241D1*
X826785Y1078249D1*
X829777Y1075257D1*
X832769Y1072265D1*
X841745Y1087225D2*
X844094Y1084233D1*
X846140Y1081241D1*
X844827Y1078249D1*
X843271Y1075257D1*
X841745Y1072265D1*
X850721Y1084233D2*
X858635Y1081241D1*
X865510Y1078249D1*
X871212Y1075257D1*
X875829Y1072265D1*
X879303Y1069273D1*
X881738Y1066281D1*
X883633Y1063289D1*
X865681Y1084233D2*
X871665Y1081241D1*
X877649Y1078249D1*
X976385Y1075257D2*
X973393Y1072265D1*
X976385Y1075257D2*
X979377Y1072265D1*
X1042209D2*
X1033783Y1069273D1*
X1025857Y1066281D1*
X1018273Y1063289D1*
X1036225Y1072265D2*
X1040256Y1069273D1*
X1045115Y1066281D1*
X1050373Y1063289D1*
X1055192Y1060297D1*
X1059367Y1057305D1*
X1063261Y1054313D1*
X1067088Y1051321D1*
X1070485Y1048329D1*
X1073057Y1045337D1*
X1075121Y1042345D1*
X868673Y1069273D2*
X868097Y1066281D1*
X866971Y1063289D1*
X865480Y1060297D1*
X864200Y1057305D1*
X863514Y1054313D1*
X863290Y1051321D1*
X864337Y1048329D1*
X865681Y1045337D1*
X862254Y1042345D1*
X859232Y1039353D1*
X857949Y1036361D1*
X857242Y1033369D1*
X856917Y1030377D1*
X856784Y1027385D1*
X856756Y1024393D1*
X856960Y1021401D1*
X857478Y1018409D1*
X859685Y1015417D1*
X862605Y1012425D1*
X866029Y1009433D1*
X869820Y1006441D1*
X873728Y1003449D1*
X877656Y1000457D1*
X881768Y997465D1*
X886155Y994473D1*
X890929Y991481D1*
X896149Y988489D1*
X901585Y985497D1*
X871665Y1069273D2*
X874645Y1066281D1*
X877520Y1063289D1*
X880015Y1060297D1*
X881803Y1057305D1*
X882881Y1054313D1*
X883633Y1051321D1*
X877649D1*
X877187Y1048329D1*
X876445Y1045337D1*
X875658Y1042345D1*
X875020Y1039353D1*
X874279Y1036361D1*
X873124Y1033369D1*
X871665Y1030377D1*
X873046Y1027385D1*
X873905Y1024393D1*
X874340Y1021401D1*
X874533Y1018409D1*
X874611Y1015417D1*
X874642Y1012425D1*
X874657Y1009433D1*
X879461D1*
X884347Y1006441D1*
X889617Y1003449D1*
X961425Y1063289D2*
X956844Y1060297D1*
X952449Y1057305D1*
X964417Y1063289D2*
X968208Y1060297D1*
X972195Y1057305D1*
X975626Y1054313D1*
X978066Y1051321D1*
X979827Y1048329D1*
X981070Y1045337D1*
X981886Y1042345D1*
X982617Y1039353D1*
X983486Y1036361D1*
X984315Y1033369D1*
X984860Y1030377D1*
X985146Y1027385D1*
X985276Y1024393D1*
X985329Y1021401D1*
X985350Y1018409D1*
X985369Y1015417D1*
X985477Y1012425D1*
X985861Y1009433D1*
X986603Y1006441D1*
X987494Y1003449D1*
X988353Y1000457D1*
X1018273Y1066281D2*
X1009297Y1063289D1*
X1000321Y1060297D1*
X1012289Y1066281D2*
X1015281Y1063289D1*
X925521D2*
X923231Y1060297D1*
X921457Y1057305D1*
X921489Y1054313D1*
X921952Y1051321D1*
X922665Y1048329D1*
X923580Y1045337D1*
X924452Y1042345D1*
X925062Y1039353D1*
X925521Y1036361D1*
Y1063289D2*
X928051Y1060297D1*
X930289Y1057305D1*
X932390Y1054313D1*
X934336Y1051321D1*
X935986Y1048329D1*
X936191Y1045337D1*
X934806Y1042345D1*
X933139Y1039353D1*
X931505Y1036361D1*
X946465Y1057305D2*
Y1054313D1*
Y1051321D1*
X910561Y1054313D2*
X910117Y1051321D1*
X908609Y1048329D1*
X905324Y1045337D1*
X901585Y1042345D1*
X904577Y1039353D1*
X907569Y1036361D1*
X910561Y1033369D1*
X913553Y1030377D1*
X916545Y1027385D1*
X913553Y1054313D2*
X915969Y1051321D1*
X917824Y1048329D1*
X919207Y1045337D1*
X920421Y1042345D1*
X921504Y1039353D1*
X922493Y1036361D1*
X923544Y1033369D1*
X924578Y1030377D1*
X925521Y1027385D1*
X781905Y1051321D2*
X779463Y1048329D1*
X777521Y1045337D1*
X775921Y1042345D1*
X784897Y1051321D2*
Y1048329D1*
Y1045337D1*
Y1042345D1*
X895601Y1048329D2*
X898593Y1045337D1*
X901585Y1042345D1*
X904577Y1039353D1*
X907569Y1036361D1*
X910561Y1033369D1*
X913553Y1030377D1*
X916545Y1027385D1*
X901585Y1048329D2*
X904577Y1045337D1*
X976385Y1048329D2*
X973507Y1045337D1*
X970887Y1042345D1*
X968507Y1039353D1*
X965912Y1036361D1*
X962843Y1033369D1*
X959871Y1030377D1*
X957391Y1027385D1*
X956563Y1024393D1*
X957100Y1021401D1*
X958173Y1018409D1*
X959721Y1015417D1*
X961555Y1012425D1*
X963339Y1009433D1*
X964915Y1006441D1*
X966211Y1003449D1*
X967300Y1000457D1*
X968381Y997465D1*
X969408Y994473D1*
X970374Y991481D1*
X971392Y988489D1*
X972306Y985497D1*
X972989Y982505D1*
X973669Y979513D1*
X974520Y976521D1*
X975354Y973529D1*
X976002Y970537D1*
X976668Y967545D1*
X977526Y964553D1*
X978452Y961561D1*
X979387Y958569D1*
X980506Y955577D1*
X981889Y952585D1*
X983565Y949593D1*
X985380Y946601D1*
X986977Y943609D1*
X988353Y940617D1*
X979377Y1045337D2*
X979839Y1042345D1*
X980581Y1039353D1*
X981356Y1036361D1*
X981880Y1033369D1*
X982158Y1030377D1*
X982285Y1027385D1*
X982338Y1024393D1*
X982358Y1021401D1*
X982377Y1018409D1*
X982485Y1015417D1*
X982867Y1012425D1*
X983584Y1009433D1*
X984351Y1006441D1*
X984884Y1003449D1*
X985279Y1000457D1*
X985903Y997465D1*
X987160Y994473D1*
X989094Y991481D1*
X991345Y988489D1*
X988583Y985497D1*
X986537Y982505D1*
X985913Y979513D1*
X985588Y976521D1*
X985447Y973529D1*
X985392Y970537D1*
X985383Y967545D1*
X985481Y964553D1*
X985860Y961561D1*
X986588Y958569D1*
X987472Y955577D1*
X988480Y952585D1*
X989858Y949593D1*
X991501Y946601D1*
X993013Y943609D1*
X994337Y940617D1*
X997329Y1048329D2*
X997791Y1045337D1*
X998545Y1042345D1*
X999425Y1039353D1*
X1000330Y1036361D1*
X1001325Y1033369D1*
X1002219Y1030377D1*
X1002793Y1027385D1*
X1003092Y1024393D1*
X1003231Y1021401D1*
X1003313Y1018409D1*
X1000321Y1048329D2*
X1003325Y1045337D1*
X1006422Y1042345D1*
X1009797Y1039353D1*
X1013531Y1036361D1*
X1017414Y1033369D1*
X1021265Y1030377D1*
X1018823Y1027385D1*
X1016881Y1024393D1*
X1015281Y1021401D1*
X527585Y1042345D2*
X523441Y1039353D1*
X520371Y1036361D1*
X519362Y1033369D1*
X518609Y1030377D1*
X542545Y1042345D2*
X548716Y1039353D1*
X554513Y1036361D1*
X1060161Y1042345D2*
X1052127Y1039353D1*
X1045192Y1036361D1*
X1039217Y1033369D1*
X1066145Y1042345D2*
X563489Y1036361D2*
X569473D2*
X578075Y1033369D1*
X587425Y1030377D1*
X778913Y1039353D2*
X775921Y1036361D1*
X778913Y1039353D2*
X781905Y1036361D1*
X1033233Y1033369D2*
X524593D2*
X521601Y1030377D1*
X527585Y1033369D2*
X538965Y1030377D1*
X549726Y1027385D1*
X560046Y1024393D1*
X570896Y1021401D1*
X583158Y1018409D1*
X596401Y1015417D1*
Y1012425D1*
X604941Y1009433D1*
X611592Y1006441D1*
X617203Y1003449D1*
X622910Y1000457D1*
X629068Y997465D1*
X635585Y994473D1*
X642419Y991481D1*
X649456Y988489D1*
X656914Y985497D1*
X665248Y982505D1*
X674193Y979513D1*
X599393Y1030377D2*
X602385D2*
X611285Y1027385D1*
X623197Y1024393D1*
X636743Y1021401D1*
X649364Y1018409D1*
X660349Y1015417D1*
X669844Y1012425D1*
X677934Y1009433D1*
X684645Y1006441D1*
X690184Y1003449D1*
X695137Y1000457D1*
X775921Y1030377D2*
Y1027385D1*
Y1024393D1*
Y1021401D1*
X781905Y1030377D2*
Y1027385D1*
Y1024393D1*
Y1021401D1*
X823793Y1030377D2*
X823907Y1027385D1*
X824290Y1024393D1*
X824996Y1021401D1*
X825658Y1018409D1*
X825796Y1015417D1*
X825333Y1012425D1*
X824574Y1009433D1*
X823793Y1006441D1*
X829777Y1030377D2*
X832067Y1027385D1*
X833841Y1024393D1*
X833820Y1021401D1*
X833462Y1018409D1*
X833132Y1015417D1*
X832932Y1012425D1*
X832831Y1009433D1*
X832769Y1006441D1*
X904577Y1030377D2*
X902161Y1027385D1*
X900306Y1024393D1*
X898923Y1021401D1*
X897709Y1018409D1*
X896626Y1015417D1*
X895637Y1012425D1*
X894586Y1009433D1*
X893552Y1006441D1*
X892609Y1003449D1*
X907569Y1030377D2*
X910424Y1027385D1*
X912810Y1024393D1*
X914622Y1021401D1*
X914489Y1018409D1*
X913760Y1015417D1*
X912826Y1012425D1*
X912014Y1009433D1*
X912594Y1006441D1*
X913553Y1003449D1*
X912172Y1000457D1*
X911313Y997465D1*
X910878Y994473D1*
X910685Y991481D1*
X910604Y988489D1*
X910561Y985497D1*
X1009297Y1021401D2*
Y1018409D1*
X949457Y1021401D2*
X948767Y1018409D1*
X947270Y1015417D1*
X945166Y1012425D1*
X943107Y1009433D1*
X942622Y1006441D1*
X943486Y1003449D1*
X944884Y1000457D1*
X946644Y997465D1*
X948409Y994473D1*
X950078Y991481D1*
X951763Y988489D1*
X953684Y985497D1*
X956018Y982505D1*
X958677Y979513D1*
X961520Y976521D1*
X964450Y973529D1*
X967409Y970537D1*
X955441Y1018409D2*
X956578Y1015417D1*
X957864Y1012425D1*
X959253Y1009433D1*
X960695Y1006441D1*
X962077Y1003449D1*
X963281Y1000457D1*
X964343Y997465D1*
X965502Y994473D1*
X966801Y991481D1*
X968100Y988489D1*
X969179Y985497D1*
X969941Y982505D1*
X970658Y979513D1*
X971548Y976521D1*
X972500Y973529D1*
X973393Y970537D1*
X778913Y1018409D2*
X775921Y1015417D1*
X778913Y1018409D2*
X781905Y1015417D1*
X1072129Y1018409D2*
X1069137Y1015417D1*
X1066145Y1012425D1*
X1075121Y1018409D2*
Y1015417D1*
Y1012425D1*
X1081105Y1018409D2*
X1078113Y1015417D1*
X1081105Y1018409D2*
X1084097Y1015417D1*
X1093073Y1018409D2*
X1090081Y1015417D1*
X1096065Y1018409D2*
X1099057Y1015417D1*
X1102049Y1018409D2*
X1105041Y1015417D1*
X934497D2*
X937015Y1012425D1*
X939160Y1009433D1*
X940996Y1006441D1*
X942736Y1003449D1*
X944577Y1000457D1*
X946527Y997465D1*
X948368Y994473D1*
X950064Y991481D1*
X951758Y988489D1*
X953682Y985497D1*
X956017Y982505D1*
X958677Y979513D1*
X961520Y976521D1*
X964450Y973529D1*
X967409Y970537D1*
X940481Y1015417D2*
X943473Y1012425D1*
X1063153Y1015417D2*
X1060161Y1012425D1*
X1045201D2*
X1045751Y1009433D1*
X1046801Y1006441D1*
X1048193Y1003449D1*
X1060161Y1009433D2*
X1057356Y1006441D1*
X1054177Y1003449D1*
X850721Y1009433D2*
X853137Y1006441D1*
X854992Y1003449D1*
X856387Y1000457D1*
X857706Y997465D1*
X859205Y994473D1*
X861253Y991481D1*
X864466Y988489D1*
X869136Y985497D1*
X874657Y982505D1*
X856705Y1009433D2*
X860159Y1006441D1*
X863905Y1003449D1*
X867777Y1000457D1*
X871686Y997465D1*
X875778Y994473D1*
X880047Y991481D1*
X884358Y988489D1*
X888554Y985497D1*
X892609Y982505D1*
X707105Y1003449D2*
X704113Y1000457D1*
X731041Y1003449D2*
X781905Y1006441D2*
X778913Y1003449D1*
X775921Y1000457D1*
X781905Y1006441D2*
X784897Y1003449D1*
X787889Y1000457D1*
X829777Y1003449D2*
X826785Y1000457D1*
X829777Y1003449D2*
X832769Y1000457D1*
X937489Y994473D2*
Y991481D1*
X937477Y988489D1*
X937363Y985497D1*
X936901Y982505D1*
X935878Y979513D1*
X934497Y976521D1*
X940481Y994473D2*
X943011Y991481D1*
X945261Y988489D1*
X947478Y985497D1*
X949944Y982505D1*
X952642Y979513D1*
X955441Y976521D1*
X740017Y991481D2*
X737025Y988489D1*
X754977Y991481D2*
X757969Y988489D1*
X772929D2*
X769937Y985497D1*
X778913Y988489D2*
X781905Y985497D1*
X814817D2*
X811825Y982505D1*
X814817Y985497D2*
X817809Y982505D1*
X1027249Y985497D2*
X1024257Y982505D1*
X1027249Y985497D2*
X1030241Y982505D1*
X701121D2*
X698129Y979513D1*
X701121Y982505D2*
X704136Y979513D1*
X707386Y976521D1*
X711619Y973529D1*
X718149Y970537D1*
X727970Y967545D1*
X740772Y964553D1*
X754977Y961561D1*
X910561Y982505D2*
X913667Y979513D1*
X917042Y976521D1*
X920763Y973529D1*
X924628Y970537D1*
X928535Y967545D1*
X932626Y964553D1*
X936893Y961561D1*
X941199Y958569D1*
X945455Y955577D1*
X949760Y952585D1*
X954137Y949593D1*
X958094Y946601D1*
X961423Y943609D1*
X964471Y940617D1*
X967447Y937625D1*
X970419Y934633D1*
X973393Y931641D1*
X910561Y982505D2*
X918143Y979513D1*
X924818Y976521D1*
X931100Y973529D1*
X937489Y970537D1*
X955441Y973529D2*
X952449Y970537D1*
X955441Y973529D2*
X958433Y970537D1*
X961425Y967545D1*
X964417Y964553D1*
X967409Y961561D1*
X970389Y958569D1*
X973276Y955577D1*
X975887Y952585D1*
X978151Y949593D1*
X980259Y946601D1*
X982219Y943609D1*
X983905Y940617D1*
X984391Y937625D1*
X983554Y934633D1*
X982369Y931641D1*
X1015281Y970537D2*
X1012289Y967545D1*
X1015281Y970537D2*
X1018273Y967545D1*
X841745D2*
X811825Y964553D1*
X781905Y961561D1*
X826785Y967545D2*
X836999Y964553D1*
X847478Y961561D1*
X856683Y958569D1*
X863318Y955577D1*
X867887Y952585D1*
X871578Y949593D1*
X875523Y946601D1*
X881208Y943609D1*
X890271Y940617D1*
X903156Y937625D1*
X918468Y934633D1*
X934497Y931641D1*
X931523Y928649D1*
X924284Y925657D1*
X914925Y922665D1*
X904577Y919673D1*
X905958Y916681D1*
X906806Y913689D1*
X907135Y910697D1*
X906947Y907705D1*
X906308Y904713D1*
X905563Y901721D1*
X905007Y898729D1*
X904577Y895737D1*
X910561D1*
X909538Y892745D1*
X908659Y889753D1*
X908197Y886761D1*
X908286Y883769D1*
X908870Y880777D1*
X909583Y877785D1*
X910084Y874793D1*
X910342Y871801D1*
X910362Y868809D1*
X910008Y865817D1*
X909078Y862825D1*
X907683Y859833D1*
X904475Y856841D1*
X900295Y853849D1*
X895748Y850857D1*
X891725Y847865D1*
X888586Y844873D1*
X885928Y841881D1*
X883267Y838889D1*
X880475Y835897D1*
X877581Y832905D1*
X874631Y829913D1*
X871667Y826921D1*
X868787Y823929D1*
X866178Y820937D1*
X863903Y817945D1*
X861679Y814953D1*
X859209Y811961D1*
X856494Y808969D1*
X853617Y805977D1*
X850561Y802985D1*
X847114Y799993D1*
X843149Y797001D1*
X839172Y794009D1*
X835653Y791017D1*
X834040Y788025D1*
X832769Y785033D1*
X904577Y964553D2*
X901585Y961561D1*
X910561Y964553D2*
X913553Y961561D1*
X1102049Y952585D2*
Y949593D1*
Y946601D1*
X1114017Y952585D2*
Y949593D1*
Y946601D1*
X1099057Y949593D2*
X1094249Y946601D1*
X1090204Y943609D1*
X1088388Y940617D1*
X1087959Y937625D1*
X1089073Y934633D1*
X1090896Y931641D1*
X1093073Y928649D1*
X1096065Y949593D2*
X1099057Y946601D1*
X1120001Y949593D2*
X1117009Y946601D1*
X1128977Y949593D2*
Y946601D1*
Y943609D1*
Y940617D1*
X1120001D2*
X1115722Y937625D1*
X1111232Y934633D1*
X1106600Y931641D1*
X1102049Y928649D1*
X1122993Y940617D2*
X958433Y934633D2*
Y931641D1*
Y928649D1*
Y925657D1*
Y922665D1*
X961425Y934633D2*
X964417Y931641D1*
X967409Y928649D1*
X970401Y925657D1*
X973393Y922665D1*
X946465Y931641D2*
X943473Y928649D1*
X946465Y931641D2*
X949457Y928649D1*
X982369Y931641D2*
X986372Y928649D1*
X990150Y925657D1*
X993316Y922665D1*
X995779Y919673D1*
X997752Y916681D1*
X999533Y913689D1*
X1001362Y910697D1*
X1003313Y907705D1*
X1000321Y931641D2*
X1000447Y928649D1*
X1000947Y925657D1*
X1002151Y922665D1*
X1004039Y919673D1*
X1006273Y916681D1*
X1008775Y913689D1*
X1011813Y910697D1*
X1015281Y907705D1*
X1197793Y922665D2*
X1185825Y919673D1*
X1218737Y922665D2*
X1220358Y919673D1*
X1222101Y916681D1*
X1224468Y913689D1*
X1227399Y910697D1*
X1230397Y907705D1*
X1233092Y904713D1*
X1235316Y901721D1*
X1237173Y898729D1*
X1238832Y895737D1*
X1240390Y892745D1*
X1241901Y889753D1*
X1243298Y886761D1*
X1244407Y883769D1*
X1245080Y880777D1*
X1245418Y877785D1*
X1245568Y874793D1*
X1245618Y871801D1*
X1245535Y868809D1*
X1245151Y865817D1*
X1244323Y862825D1*
X1243087Y859833D1*
X1241497Y856841D1*
X1239681Y853849D1*
X1245779Y850857D1*
X1252146Y847865D1*
X1258848Y844873D1*
X1265599Y841881D1*
X1272093Y838889D1*
X1278249Y835897D1*
X1283979Y832905D1*
X1289299Y829913D1*
X1294513Y826921D1*
X1299748Y823929D1*
X1304461Y820937D1*
X1308422Y817945D1*
X1309991Y814953D1*
X1310847Y811961D1*
X1311237Y808969D1*
X1311401Y805977D1*
X1311489Y802985D1*
X1018273Y901721D2*
X1021265Y898729D1*
X1024257Y895737D1*
Y901721D2*
X1027249Y898729D1*
X1030241Y895737D1*
X1221729D2*
Y892745D1*
Y889753D1*
Y886761D1*
Y883769D1*
X1227713Y895737D2*
Y892745D1*
Y889753D1*
Y886761D1*
Y883769D1*
X949457Y871801D2*
X946465Y868809D1*
X949457Y871801D2*
X952449Y868809D1*
X1122993Y871801D2*
X1120001Y868809D1*
X1125985Y871801D2*
X1128977Y868809D1*
X946465Y865817D2*
X944049Y862825D1*
X942194Y859833D1*
X940799Y856841D1*
X939480Y853849D1*
X938005Y850857D1*
X936193Y847865D1*
X933954Y844873D1*
X931505Y841881D1*
X940481Y865817D2*
X948846Y862825D1*
X956346Y859833D1*
X962337Y856841D1*
X967056Y853849D1*
X968938Y850857D1*
X970401Y847865D1*
X994337D1*
Y844873D1*
X1060161Y859833D2*
X1060623Y856841D1*
X1061365Y853849D1*
X1062140Y850857D1*
X1062676Y847865D1*
X1063059Y844873D1*
X1063567Y841881D1*
X1064336Y838889D1*
X1065124Y835897D1*
X1065653Y832905D1*
X1065933Y829913D1*
X1066061Y826921D1*
X1066113Y823929D1*
X1066134Y820937D1*
X1066141Y817945D1*
X1066144Y814953D1*
X1066145Y811961D1*
Y808969D1*
Y805977D1*
Y802985D1*
Y799993D1*
Y797001D1*
Y794009D1*
Y791017D1*
Y788025D1*
Y785033D1*
Y782041D1*
Y779049D1*
Y776057D1*
Y773065D1*
Y770073D1*
Y767081D1*
Y764089D1*
X1066133Y761097D1*
X1066028Y758105D1*
X1065623Y755113D1*
X1064685Y752121D1*
X1063050Y749129D1*
X1060725Y746137D1*
X1058302Y743145D1*
X1056318Y740153D1*
X1056091Y737161D1*
X1056969Y734169D1*
X1058141Y731177D1*
X1059500Y728185D1*
X1060938Y725193D1*
X1062417Y722201D1*
X1063915Y719209D1*
X1065505Y716217D1*
X1067285Y713225D1*
X1069212Y710233D1*
X1071032Y707241D1*
X1072621Y704249D1*
X1073920Y701257D1*
X1075011Y698265D1*
X1076081Y695273D1*
X1077015Y692281D1*
X1077717Y689289D1*
X1078516Y686297D1*
X1079866Y683305D1*
X1081904Y680313D1*
X1084417Y677321D1*
X1087089Y674329D1*
X1089525Y671337D1*
X1091493Y668345D1*
X1093360Y665353D1*
X1095659Y662361D1*
X1098132Y659369D1*
X1100154Y656377D1*
X1101854Y653385D1*
X1103876Y650393D1*
X1106323Y647401D1*
X1108579Y644409D1*
X1110317Y641417D1*
X1111739Y638425D1*
X1112931Y635433D1*
X1114044Y632441D1*
X1115410Y629449D1*
X1117009Y626457D1*
X1057169Y859833D2*
X1064383Y856841D1*
X1070458Y853849D1*
X1073074Y850857D1*
X1075121Y847865D1*
X1084097D1*
X1084085Y844873D1*
X1083971Y841881D1*
X1083509Y838889D1*
X1082486Y835897D1*
X1081105Y832905D1*
X1082486Y829913D1*
X1083357Y826921D1*
X1083897Y823929D1*
X1084483Y820937D1*
X1085383Y817945D1*
X1086573Y814953D1*
X1087939Y811961D1*
X1089485Y808969D1*
X1091350Y805977D1*
X1093674Y802985D1*
X1096442Y799993D1*
X1099781Y797001D1*
X1103926Y794009D1*
X1108874Y791017D1*
X1114338Y788025D1*
X1120001Y785033D1*
X1209761Y856841D2*
X1206769Y853849D1*
X1209761Y856841D2*
X1212753Y853849D1*
X1218737D2*
X1215745Y850857D1*
X1221729Y853849D2*
X1224721Y850857D1*
X1117009D2*
X1117711Y847865D1*
X1118929Y844873D1*
X1121965Y841881D1*
X1125416Y838889D1*
X1128977Y835897D1*
X1122993Y850857D2*
X1125871Y847865D1*
X1128477Y844873D1*
X1130727Y841881D1*
X1132828Y838889D1*
X1134961Y835897D1*
X1006305Y847865D2*
X1003313Y844873D1*
X1009297Y847865D2*
Y844873D1*
Y841881D1*
X1019271Y838889D1*
X1027385Y835897D1*
X1030916Y832905D1*
X1032159Y829913D1*
X1032795Y826921D1*
X1033068Y823929D1*
X1033174Y820937D1*
X1033213Y817945D1*
X1033226Y814953D1*
X1033231Y811961D1*
X1033232Y808969D1*
X1033233Y805977D1*
Y802985D1*
Y799993D1*
Y797001D1*
Y794009D1*
X1033221Y791017D1*
X1033116Y788025D1*
X1032735Y785033D1*
X1032018Y782041D1*
X1031251Y779049D1*
X1030729Y776057D1*
X1030452Y773065D1*
X1030325Y770073D1*
X1030272Y767081D1*
X1030252Y764089D1*
X1030257Y761097D1*
X1030359Y758105D1*
X1030751Y755113D1*
X1031584Y752121D1*
X1032838Y749129D1*
X1034458Y746137D1*
X1036219Y743145D1*
X1037635Y740153D1*
X1038486Y737161D1*
X1038923Y734169D1*
X1039215Y731177D1*
X1039683Y728185D1*
X1040533Y725193D1*
X1041703Y722201D1*
X1043062Y719209D1*
X1044595Y716217D1*
X1046353Y713225D1*
X1048284Y710233D1*
X1050207Y707241D1*
X1052164Y704249D1*
X1054086Y701257D1*
X1055668Y698265D1*
X1056924Y695273D1*
X1058085Y692281D1*
X1059147Y689289D1*
X1060129Y686297D1*
X1061177Y683305D1*
X1062211Y680313D1*
X1063153Y677321D1*
X1161889Y847865D2*
X1158897Y844873D1*
X1161889Y847865D2*
X1164881Y844873D1*
X1239681Y847865D2*
X1236689Y844873D1*
X1242673Y847865D2*
X1245665Y844873D1*
X922529D2*
X920113Y841881D1*
X918258Y838889D1*
X916863Y835897D1*
X915544Y832905D1*
X914068Y829913D1*
X912236Y826921D1*
X909841Y823929D1*
X906817Y820937D1*
X903252Y817945D1*
X899450Y814953D1*
X895578Y811961D1*
X891601Y808969D1*
X887718Y805977D1*
X884141Y802985D1*
X880734Y799993D1*
X877110Y797001D1*
X872860Y794009D1*
X867958Y791017D1*
X862731Y788025D1*
X857289Y785033D1*
X851421Y782041D1*
X845145Y779049D1*
X838753Y776057D1*
X925521Y844873D2*
X928513Y841881D1*
X1233697Y838889D2*
Y835897D1*
X1233685Y832905D1*
X1233580Y829913D1*
X1233187Y826921D1*
X1232354Y823929D1*
X1231077Y820937D1*
X1229235Y817945D1*
X1226594Y814953D1*
X1223247Y811961D1*
X1219623Y808969D1*
X1215904Y805977D1*
X1211322Y802985D1*
X1204416Y799993D1*
X1194477Y797001D1*
X1182833Y794009D1*
Y791017D1*
Y788025D1*
Y785033D1*
Y782041D1*
X1182845Y779049D1*
X1182950Y776057D1*
X1183343Y773065D1*
X1184165Y770073D1*
X1185325Y767081D1*
X1186668Y764089D1*
X1188094Y761097D1*
X1189471Y758105D1*
X1190674Y755113D1*
X1191735Y752121D1*
X1192895Y749129D1*
X1194204Y746137D1*
X1195620Y743145D1*
X1197174Y740153D1*
X1198941Y737161D1*
X1200863Y734169D1*
X1202693Y731177D1*
X1204374Y728185D1*
X1205950Y725193D1*
X1207376Y722201D1*
X1208496Y719209D1*
X1209173Y716217D1*
X1209514Y713225D1*
X1209671Y710233D1*
X1209761Y707241D1*
X1230705Y838889D2*
X1243787Y835897D1*
X1254637Y832905D1*
X1262910Y829913D1*
X1269584Y826921D1*
X1275665Y823929D1*
X1281506Y820937D1*
X1286971Y817945D1*
X1291838Y814953D1*
X1296329Y811961D1*
X1301011Y808969D1*
X1306133Y805977D1*
X1311489Y802985D1*
X1042209Y832905D2*
Y829913D1*
Y826921D1*
Y823929D1*
Y820937D1*
X1048193Y832905D2*
Y829913D1*
Y826921D1*
Y823929D1*
Y820937D1*
X1173857Y829913D2*
Y826921D1*
Y823929D1*
Y820937D1*
Y817945D1*
Y814953D1*
Y811961D1*
Y808969D1*
Y805977D1*
Y802985D1*
Y799993D1*
Y797001D1*
Y794009D1*
Y791017D1*
Y788025D1*
X1179841Y829913D2*
Y826921D1*
Y823929D1*
Y820937D1*
Y817945D1*
Y814953D1*
Y811961D1*
Y808969D1*
Y805977D1*
Y802985D1*
Y799993D1*
Y797001D1*
Y794009D1*
Y791017D1*
Y788025D1*
X1287553Y826921D2*
X1284561Y823929D1*
X1287553Y826921D2*
X1290545Y823929D1*
X1293537Y820937D2*
X1296529Y817945D1*
X1299521Y814953D1*
Y820937D2*
X1302513Y817945D1*
X1305505Y814953D1*
X1042209Y808969D2*
Y805977D1*
Y802985D1*
Y799993D1*
X1048193Y808969D2*
Y805977D1*
Y802985D1*
Y799993D1*
X1161889Y808969D2*
X1158897Y805977D1*
X1161889Y808969D2*
X1164881Y805977D1*
X1158897Y802985D2*
X1156242Y799993D1*
X1153491Y797001D1*
X1150059Y794009D1*
X1145614Y791017D1*
X1140435Y788025D1*
X1134961Y785033D1*
X1161889Y802985D2*
X1162637Y799993D1*
X1164722Y797001D1*
X1167043Y794009D1*
X1168884Y791017D1*
X1170070Y788025D1*
X1170984Y785033D1*
X1171933Y782041D1*
X1172793Y779049D1*
X1173361Y776057D1*
X1173757Y773065D1*
X1174269Y770073D1*
X1175051Y767081D1*
X1175944Y764089D1*
X1176867Y761097D1*
X1177969Y758105D1*
X1179245Y755113D1*
X1180548Y752121D1*
X1181718Y749129D1*
X1182767Y746137D1*
X1183921Y743145D1*
X1185229Y740153D1*
X1186633Y737161D1*
X1188093Y734169D1*
X1189572Y731177D1*
X1191065Y728185D1*
X1192557Y725193D1*
X1194055Y722201D1*
X1195548Y719209D1*
X1197037Y716217D1*
X1198453Y713225D1*
X1199699Y710233D1*
X1200785Y707241D1*
X778913Y791017D2*
X779451Y788025D1*
X781557Y785033D1*
X786285Y782041D1*
X791568Y779049D1*
X796865Y776057D1*
X784897Y791017D2*
X793873Y788025D1*
X802849Y785033D1*
X1039217D2*
Y782041D1*
Y779049D1*
Y776057D1*
Y773065D1*
Y770073D1*
X1045201Y785033D2*
Y782041D1*
Y779049D1*
Y776057D1*
Y773065D1*
Y770073D1*
X1185825Y755113D2*
X1182833Y752121D1*
X1185825Y755113D2*
X1188817Y752121D1*
X1185825Y749129D2*
X1186290Y746137D1*
X1187057Y743145D1*
X1187955Y740153D1*
X1188817Y737161D1*
X1191809Y746137D2*
X1192859Y743145D1*
X1193876Y740153D1*
X1194801Y737161D1*
X1188817Y734169D2*
X1191809Y731177D1*
X1194801Y728185D1*
Y734169D2*
X1197793Y731177D1*
X1200785Y728185D1*
Y725193D2*
X1197793Y722201D1*
X1200785Y725193D2*
X1203777Y722201D1*
Y719209D2*
X1200785Y716217D1*
X1203777Y719209D2*
X1206769Y716217D1*
X1072129Y680313D2*
X1069137Y677321D1*
X1075121Y680313D2*
X1075583Y677321D1*
X1076325Y674329D1*
X1077123Y671337D1*
X1077858Y668345D1*
X1078910Y665353D1*
X1080575Y662361D1*
X1082555Y659369D1*
X1084450Y656377D1*
X1086251Y653385D1*
X1088108Y650393D1*
X1090081Y647401D1*
X1096065Y650393D2*
X1096179Y647401D1*
X1096574Y644409D1*
X1097408Y641417D1*
X1098674Y638425D1*
X1100410Y635433D1*
X1102667Y632441D1*
X1105280Y629449D1*
X1108033Y626457D1*
X787186Y1545040D2*
X785794Y1542048D1*
X784829Y1539056D1*
X784013Y1536064D1*
X783103Y1533072D1*
X782235Y1530080D1*
X781438Y1527088D1*
X780491Y1524096D1*
X777152Y1521104D1*
X772163Y1518112D1*
X766242Y1515120D1*
X817106Y1545040D2*
X818499Y1542048D1*
X819464Y1539056D1*
X820280Y1536064D1*
X821189Y1533072D1*
X822058Y1530080D1*
X822855Y1527088D1*
X823802Y1524096D1*
X827141Y1521104D1*
X832130Y1518112D1*
X838050Y1515120D1*
X730338Y1527088D2*
X727346Y1524096D1*
X724354Y1521104D1*
X721374Y1518112D1*
X718499Y1515120D1*
X716017Y1512128D1*
X713993Y1509136D1*
X713422Y1506144D1*
X714352Y1503152D1*
X715818Y1500160D1*
X717541Y1497168D1*
X719517Y1494176D1*
X721776Y1491184D1*
X723957Y1488192D1*
X725583Y1485200D1*
X726692Y1482208D1*
X726570Y1479216D1*
X725903Y1476224D1*
X724812Y1473232D1*
X723425Y1470240D1*
X721801Y1467248D1*
X717379Y1464256D1*
X710370Y1461264D1*
X702210Y1458272D1*
X695668Y1455280D1*
X690999Y1452288D1*
X689641Y1449296D1*
X688939Y1446304D1*
X688636Y1443312D1*
X688517Y1440320D1*
X688473Y1437328D1*
X688481Y1434336D1*
X688757Y1431344D1*
X689456Y1428352D1*
X693936Y1425360D1*
X700771Y1422368D1*
X708277Y1419376D1*
X714328Y1416384D1*
X718452Y1413392D1*
X721218Y1410400D1*
X723253Y1407408D1*
X724847Y1404416D1*
X725917Y1401424D1*
X726475Y1398432D1*
X725456Y1395440D1*
X723944Y1392448D1*
X722203Y1389456D1*
X720220Y1386464D1*
X717958Y1383472D1*
X715788Y1380480D1*
X713937Y1377488D1*
X713403Y1374496D1*
X714457Y1371504D1*
X716313Y1368512D1*
X718754Y1365520D1*
X721510Y1362528D1*
X724408Y1359536D1*
X727364Y1356544D1*
X730338Y1353552D1*
X736322Y1527088D2*
X741160Y1524096D1*
X745782Y1521104D1*
X750129Y1518112D1*
X754274Y1515120D1*
X867970Y1527088D2*
X863133Y1524096D1*
X858511Y1521104D1*
X854164Y1518112D1*
X850018Y1515120D1*
X873954Y1527088D2*
X876946Y1524096D1*
X879938Y1521104D1*
X882919Y1518112D1*
X885794Y1515120D1*
X888276Y1512128D1*
X890299Y1509136D1*
X890871Y1506144D1*
X889941Y1503152D1*
X888475Y1500160D1*
X886752Y1497168D1*
X884776Y1494176D1*
X882517Y1491184D1*
X880336Y1488192D1*
X878709Y1485200D1*
X877601Y1482208D1*
X877722Y1479216D1*
X878390Y1476224D1*
X879481Y1473232D1*
X880867Y1470240D1*
X882491Y1467248D1*
X886914Y1464256D1*
X893923Y1461264D1*
X902082Y1458272D1*
X908624Y1455280D1*
X913293Y1452288D1*
X914651Y1449296D1*
X915353Y1446304D1*
X915657Y1443312D1*
X915776Y1440320D1*
X915819Y1437328D1*
X915811Y1434336D1*
X915536Y1431344D1*
X914837Y1428352D1*
X910357Y1425360D1*
X903521Y1422368D1*
X896015Y1419376D1*
X889965Y1416384D1*
X885841Y1413392D1*
X883075Y1410400D1*
X881040Y1407408D1*
X879445Y1404416D1*
X878376Y1401424D1*
X877818Y1398432D1*
X878837Y1395440D1*
X880348Y1392448D1*
X882090Y1389456D1*
X884073Y1386464D1*
X886335Y1383472D1*
X888505Y1380480D1*
X890356Y1377488D1*
X890889Y1374496D1*
X889836Y1371504D1*
X887980Y1368512D1*
X885539Y1365520D1*
X882783Y1362528D1*
X879885Y1359536D1*
X876929Y1356544D1*
X873954Y1353552D1*
X796162Y1470240D2*
X790766Y1467248D1*
X786025Y1464256D1*
X782042Y1461264D1*
X778681Y1458272D1*
X775977Y1455280D1*
X774105Y1452288D1*
X772958Y1449296D1*
X772089Y1446304D1*
X771263Y1443312D1*
X770792Y1440320D1*
X770966Y1437328D1*
X771562Y1434336D1*
X772451Y1431344D1*
X773889Y1428352D1*
X775977Y1425360D1*
X778526Y1422368D1*
X781313Y1419376D1*
X784099Y1416384D1*
X786459Y1413392D1*
X788258Y1410400D1*
X788124Y1407408D1*
X787371Y1404416D1*
X786218Y1401424D1*
X784870Y1398432D1*
X783524Y1395440D1*
X782332Y1392448D1*
X781274Y1389456D1*
X780116Y1386464D1*
X778807Y1383472D1*
X777403Y1380480D1*
X775954Y1377488D1*
X774568Y1374496D1*
X773354Y1371504D1*
X772220Y1368512D1*
X770842Y1365520D1*
X769234Y1362528D1*
X808130Y1470240D2*
X813526Y1467248D1*
X818268Y1464256D1*
X822251Y1461264D1*
X825612Y1458272D1*
X828316Y1455280D1*
X830188Y1452288D1*
X831335Y1449296D1*
X832204Y1446304D1*
X833030Y1443312D1*
X833501Y1440320D1*
X833326Y1437328D1*
X832731Y1434336D1*
X831842Y1431344D1*
X830404Y1428352D1*
X828315Y1425360D1*
X825767Y1422368D1*
X822980Y1419376D1*
X820194Y1416384D1*
X817834Y1413392D1*
X816035Y1410400D1*
X816169Y1407408D1*
X816922Y1404416D1*
X818075Y1401424D1*
X819422Y1398432D1*
X820769Y1395440D1*
X821961Y1392448D1*
X823019Y1389456D1*
X824177Y1386464D1*
X825486Y1383472D1*
X826890Y1380480D1*
X828339Y1377488D1*
X829724Y1374496D1*
X830938Y1371504D1*
X832073Y1368512D1*
X833451Y1365520D1*
X835058Y1362528D1*
X757266Y1368512D2*
X753800Y1365520D1*
X749952Y1362528D1*
X745715Y1359536D1*
X741131Y1356544D1*
X736322Y1353552D1*
X754274Y1368512D2*
X760258Y1365520D1*
X766242Y1362528D1*
X850018Y1368512D2*
X844034Y1365520D1*
X838050Y1362528D1*
X847026Y1368512D2*
X850492Y1365520D1*
X854341Y1362528D1*
X858577Y1359536D1*
X863162Y1356544D1*
X867970Y1353552D1*
X664514Y1329616D2*
X663133Y1326624D1*
X662274Y1323632D1*
X661839Y1320640D1*
X661646Y1317648D1*
X661568Y1314656D1*
X661539Y1311664D1*
X661528Y1308672D1*
X661524Y1305680D1*
X661523Y1302688D1*
X661522Y1299696D1*
X676482Y1329616D2*
X679474Y1326624D1*
X688450Y1329616D2*
X685458Y1326624D1*
X700418Y1329616D2*
X703410Y1326624D1*
X709394Y1329616D2*
Y1326624D1*
X727346Y1329616D2*
Y1326624D1*
Y1323632D1*
Y1320640D1*
Y1317648D1*
Y1314656D1*
Y1311664D1*
Y1308672D1*
Y1305680D1*
Y1302688D1*
Y1299696D1*
X733330Y1329616D2*
Y1326624D1*
Y1323632D1*
Y1320640D1*
Y1317648D1*
Y1314656D1*
Y1311664D1*
Y1308672D1*
Y1305680D1*
Y1302688D1*
Y1299696D1*
X739314Y1329616D2*
Y1326624D1*
Y1323632D1*
X739326Y1320640D1*
X739440Y1317648D1*
X739902Y1314656D1*
X740925Y1311664D1*
X742306Y1308672D1*
X754274Y1329616D2*
Y1326624D1*
X754263Y1323632D1*
X754158Y1320640D1*
X753774Y1317648D1*
X753032Y1314656D1*
X752142Y1311664D1*
X751282Y1308672D1*
X757266Y1329616D2*
Y1326624D1*
Y1323632D1*
Y1320640D1*
Y1317648D1*
Y1314656D1*
X757243Y1311664D1*
X757015Y1308672D1*
X756472Y1305680D1*
X754140Y1302688D1*
X751282Y1299696D1*
X769234Y1329616D2*
X767391Y1326624D1*
X765790Y1323632D1*
X764580Y1320640D1*
X763875Y1317648D1*
X763624Y1314656D1*
X763872Y1311664D1*
X764754Y1308672D1*
X766429Y1305680D1*
X769034Y1302688D1*
X772226Y1299696D1*
X781202Y1329616D2*
X783965Y1326624D1*
X786010Y1323632D1*
X786635Y1320640D1*
X786959Y1317648D1*
X787088Y1314656D1*
X787027Y1311664D1*
X786550Y1308672D1*
X785353Y1305680D1*
X783442Y1302688D1*
X781202Y1299696D1*
X796162Y1329616D2*
X794953Y1326624D1*
X794939Y1323632D1*
X794950Y1320640D1*
X794578Y1317648D1*
X794014Y1314656D1*
X793614Y1311664D1*
X793607Y1308672D1*
X794013Y1305680D1*
X796317Y1302688D1*
X799154Y1299696D1*
X811122Y1329616D2*
X813515Y1326624D1*
X815502Y1323632D1*
X816071Y1320640D1*
X815040Y1317648D1*
X813265Y1314656D1*
X811122Y1311664D1*
X813472Y1308672D1*
X815517Y1305680D1*
X813583Y1302688D1*
X811122Y1299696D1*
X838050Y1329616D2*
X836669Y1326624D1*
X835810Y1323632D1*
X835375Y1320640D1*
X835182Y1317648D1*
X835104Y1314656D1*
X835075Y1311664D1*
X835064Y1308672D1*
X835060Y1305680D1*
X835059Y1302688D1*
X835058Y1299696D1*
X858994Y1329616D2*
Y1326624D1*
Y1323632D1*
Y1320640D1*
Y1317648D1*
Y1314656D1*
Y1311664D1*
Y1308672D1*
Y1305680D1*
Y1302688D1*
Y1299696D1*
X870962Y1329616D2*
X868558Y1326624D1*
X866809Y1323632D1*
X865818Y1320640D1*
X865446Y1317648D1*
X865698Y1314656D1*
X866635Y1311664D1*
X867970Y1308672D1*
X866521Y1305680D1*
X868482Y1302688D1*
X870962Y1299696D1*
X882930Y1329616D2*
X884520Y1326624D1*
X885922Y1323632D1*
X897890Y1329616D2*
X896301Y1326624D1*
X894898Y1323632D1*
X915842Y1329616D2*
Y1326624D1*
Y1323632D1*
Y1320640D1*
Y1317648D1*
Y1314656D1*
Y1311664D1*
Y1308672D1*
Y1305680D1*
Y1302688D1*
Y1299696D1*
Y1296704D1*
Y1293712D1*
Y1290720D1*
Y1287728D1*
Y1284736D1*
Y1281744D1*
Y1278752D1*
Y1275760D1*
Y1272768D1*
Y1269776D1*
Y1266784D1*
Y1263792D1*
Y1260800D1*
Y1257808D1*
X927810Y1329616D2*
X925967Y1326624D1*
X924366Y1323632D1*
X923156Y1320640D1*
X922451Y1317648D1*
X922200Y1314656D1*
X922448Y1311664D1*
X923330Y1308672D1*
X925005Y1305680D1*
X927610Y1302688D1*
X930802Y1299696D1*
X939778Y1329616D2*
X941160Y1326624D1*
X942019Y1323632D1*
X942454Y1320640D1*
X942647Y1317648D1*
X942725Y1314656D1*
X942743Y1311664D1*
X942639Y1308672D1*
X942181Y1305680D1*
X941159Y1302688D1*
X939778Y1299696D1*
X667506Y1323632D2*
X664514Y1320640D1*
X670498Y1323632D2*
X673490Y1320640D1*
X682466Y1323632D2*
X682490Y1320640D1*
X682718Y1317648D1*
X683261Y1314656D1*
X685593Y1311664D1*
X688450Y1308672D1*
X685458Y1323632D2*
X688450Y1320640D1*
X700418Y1323632D2*
X700968Y1320640D1*
X702018Y1317648D1*
X703410Y1314656D1*
X701821Y1311664D1*
X700418Y1308672D1*
X706402Y1323632D2*
X706952Y1320640D1*
X708002Y1317648D1*
X709394Y1314656D1*
X707888Y1311664D1*
X706529Y1308672D1*
X704888Y1305680D1*
X702775Y1302688D1*
X700418Y1299696D1*
X721362Y1323632D2*
Y1320640D1*
Y1317648D1*
Y1314656D1*
Y1311664D1*
Y1308672D1*
Y1305680D1*
Y1302688D1*
Y1299696D1*
X775218Y1323632D2*
X772826Y1320640D1*
X770839Y1317648D1*
X770257Y1314656D1*
X771063Y1311664D1*
X772226Y1308672D1*
X781202Y1323632D2*
X781752Y1320640D1*
X782802Y1317648D1*
X784194Y1314656D1*
X782605Y1311664D1*
X781202Y1308672D1*
X808130Y1323632D2*
X811122Y1320640D1*
X841042Y1323632D2*
Y1320640D1*
Y1317648D1*
Y1314656D1*
Y1311664D1*
Y1308672D1*
Y1305680D1*
Y1302688D1*
Y1299696D1*
X847026Y1323632D2*
X849430Y1320640D1*
X851180Y1317648D1*
X852182Y1314656D1*
X852668Y1311664D1*
X852878Y1308672D1*
X852962Y1305680D1*
X852994Y1302688D1*
X853010Y1299696D1*
X873954Y1323632D2*
X870962Y1320640D1*
X879938Y1323632D2*
X882930Y1320640D1*
X903874Y1323632D2*
X901482Y1320640D1*
X899495Y1317648D1*
X898913Y1314656D1*
X899719Y1311664D1*
X900882Y1308672D1*
X909858Y1323632D2*
Y1320640D1*
Y1317648D1*
Y1314656D1*
Y1311664D1*
Y1308672D1*
X933794Y1323632D2*
X931402Y1320640D1*
X929415Y1317648D1*
X928833Y1314656D1*
X929639Y1311664D1*
X930802Y1308672D1*
X939778Y1323632D2*
X940328Y1320640D1*
X941378Y1317648D1*
X942770Y1314656D1*
X941181Y1311664D1*
X939778Y1308672D1*
X670498Y1311664D2*
X673490Y1308672D1*
X802146Y1311664D2*
X799154Y1308672D1*
X811122D2*
X873954Y1311664D2*
X870962Y1308672D1*
X876946Y1311664D2*
X879938Y1308672D1*
X885922D2*
X885151Y1305680D1*
X882805Y1302688D1*
X879938Y1299696D1*
X894898Y1308672D2*
X895436Y1305680D1*
X897496Y1302688D1*
X901586Y1299696D1*
X905291Y1296704D1*
X908123Y1293712D1*
X909038Y1290720D1*
X909519Y1287728D1*
X909736Y1284736D1*
X909858Y1281744D1*
X894898D1*
X893875Y1278752D1*
X892977Y1275760D1*
X892364Y1272768D1*
X891906Y1269776D1*
X685458Y1305680D2*
X679474Y1302688D1*
X673490Y1299696D1*
X682466Y1305680D2*
X685458Y1302688D1*
X688450Y1299696D1*
X814114Y1293712D2*
Y1290720D1*
Y1287728D1*
Y1284736D1*
Y1281744D1*
Y1278752D1*
Y1275760D1*
Y1272768D1*
Y1269776D1*
Y1266784D1*
Y1263792D1*
Y1260800D1*
Y1257808D1*
X820098Y1293712D2*
X818717Y1290720D1*
X817855Y1287728D1*
X817398Y1284736D1*
X817106Y1281744D1*
X694434D2*
X693053Y1278752D1*
X692194Y1275760D1*
X691758Y1272768D1*
X691558Y1269776D1*
X691442Y1266784D1*
X709394Y1263792D1*
X703410Y1260800D1*
X709394Y1281744D2*
X715378D2*
X736322D2*
Y1278752D1*
Y1275760D1*
Y1272768D1*
Y1269776D1*
Y1266784D1*
Y1263792D1*
Y1260800D1*
Y1257808D1*
X745298Y1281744D2*
X743917Y1278752D1*
X743058Y1275760D1*
X742623Y1272768D1*
X742430Y1269776D1*
X742352Y1266784D1*
X742323Y1263792D1*
X742312Y1260800D1*
X742306Y1257808D1*
X775218Y1281744D2*
Y1278752D1*
Y1275760D1*
Y1272768D1*
X784194Y1281744D2*
X783644Y1278752D1*
X782594Y1275760D1*
X781202Y1272768D1*
X790178Y1281744D2*
X791570Y1278752D1*
X792495Y1275760D1*
X793170Y1272768D1*
X802146Y1281744D2*
X801596Y1278752D1*
X800546Y1275760D1*
X799154Y1272768D1*
X808130Y1281744D2*
X808016Y1278752D1*
X807633Y1275760D1*
X806904Y1272768D1*
X806032Y1269776D1*
X805126Y1266784D1*
X804106Y1263792D1*
X803084Y1260800D1*
X802146Y1257808D1*
X856002Y1281744D2*
Y1278752D1*
Y1275760D1*
Y1272768D1*
Y1269776D1*
Y1266784D1*
Y1263792D1*
Y1260800D1*
Y1257808D1*
X867970Y1281744D2*
X866589Y1278752D1*
X865730Y1275760D1*
X865295Y1272768D1*
X865102Y1269776D1*
X865024Y1266784D1*
X864995Y1263792D1*
X864984Y1260800D1*
X864978Y1257808D1*
X885922Y1281744D2*
X884520Y1278752D1*
X882930Y1275760D1*
X766242Y1281744D2*
X763250Y1278752D1*
X760258Y1275760D1*
X769234Y1281744D2*
X769348Y1278752D1*
X769732Y1275760D1*
X770461Y1272768D1*
X771333Y1269776D1*
X772239Y1266784D1*
X773258Y1263792D1*
X774281Y1260800D1*
X775218Y1257808D1*
X703410Y1278752D2*
X700418Y1275760D1*
X697426Y1272768D1*
X703410Y1278752D2*
X706402Y1275760D1*
X709394Y1272768D1*
Y1278752D2*
X711798Y1275760D1*
X713537Y1272768D1*
X714706Y1269776D1*
X714604Y1266784D1*
X714021Y1263792D1*
X713204Y1260800D1*
X712386Y1257808D1*
X706402Y1278752D2*
X716018Y1275760D1*
X724109Y1272768D1*
X727834Y1269776D1*
X729172Y1266784D1*
X729862Y1263792D1*
X730168Y1260800D1*
X730338Y1257808D1*
X754274Y1278752D2*
X751282Y1275760D1*
X748290Y1272768D1*
X756219Y1269776D1*
X762333Y1266784D1*
X764741Y1263792D1*
X765611Y1260800D1*
X766242Y1257808D1*
X754274Y1278752D2*
X757266Y1275760D1*
X832066Y1278752D2*
X834470Y1275760D1*
X836209Y1272768D1*
X837378Y1269776D1*
X837276Y1266784D1*
X836693Y1263792D1*
X835876Y1260800D1*
X835058Y1257808D1*
X832066Y1278752D2*
X839741Y1275760D1*
X845732Y1272768D1*
X850198Y1269776D1*
X851666Y1266784D1*
X852447Y1263792D1*
X852806Y1260800D1*
X853010Y1257808D1*
X870962Y1278752D2*
Y1275760D1*
Y1272768D1*
X885922Y1269776D1*
X876946Y1278752D2*
X879938Y1275760D1*
X820098D2*
Y1272768D1*
Y1269776D1*
Y1266784D1*
Y1263792D1*
X826082Y1275760D2*
X828364Y1272768D1*
X830115Y1269776D1*
X829821Y1266784D1*
X829074Y1263792D1*
X903874Y1275760D2*
X901470Y1272768D1*
X899721Y1269776D1*
X898719Y1266784D1*
X898232Y1263792D1*
X898014Y1260800D1*
X897890Y1257808D1*
X909858Y1275760D2*
Y1272768D1*
Y1269776D1*
Y1266784D1*
Y1263792D1*
Y1260800D1*
Y1257808D1*
X745298Y1266784D2*
X748290Y1263792D1*
X751282Y1260800D1*
X763250Y1266784D2*
X760258Y1263792D1*
X757266Y1260800D1*
X784194Y1266784D2*
Y1263792D1*
Y1260800D1*
Y1257808D1*
X787186Y1266784D2*
X789628Y1263792D1*
X791570Y1260800D1*
X793170Y1257808D1*
X870962Y1266784D2*
Y1263792D1*
Y1260800D1*
X885922Y1266784D2*
X882930Y1263792D1*
X879938Y1260800D1*
X691442D2*
Y1257808D1*
X697426Y1260800D2*
X629188Y586137D2*
D86*
X625385Y588039D1*
X621538Y591885D1*
X619637Y595688D1*
Y603337D1*
X621538Y607184D1*
X625385Y610986D1*
X629188Y612932D1*
X634936Y614833D1*
X644530D1*
X650234Y612932D1*
X654081Y610986D1*
X657884Y607184D1*
X659829Y603337D1*
Y595688D1*
X657884Y591885D1*
X654081Y588038D1*
X650234Y586137D1*
X627331Y573786D2*
X625385Y569939D1*
X619681Y564191D1*
X659829D1*
X1022559Y517663D2*
X1024460Y521466D1*
X1028307Y525313D1*
X1032109Y527214D1*
X1039758D1*
X1043605Y525313D1*
X1047408Y521466D1*
X1049353Y517663D1*
X1051255Y511915D1*
Y502320D1*
X1049353Y496617D1*
X1047408Y492770D1*
X1043605Y488967D1*
X1039758Y487022D1*
X1032109D1*
X1028307Y488967D1*
X1024460Y492770D1*
X1022559Y496617D1*
X1008262Y517619D2*
Y519520D1*
X1006360Y523367D1*
X1004459Y525268D1*
X1000612Y527170D1*
X992963D1*
X989161Y525268D1*
X987259Y523367D1*
X985314Y519520D1*
Y515718D1*
X987259Y511871D1*
X991062Y506167D1*
X1010207Y487022D1*
X983413D1*
X1022538Y641285D2*
X1024439Y645088D1*
X1028286Y648935D1*
X1032088Y650836D1*
X1039737D1*
X1043584Y648935D1*
X1047387Y645088D1*
X1049332Y641285D1*
X1051234Y635537D1*
Y625942D1*
X1049332Y620239D1*
X1047387Y616392D1*
X1043584Y612589D1*
X1039737Y610644D1*
X1032088D1*
X1028286Y612589D1*
X1024439Y616392D1*
X1022538Y620239D1*
X1006339Y650792D2*
X985337D1*
X996789Y635493D1*
X991041D1*
X987238Y633592D1*
X985337Y631691D1*
X983392Y625942D1*
Y622140D1*
X985337Y616392D1*
X989140Y612545D1*
X994888Y610644D1*
X1000636D1*
X1006339Y612545D1*
X1008241Y614491D1*
X1010186Y618293D1*
X1107797Y1511830D2*
X1103994Y1513731D1*
X1100147Y1517578D1*
X1098246Y1521380D1*
Y1529029D1*
X1100147Y1532876D1*
X1103994Y1536679D1*
X1107797Y1538624D1*
X1113545Y1540525D1*
X1123139D1*
X1128843Y1538624D1*
X1132690Y1536679D1*
X1136492Y1532876D1*
X1138438Y1529029D1*
Y1521380D1*
X1136492Y1517578D1*
X1132690Y1513731D1*
X1128843Y1511829D1*
X1138438Y1480333D2*
X1098290D1*
X1125041Y1499478D1*
Y1470782D1*
X587455Y1554448D2*
X583653Y1556350D1*
X579806Y1560196D1*
X577905Y1563999D1*
Y1571648D1*
X579806Y1575495D1*
X583653Y1579298D1*
X587455Y1581243D1*
X593203Y1583144D1*
X602798D1*
X608502Y1581243D1*
X612349Y1579298D1*
X616151Y1575495D1*
X618097Y1571648D1*
Y1563999D1*
X616151Y1560196D1*
X612349Y1556350D1*
X608502Y1554448D1*
X577949Y1519149D2*
Y1538250D1*
X595149Y1540152D1*
X593248Y1538250D1*
X591302Y1532502D1*
Y1526798D1*
X593248Y1521050D1*
X597050Y1517204D1*
X602798Y1515302D1*
X606601D1*
X612349Y1517204D1*
X616195Y1521050D1*
X618097Y1526798D1*
Y1532502D1*
X616195Y1538250D1*
X614250Y1540152D1*
X610447Y1542097D1*
X1109637Y1868127D2*
X1113439Y1866270D1*
X1117286Y1862423D1*
X1119187Y1858577D1*
X1121133Y1852829D1*
Y1843278D1*
X1119187Y1837530D1*
X1117286Y1833727D1*
X1113439Y1829881D1*
X1109637Y1827979D1*
X1101987D1*
X1098140Y1829881D1*
X1094338Y1833727D1*
X1092437Y1837530D1*
X1090491Y1843278D1*
Y1852829D1*
X1092437Y1858577D1*
X1094338Y1862423D1*
X1098140Y1866270D1*
X1101987Y1868127D1*
X1109637D1*
X1103889Y1835629D2*
X1092437Y1824133D1*
X1078140Y1860434D2*
X1074293Y1862379D1*
X1068545Y1868083D1*
Y1827935D1*
X933677Y1851230D2*
X937480Y1849373D1*
X941327Y1845526D1*
X943228Y1841679D1*
X945173Y1835931D1*
Y1826380D1*
X943228Y1820632D1*
X941327Y1816830D1*
X937480Y1812983D1*
X933677Y1811082D1*
X926028D1*
X922181Y1812983D1*
X918379Y1816830D1*
X916478Y1820632D1*
X914532Y1826380D1*
Y1835931D1*
X916478Y1841679D1*
X918379Y1845526D1*
X922181Y1849373D1*
X926028Y1851230D1*
X933677D1*
X927929Y1818731D2*
X916478Y1807235D1*
X900235Y1841635D2*
Y1843536D1*
X898334Y1847383D1*
X896433Y1849284D1*
X892586Y1851185D1*
X884937D1*
X881134Y1849284D1*
X879233Y1847383D1*
X877287Y1843536D1*
Y1839734D1*
X879233Y1835887D1*
X883035Y1830183D1*
X902181Y1811038D1*
X875386D1*
X477389Y604033D2*
X460189D1*
X454441Y605979D1*
X452496Y607880D1*
X450594Y611683D1*
Y615529D1*
X452496Y619332D1*
X454441Y621277D1*
X460189Y623179D1*
X477389D1*
Y582987D1*
X463992Y604033D2*
X450594Y582987D1*
X438243Y615485D2*
X434396Y617431D1*
X428648Y623134D1*
Y582987D1*
X487733Y733233D2*
Y716033D1*
X485787Y710285D1*
X483886Y708340D1*
X480083Y706438D1*
X476236D1*
X472434Y708340D1*
X470488Y710285D1*
X468587Y716033D1*
Y733233D1*
X508779D1*
X487733Y719836D2*
X508779Y706438D1*
X478182Y692142D2*
X476281D1*
X472434Y690240D1*
X470533Y688339D1*
X468631Y684492D1*
Y676843D1*
X470533Y673040D1*
X472434Y671139D1*
X476281Y669194D1*
X480083D1*
X483930Y671139D1*
X489634Y674942D1*
X508779Y694087D1*
Y667292D1*
X512667Y1769748D2*
Y1752548D1*
X510721Y1746800D1*
X508820Y1744855D1*
X505018Y1742953D1*
X501171D1*
X497368Y1744855D1*
X495423Y1746800D1*
X493522Y1752548D1*
Y1769748D1*
X533714D1*
X512667Y1756351D2*
X533714Y1742953D1*
Y1711457D2*
X493566D1*
X520316Y1730602D1*
Y1701906D1*
X989176Y1366435D2*
Y1349235D1*
X987231Y1343487D1*
X985329Y1341542D1*
X981527Y1339641D1*
X977680D1*
X973877Y1341542D1*
X971932Y1343487D1*
X970031Y1349235D1*
Y1366435D1*
X1010223D1*
X989176Y1353038D2*
X1010223Y1339640D1*
Y1319640D2*
X970075Y1300495D1*
Y1327289D1*
X1121197Y1365757D2*
Y1348557D1*
X1119252Y1342809D1*
X1117350Y1340864D1*
X1113548Y1338962D1*
X1109701D1*
X1105898Y1340864D1*
X1103953Y1342809D1*
X1102052Y1348557D1*
Y1365757D1*
X1142244D1*
X1121197Y1352360D2*
X1142244Y1338962D1*
X1102096Y1317060D2*
X1103997Y1322764D1*
X1107800Y1324710D1*
X1111647D1*
X1115449Y1322764D1*
X1117395Y1318962D1*
X1119296Y1311312D1*
X1121197Y1305564D1*
X1125044Y1301762D1*
X1128846Y1299860D1*
X1134594D1*
X1138397Y1301762D1*
X1140342Y1303663D1*
X1142244Y1309411D1*
Y1317060D1*
X1140342Y1322764D1*
X1138397Y1324710D1*
X1134594Y1326611D1*
X1128846D1*
X1125044Y1324710D1*
X1121197Y1320863D1*
X1119296Y1315159D1*
X1117395Y1307510D1*
X1115449Y1303663D1*
X1111646Y1301762D1*
X1107800D1*
X1103997Y1303663D1*
X1102096Y1309411D1*
Y1317060D1*
X987601Y1533201D2*
Y1516001D1*
X985656Y1510253D1*
X983755Y1508308D1*
X979952Y1506406D1*
X976105D1*
X972303Y1508308D1*
X970357Y1510253D1*
X968456Y1516001D1*
Y1533201D1*
X1008648D1*
X987601Y1519804D2*
X1008648Y1506406D1*
X981853Y1469162D2*
X987601Y1471107D1*
X991448Y1474910D1*
X993349Y1480658D1*
Y1482559D1*
X991448Y1488307D1*
X987601Y1492110D1*
X981853Y1494055D1*
X979952D1*
X974204Y1492110D1*
X970401Y1488307D1*
X968500Y1482559D1*
Y1480658D1*
X970401Y1474910D1*
X974204Y1471107D1*
X981853Y1469162D1*
X991448D1*
X1000999Y1471107D1*
X1006747Y1474910D1*
X1008648Y1480658D1*
Y1484460D1*
X1006747Y1490208D1*
X1002900Y1492110D1*
X1203874Y1769333D2*
Y1752133D1*
X1201929Y1746385D1*
X1200028Y1744440D1*
X1196225Y1742539D1*
X1192378D1*
X1188576Y1744440D1*
X1186630Y1746385D1*
X1184729Y1752133D1*
Y1769333D1*
X1224921D1*
X1203874Y1755936D2*
X1224921Y1742539D1*
X1192422Y1730187D2*
X1190477Y1726341D1*
X1184773Y1720592D1*
X1224921D1*
X1192422Y1708241D2*
X1190477Y1704394D1*
X1184773Y1698646D1*
X1224921D1*
X1174466Y577104D2*
X1170620Y580906D1*
X1168718Y586654D1*
Y594303D1*
X1170620Y600052D1*
X1174466Y603898D1*
X1178269D1*
X1182116Y601953D1*
X1184017Y600051D1*
X1185918Y596249D1*
X1189765Y584753D1*
X1191666Y580906D1*
X1193612Y579005D1*
X1197414Y577104D1*
X1203162D1*
X1206965Y580906D1*
X1208910Y586654D1*
Y594303D1*
X1206965Y600051D1*
X1203162Y603898D1*
X1176412Y564752D2*
X1174466Y560906D1*
X1168763Y555157D1*
X1208910D1*
M02*
