M48
INCH
T01C0.0157
T02C0.0354
%
T01
X+011049Y+005727
X+011465Y+005744
X+009291Y+007835
X+008819Y+007795
X+007402Y+008268
X+006261Y+007937
X+006260Y+007362
X+006370Y+006945
X+006388Y+006407
X+008345Y+005677
X+008353Y+005240
X+004388Y+005273
X+004395Y+005680
X+006339Y+009488
X+005226Y+010001
X+005207Y+010843
X+006786Y+011436
X+007126Y+012449
X+006382Y+012936
X+007362Y+015866
X+009210Y+016538
X+009572Y+015400
X+009315Y+014406
X+009936Y+012937
X+011365Y+012954
X+011222Y+013951
X+011203Y+014360
X+011864Y+016302
X+013682Y+016623
X+012205Y+018504
X+011417Y+018504
X+010630Y+018504
X+009843Y+018504
X+009596Y+017793
X+009055Y+018504
X+008268Y+018504
X+007480Y+018504
X+006693Y+018504
X+006718Y+017743
X+007087Y+019291
X+006299Y+019291
X+006299Y+020079
X+005512Y+020079
X+005512Y+020866
X+005512Y+021654
X+005512Y+022441
X+006299Y+022441
X+007087Y+022441
X+007087Y+021654
X+007087Y+020866
X+007874Y+020866
X+008661Y+020866
X+008661Y+020079
X+007874Y+020079
X+007087Y+020079
X+006299Y+020866
X+006299Y+021654
X+005173Y+018846
X+009843Y+020866
X+010630Y+020866
X+011417Y+020866
X+011417Y+021654
X+011417Y+022441
X+012205Y+022441
X+012992Y+022441
X+012992Y+021654
X+012205Y+021654
X+012205Y+020866
X+012992Y+020866
X+012992Y+020079
X+012205Y+020079
X+011417Y+020079
X+011417Y+019291
X+012205Y+019291
X+010630Y+020079
X+012075Y+012224
X+012155Y+011311
X+013413Y+010874
X+012219Y+009932
T02
X+004720Y+017327
X+004720Y+018327
X+004720Y+019327
X+004720Y+020327
X+004720Y+021327
X+004722Y+015327
X+004722Y+014327
X+004722Y+013327
X+004722Y+012327
X+004722Y+011327
X+004722Y+010327
X+004722Y+009327
X+004722Y+008327
X+013720Y+008325
X+013720Y+009325
X+013720Y+010325
X+013720Y+011325
X+013720Y+012325
X+013720Y+013325
X+013720Y+014325
X+013720Y+015325
X+013848Y+007134
X+013848Y+004457
T00
M30
