G04 DipTrace 3.0.0.1*
G04 TopAssy.gbr*
%MOIN*%
G04 #@! TF.FileFunction,Drawing,Top*
G04 #@! TF.Part,Single*
%ADD10C,0.01*%
%ADD25C,0.000131*%
%ADD87C,0.003088*%
%FSLAX26Y26*%
G04*
G70*
G90*
G75*
G01*
G04 TopAssy*
%LPD*%
X551755Y390486D2*
D10*
X707286D1*
X738778D2*
X893291D1*
X551755Y447563D2*
Y390486D1*
Y447563D2*
G03X520264Y447563I-15746J13D01*
G01*
Y390486D1*
X371642D2*
X520264D1*
X707286Y447563D2*
Y390486D1*
Y447563D2*
G02X738778Y447563I15746J13D01*
G01*
Y390486D1*
X581365Y1244882D2*
D25*
G02X581365Y1244882I131234J0D01*
G01*
X390752Y346786D2*
D87*
X378327D1*
Y326690D1*
X390752D1*
X378327Y337213D2*
X385976D1*
X396927Y346786D2*
Y326690D1*
X403626D1*
X406500Y327662D1*
X408423Y329564D1*
X409374Y331487D1*
X410325Y334339D1*
Y339136D1*
X409374Y342010D1*
X408423Y343912D1*
X406500Y345835D1*
X403626Y346786D1*
X396927D1*
X430848Y342010D2*
X429898Y343912D1*
X427974Y345835D1*
X426073Y346786D1*
X422248D1*
X420325Y345835D1*
X418424Y343912D1*
X417451Y342010D1*
X416500Y339136D1*
Y334339D1*
X417451Y331487D1*
X418424Y329564D1*
X420325Y327662D1*
X422248Y326690D1*
X426073D1*
X427974Y327662D1*
X429898Y329564D1*
X430848Y331487D1*
Y334339D1*
X426073D1*
X449449Y346786D2*
X437024D1*
Y326690D1*
X449449D1*
X437024Y337213D2*
X444673D1*
X365741Y377892D2*
Y357796D1*
X374363D1*
X377237Y358769D1*
X378188Y359719D1*
X379138Y361621D1*
Y364495D1*
X378188Y366418D1*
X377237Y367369D1*
X374363Y368319D1*
X377237Y369292D1*
X378188Y370243D1*
X379138Y372144D1*
Y374067D1*
X378188Y375969D1*
X377237Y376941D1*
X374363Y377892D1*
X365741D1*
Y368319D2*
X374363D1*
X391062Y377892D2*
X389139Y376941D1*
X387237Y375018D1*
X386265Y373117D1*
X385314Y370243D1*
Y365445D1*
X386265Y362593D1*
X387237Y360670D1*
X389139Y358769D1*
X391062Y357796D1*
X394887D1*
X396788Y358769D1*
X398711Y360670D1*
X399662Y362593D1*
X400613Y365445D1*
Y370243D1*
X399662Y373117D1*
X398711Y375018D1*
X396788Y376941D1*
X394887Y377892D1*
X391062D1*
X422109Y357796D2*
X414438Y377892D1*
X406788Y357796D1*
X409662Y364495D2*
X419235D1*
X428285Y368319D2*
X436885D1*
X439759Y369292D1*
X440731Y370243D1*
X441682Y372144D1*
Y374067D1*
X440731Y375969D1*
X439759Y376941D1*
X436885Y377892D1*
X428285D1*
Y357796D1*
X434983Y368319D2*
X441682Y357796D1*
X447858Y377892D2*
Y357796D1*
X454556D1*
X457430Y358769D1*
X459354Y360670D1*
X460304Y362593D1*
X461255Y365445D1*
Y370243D1*
X460304Y373117D1*
X459354Y375018D1*
X457430Y376941D1*
X454556Y377892D1*
X447858D1*
X827781Y346786D2*
X815356D1*
Y326690D1*
X827781D1*
X815356Y337213D2*
X823005D1*
X833956Y346786D2*
Y326690D1*
X840655D1*
X843529Y327662D1*
X845452Y329564D1*
X846403Y331487D1*
X847354Y334339D1*
Y339136D1*
X846403Y342010D1*
X845452Y343912D1*
X843529Y345835D1*
X840655Y346786D1*
X833956D1*
X867877Y342010D2*
X866927Y343912D1*
X865003Y345835D1*
X863102Y346786D1*
X859277D1*
X857354Y345835D1*
X855453Y343912D1*
X854480Y342010D1*
X853529Y339136D1*
Y334339D1*
X854480Y331487D1*
X855453Y329564D1*
X857354Y327662D1*
X859277Y326690D1*
X863102D1*
X865003Y327662D1*
X866927Y329564D1*
X867877Y331487D1*
Y334339D1*
X863102D1*
X886478Y346786D2*
X874053D1*
Y326690D1*
X886478D1*
X874053Y337213D2*
X881702D1*
X802716Y377892D2*
Y357796D1*
X811339D1*
X814213Y358769D1*
X815163Y359719D1*
X816114Y361621D1*
Y364495D1*
X815163Y366418D1*
X814213Y367369D1*
X811339Y368319D1*
X814213Y369292D1*
X815163Y370243D1*
X816114Y372144D1*
Y374067D1*
X815163Y375969D1*
X814213Y376941D1*
X811339Y377892D1*
X802716D1*
Y368319D2*
X811339D1*
X828038Y377892D2*
X826114Y376941D1*
X824213Y375018D1*
X823240Y373117D1*
X822290Y370243D1*
Y365445D1*
X823240Y362593D1*
X824213Y360670D1*
X826114Y358769D1*
X828038Y357796D1*
X831862D1*
X833763Y358769D1*
X835687Y360670D1*
X836637Y362593D1*
X837588Y365445D1*
Y370243D1*
X836637Y373117D1*
X835687Y375018D1*
X833763Y376941D1*
X831862Y377892D1*
X828038D1*
X859085Y357796D2*
X851413Y377892D1*
X843764Y357796D1*
X846638Y364495D2*
X856211D1*
X865260Y368319D2*
X873860D1*
X876734Y369292D1*
X877707Y370243D1*
X878658Y372144D1*
Y374067D1*
X877707Y375969D1*
X876734Y376941D1*
X873860Y377892D1*
X865260D1*
Y357796D1*
X871959Y368319D2*
X878658Y357796D1*
X884833Y377892D2*
Y357796D1*
X891532D1*
X894406Y358769D1*
X896329Y360670D1*
X897280Y362593D1*
X898231Y365445D1*
Y370243D1*
X897280Y373117D1*
X896329Y375018D1*
X894406Y376941D1*
X891532Y377892D1*
X884833D1*
M02*
