G04 DipTrace 3.0.0.1*
G04 TopPaste.gbr*
%MOIN*%
G04 #@! TF.FileFunction,Paste,Top*
G04 #@! TF.Part,Single*
%ADD53R,0.051181X0.125984*%
%ADD55R,0.031496X0.129921*%
%ADD57R,0.015748X0.035433*%
%ADD59R,0.025591X0.151969*%
%ADD61R,0.051969X0.151969*%
%ADD63R,0.03189X0.052126*%
%ADD65R,0.052126X0.03189*%
%ADD75R,0.03937X0.066929*%
%ADD77R,0.055118X0.066929*%
%ADD79R,0.074803X0.055118*%
%ADD81R,0.007874X0.045276*%
%ADD83R,0.043307X0.051181*%
%FSLAX26Y26*%
G04*
G70*
G90*
G75*
G01*
G04 TopPaste*
%LPD*%
D83*
X512467Y740814D3*
X437664D3*
X513386Y654068D3*
X438583D3*
X1242520Y832415D3*
X1167717D3*
X1071260Y829003D3*
X996457D3*
D81*
X680709Y552887D3*
X655118D3*
X629528D3*
X603937D3*
X578347D3*
D79*
X751575Y547966D3*
X507481D3*
D77*
X790945Y447572D3*
X468110D3*
D75*
X662992D3*
X596063D3*
D83*
X930840Y661942D3*
X856037D3*
D65*
X1275166Y944882D3*
Y994882D3*
Y1044882D3*
Y1094882D3*
Y1144882D3*
Y1194882D3*
Y1244882D3*
Y1294882D3*
Y1344882D3*
Y1394882D3*
Y1444882D3*
Y1494882D3*
Y1544882D3*
Y1594882D3*
Y1644882D3*
Y1694882D3*
Y1744882D3*
Y1794882D3*
Y1844882D3*
Y1894882D3*
D63*
X1075166Y1944882D3*
X1025166D3*
X975166D3*
X925166D3*
X875166D3*
X825166D3*
X775166D3*
D65*
X575166Y1894882D3*
Y1844882D3*
Y1794882D3*
Y1744882D3*
Y1694882D3*
Y1644882D3*
Y1594882D3*
Y1544882D3*
Y1494882D3*
Y1444882D3*
Y1394882D3*
Y1344882D3*
Y1294882D3*
Y1244882D3*
Y1194882D3*
Y1144882D3*
Y1094882D3*
Y1044882D3*
Y994882D3*
Y944882D3*
D61*
X831037Y2226647D3*
D59*
X931037Y2226253D3*
D61*
X1030643D3*
D57*
X754331Y767848D3*
X716929D3*
X679528D3*
Y661549D3*
X754331D3*
D55*
X1125460Y695145D3*
X1204200D3*
D53*
X1033011Y476751D3*
X1296790D3*
M02*
